<svg width="205" height="189" viewBox="0 0 205 189" fill="none" xmlns="http://www.w3.org/2000/svg">
<path d="M105.332 188.92C154.592 188.92 194.524 185.413 194.524 181.088C194.524 176.763 154.592 173.256 105.332 173.256C56.0726 173.256 16.1399 176.763 16.1399 181.088C16.1399 185.413 56.0726 188.92 105.332 188.92Z" fill="#E50D7E"/>
<path opacity="0.5" d="M105.332 188.92C154.592 188.92 194.524 185.413 194.524 181.088C194.524 176.763 154.592 173.256 105.332 173.256C56.0726 173.256 16.1399 176.763 16.1399 181.088C16.1399 185.413 56.0726 188.92 105.332 188.92Z" fill="white"/>
<path d="M14.3818 82.0331V86.6643" stroke="#263238" stroke-width="0.865031" stroke-linecap="round" stroke-linejoin="round"/>
<path d="M16.7007 84.3513H12.0696" stroke="#263238" stroke-width="0.865031" stroke-linecap="round" stroke-linejoin="round"/>
<path d="M172.409 42.3527V46.9838" stroke="#263238" stroke-width="0.865031" stroke-linecap="round" stroke-linejoin="round"/>
<path d="M174.723 44.6709H170.092" stroke="#263238" stroke-width="0.865031" stroke-linecap="round" stroke-linejoin="round"/>
<path d="M106.623 6.50452V11.1356" stroke="#263238" stroke-width="0.865031" stroke-linecap="round" stroke-linejoin="round"/>
<path d="M108.937 8.81747H104.306" stroke="#263238" stroke-width="0.865031" stroke-linecap="round" stroke-linejoin="round"/>
<path d="M30.3958 133.9V138.531" stroke="#263238" stroke-width="0.865031" stroke-linecap="round" stroke-linejoin="round"/>
<path d="M32.7078 136.213H28.0767" stroke="#263238" stroke-width="0.865031" stroke-linecap="round" stroke-linejoin="round"/>
<path d="M170.336 25.6608C170.338 26.4189 170.114 27.1604 169.693 27.7913C169.273 28.4222 168.675 28.9142 167.974 29.2051C167.274 29.4959 166.503 29.5725 165.76 29.4253C165.016 29.278 164.333 28.9134 163.796 28.3777C163.26 27.8419 162.894 27.1591 162.746 26.4155C162.598 25.672 162.673 24.9012 162.963 24.2006C163.253 23.5001 163.744 22.9012 164.375 22.4799C165.005 22.0586 165.746 21.8337 166.504 21.8337C167.52 21.8337 168.494 22.2367 169.212 22.9543C169.931 23.6719 170.335 24.6453 170.336 25.6608Z" stroke="#263238" stroke-width="0.865031" stroke-linecap="round" stroke-linejoin="round"/>
<path d="M6.46487 117.613C8.41761 116.804 9.34492 114.565 8.53607 112.612C7.72722 110.659 5.4885 109.732 3.53576 110.541C1.58301 111.35 0.655708 113.589 1.46456 115.541C2.27341 117.494 4.51213 118.421 6.46487 117.613Z" stroke="#263238" stroke-width="0.865031" stroke-linecap="round" stroke-linejoin="round"/>
<path d="M187.738 64.8191C187.748 64.9389 187.732 65.0594 187.693 65.1729C187.653 65.2864 187.591 65.3905 187.509 65.4787C187.427 65.5669 187.328 65.6373 187.218 65.6855C187.108 65.7336 186.989 65.7584 186.869 65.7584C186.749 65.7584 186.63 65.7336 186.52 65.6855C186.41 65.6373 186.311 65.5669 186.229 65.4787C186.147 65.3905 186.085 65.2864 186.045 65.1729C186.006 65.0594 185.99 64.9389 186 64.8191C186.017 64.6002 186.116 64.3957 186.277 64.2466C186.438 64.0974 186.649 64.0146 186.869 64.0146C187.089 64.0146 187.3 64.0974 187.461 64.2466C187.622 64.3957 187.721 64.6002 187.738 64.8191Z" stroke="#263238" stroke-width="0.865031" stroke-linecap="round" stroke-linejoin="round"/>
<path d="M54.9501 52.2885C54.9512 52.4611 54.9009 52.6302 54.8057 52.7743C54.7106 52.9184 54.5747 53.0309 54.4155 53.0977C54.2563 53.1645 54.0808 53.1825 53.9113 53.1495C53.7419 53.1164 53.586 53.0338 53.4635 52.9121C53.3411 52.7903 53.2575 52.635 53.2234 52.4657C53.1894 52.2964 53.2063 52.1209 53.2722 51.9612C53.338 51.8016 53.4498 51.6651 53.5933 51.5691C53.7368 51.473 53.9055 51.4218 54.0782 51.4218C54.3086 51.4217 54.5295 51.5129 54.6929 51.6753C54.8563 51.8377 54.9488 52.0581 54.9501 52.2885Z" stroke="#263238" stroke-width="0.865031" stroke-linecap="round" stroke-linejoin="round"/>
<path d="M201.273 103.633V103.607H201.241V103.581C200.516 103.507 193.002 102.865 186.147 106.426C189.175 102.622 190.572 97.7723 190.032 92.94C188.376 76.389 172.76 66.918 171.554 66.2079V66.2131H171.517H171.481C170.275 66.9232 154.659 76.3943 153.003 92.9452C152.65 96.1491 153.143 99.3896 154.434 102.343C145.642 97.0855 135.387 97.9731 134.442 98.0671V98.0358V98.0723H134.406V98.0984C133.941 99.1688 128.073 113.281 135.121 125.274C141.428 135.998 154.653 133.163 158.245 132.156C161.263 135.325 166.766 142.54 169.21 154.852H165.785L167.377 178.201H175.084L176.775 154.883H172.739C174.589 146.538 177.924 138.594 182.586 131.43C186.184 132.328 195.916 133.842 200.714 125.687C206.415 115.949 201.654 104.505 201.273 103.633ZM171.272 103.544L163.127 92.2299C163.11 92.2066 163.097 92.1802 163.09 92.1521C163.083 92.1239 163.082 92.0947 163.086 92.0661C163.091 92.0374 163.101 92.0099 163.116 91.9852C163.131 91.9604 163.151 91.9389 163.174 91.9219C163.222 91.8867 163.282 91.8719 163.34 91.8807C163.399 91.8895 163.452 91.9212 163.487 91.9688L171.288 102.803V91.3423L163.143 80.0334C163.108 79.9856 163.093 79.9258 163.102 79.8671C163.11 79.8083 163.142 79.7555 163.19 79.7201C163.239 79.6868 163.299 79.6736 163.357 79.6834C163.415 79.6931 163.468 79.725 163.503 79.7723L171.303 90.6061V73.8986C171.303 73.8698 171.309 73.8413 171.32 73.8147C171.331 73.7881 171.347 73.7639 171.368 73.7435C171.388 73.7232 171.412 73.707 171.439 73.696C171.465 73.685 171.494 73.6793 171.523 73.6793C171.581 73.6793 171.637 73.7024 171.678 73.7435C171.719 73.7846 171.742 73.8404 171.742 73.8986V90.0266L180.2 79.3024C180.236 79.256 180.289 79.2259 180.347 79.2185C180.406 79.2112 180.464 79.2273 180.511 79.2633C180.557 79.2993 180.587 79.3522 180.595 79.4105C180.602 79.4687 180.586 79.5275 180.55 79.5739L171.742 90.7419V102.228L180.2 91.4989C180.237 91.4529 180.291 91.4232 180.349 91.4164C180.408 91.4095 180.467 91.4261 180.513 91.4624C180.536 91.4802 180.555 91.5023 180.569 91.5274C180.583 91.5526 180.592 91.5802 180.596 91.6088C180.599 91.6374 180.597 91.6664 180.589 91.6942C180.581 91.7219 180.568 91.7478 180.55 91.7704L171.742 102.944V112.681L180.2 101.957C180.236 101.91 180.289 101.88 180.347 101.873C180.406 101.866 180.464 101.882 180.511 101.918C180.557 101.954 180.587 102.007 180.595 102.065C180.602 102.123 180.586 102.182 180.55 102.228L171.742 113.396V113.61H171.032L163.153 102.646C163.118 102.598 163.103 102.538 163.112 102.48C163.121 102.421 163.153 102.368 163.2 102.333C163.249 102.299 163.309 102.286 163.367 102.296C163.426 102.306 163.478 102.338 163.514 102.385L171.288 113.203V103.523L171.272 103.544ZM158.329 131.158L157.53 130.062L146.044 126.867C145.998 126.851 145.959 126.819 145.936 126.776C145.913 126.734 145.907 126.684 145.918 126.637C145.932 126.589 145.963 126.549 146.006 126.525C146.049 126.5 146.1 126.494 146.148 126.506L157.154 129.576L152.366 123.029L140.88 119.834C140.832 119.82 140.792 119.789 140.768 119.746C140.743 119.703 140.737 119.652 140.749 119.604C140.765 119.558 140.797 119.52 140.84 119.497C140.882 119.473 140.932 119.467 140.979 119.479L151.991 122.549L146.331 114.801L134.844 111.605C134.821 111.599 134.799 111.589 134.78 111.574C134.761 111.559 134.745 111.541 134.734 111.52C134.722 111.499 134.715 111.476 134.712 111.452C134.71 111.428 134.712 111.404 134.719 111.381C134.725 111.358 134.736 111.336 134.75 111.316C134.765 111.297 134.783 111.281 134.804 111.269C134.825 111.257 134.848 111.249 134.872 111.246C134.896 111.242 134.92 111.244 134.944 111.25L145.955 114.32L137.993 103.429C137.964 103.389 137.952 103.339 137.96 103.29C137.968 103.241 137.995 103.197 138.035 103.168C138.054 103.153 138.076 103.143 138.099 103.137C138.123 103.131 138.148 103.13 138.171 103.134C138.195 103.137 138.218 103.146 138.239 103.159C138.259 103.173 138.277 103.19 138.29 103.21L146.529 114.477L146.493 103.309C146.494 103.26 146.514 103.213 146.549 103.178C146.584 103.143 146.631 103.122 146.681 103.121C146.73 103.122 146.776 103.143 146.81 103.178C146.844 103.213 146.863 103.26 146.863 103.309L146.947 114.968L152.607 122.711L152.523 111.543C152.519 111.516 152.52 111.488 152.527 111.462C152.534 111.436 152.547 111.411 152.565 111.39C152.583 111.369 152.605 111.353 152.629 111.341C152.654 111.33 152.681 111.324 152.708 111.324C152.736 111.324 152.763 111.33 152.788 111.341C152.812 111.353 152.834 111.369 152.852 111.39C152.87 111.411 152.882 111.436 152.89 111.462C152.897 111.488 152.898 111.516 152.894 111.543L152.977 123.207L157.76 129.749L157.676 118.581C157.678 118.532 157.698 118.485 157.733 118.451C157.768 118.417 157.815 118.398 157.864 118.398C157.913 118.398 157.959 118.417 157.994 118.452C158.028 118.486 158.047 118.532 158.047 118.581L158.131 130.245L158.815 131.179L158.329 131.158ZM159.634 131.158C161.305 128.616 166.129 120.267 163.247 112.232C165.488 113.71 167.885 114.936 170.395 115.887V152.142C167.748 141.032 162.767 134.39 159.728 131.158H159.634ZM172.165 149.907V116.054C174.554 115.186 176.844 114.07 178.999 112.723C174.4 120.095 179.553 128.611 180.91 130.621C177.046 136.575 174.098 143.077 172.165 149.907ZM200.839 114.566L191.54 117.176L186.946 123.442L195.879 120.951C195.898 120.945 195.919 120.943 195.939 120.944C195.959 120.946 195.978 120.952 195.996 120.962C196.014 120.972 196.029 120.985 196.041 121.001C196.054 121.018 196.062 121.036 196.067 121.056C196.077 121.094 196.071 121.134 196.052 121.168C196.032 121.202 196 121.227 195.963 121.238L186.664 123.849L182.779 129.159L191.713 126.668C191.751 126.659 191.791 126.664 191.825 126.684C191.859 126.703 191.884 126.735 191.895 126.773C191.905 126.811 191.9 126.853 191.881 126.887C191.861 126.922 191.829 126.949 191.791 126.961L182.492 129.571L182.001 130.24C181.913 130.187 181.829 130.14 181.746 130.083L182.022 129.702L182.095 120.241C182.091 120.219 182.092 120.197 182.098 120.175C182.103 120.154 182.114 120.134 182.128 120.116C182.142 120.099 182.16 120.086 182.18 120.076C182.2 120.067 182.222 120.062 182.244 120.062C182.267 120.062 182.288 120.067 182.309 120.076C182.329 120.086 182.347 120.099 182.361 120.116C182.375 120.134 182.385 120.154 182.391 120.175C182.396 120.197 182.397 120.219 182.393 120.241L182.33 129.305L186.173 123.969L186.241 114.508C186.241 114.489 186.245 114.469 186.253 114.451C186.26 114.433 186.272 114.417 186.286 114.403C186.3 114.389 186.317 114.379 186.335 114.372C186.353 114.365 186.373 114.361 186.392 114.362C186.412 114.362 186.432 114.366 186.45 114.374C186.469 114.381 186.485 114.392 186.499 114.407C186.514 114.421 186.525 114.437 186.532 114.456C186.54 114.474 186.544 114.494 186.544 114.514L186.476 123.572L191.071 117.307L191.138 107.846C191.138 107.826 191.142 107.807 191.15 107.788C191.158 107.77 191.169 107.753 191.183 107.739C191.197 107.725 191.214 107.714 191.232 107.706C191.25 107.699 191.27 107.695 191.29 107.695C191.309 107.695 191.329 107.699 191.347 107.706C191.365 107.714 191.381 107.725 191.395 107.739C191.409 107.754 191.419 107.77 191.426 107.789C191.433 107.807 191.437 107.827 191.436 107.846L191.373 116.905L198.056 107.763C198.08 107.731 198.115 107.71 198.154 107.705C198.193 107.699 198.233 107.708 198.265 107.731C198.281 107.743 198.295 107.757 198.305 107.774C198.316 107.791 198.323 107.81 198.325 107.829C198.328 107.849 198.327 107.869 198.322 107.888C198.317 107.907 198.309 107.925 198.297 107.94L191.838 116.78L200.771 114.289C200.809 114.279 200.85 114.285 200.884 114.304C200.918 114.324 200.943 114.356 200.954 114.394C200.959 114.412 200.959 114.432 200.956 114.451C200.952 114.47 200.945 114.489 200.934 114.505C200.924 114.521 200.91 114.535 200.893 114.545C200.877 114.556 200.858 114.563 200.839 114.566Z" fill="#263238"/>
<path d="M150.088 22.3976H69.4744C67.5281 22.3976 65.9502 23.9754 65.9502 25.9218V176.859C65.9502 178.805 67.5281 180.383 69.4744 180.383H150.088C152.035 180.383 153.613 178.805 153.613 176.859V25.9218C153.613 23.9754 152.035 22.3976 150.088 22.3976Z" fill="#263238" stroke="#263238" stroke-width="0.865031" stroke-linecap="round" stroke-linejoin="round"/>
<path d="M147.306 22.3976H66.6917C64.7453 22.3976 63.1675 23.9754 63.1675 25.9218V176.859C63.1675 178.805 64.7453 180.383 66.6917 180.383H147.306C149.252 180.383 150.83 178.805 150.83 176.859V25.9218C150.83 23.9754 149.252 22.3976 147.306 22.3976Z" fill="white"/>
<mask id="mask0_264_16268" style="mask-type:luminance" maskUnits="userSpaceOnUse" x="63" y="22" width="88" height="159">
<path d="M147.304 22.3976H66.6903C64.7439 22.3976 63.166 23.9755 63.166 25.9219V176.859C63.166 178.805 64.7439 180.383 66.6903 180.383H147.304C149.251 180.383 150.828 178.805 150.828 176.859V25.9219C150.828 23.9755 149.251 22.3976 147.304 22.3976Z" fill="white"/>
</mask>
<g mask="url(#mask0_264_16268)">
<path d="M150.83 82.0123L73.7451 180.388H147.311C148.244 180.387 149.139 180.015 149.799 179.354C150.459 178.694 150.83 177.798 150.83 176.864V82.0123Z" fill="#E50D7E"/>
<path opacity="0.5" d="M150.83 82.0123L73.7451 180.388H147.311C148.244 180.387 149.139 180.015 149.799 179.354C150.459 178.694 150.83 177.798 150.83 176.864V82.0123Z" fill="white"/>
</g>
<path d="M147.306 22.3976H66.6917C64.7453 22.3976 63.1675 23.9754 63.1675 25.9218V176.859C63.1675 178.805 64.7453 180.383 66.6917 180.383H147.306C149.252 180.383 150.83 178.805 150.83 176.859V25.9218C150.83 23.9754 149.252 22.3976 147.306 22.3976Z" stroke="#263238" stroke-width="0.865031" stroke-linecap="round" stroke-linejoin="round"/>
<path d="M113.076 31.8373H102.164C101.866 31.8373 101.58 31.719 101.37 31.5085C101.159 31.298 101.041 31.0125 101.041 30.7148C101.041 30.5676 101.07 30.4219 101.127 30.286C101.183 30.1501 101.266 30.0267 101.37 29.9229C101.474 29.819 101.598 29.7368 101.734 29.681C101.871 29.6252 102.016 29.5968 102.164 29.5975H113.076C113.372 29.5975 113.656 29.7152 113.866 29.9247C114.075 30.1342 114.193 30.4184 114.193 30.7148C114.194 30.8619 114.165 31.0078 114.109 31.144C114.054 31.2801 113.971 31.4039 113.868 31.5082C113.764 31.6125 113.64 31.6953 113.504 31.7518C113.369 31.8082 113.223 31.8373 113.076 31.8373Z" fill="#263238" stroke="#263238" stroke-width="0.865031" stroke-linecap="round" stroke-linejoin="round"/>
<path d="M145.29 166.265H68.6963V31.9679H86.8501L88.8915 33.6595C89.604 34.2529 90.5018 34.578 91.429 34.5785H123.461C124.422 34.5746 125.35 34.2221 126.071 33.5864L127.919 31.9679H145.29V166.265Z" fill="#263238" stroke="#263238" stroke-width="0.865031" stroke-linecap="round" stroke-linejoin="round"/>
<path d="M83.0752 137.309H130.921" stroke="white" stroke-width="0.865031" stroke-linecap="round" stroke-linejoin="round"/>
<path d="M83.0752 143.606H130.921" stroke="white" stroke-width="0.865031" stroke-linecap="round" stroke-linejoin="round"/>
<path d="M83.0752 149.902H130.921" stroke="white" stroke-width="0.865031" stroke-linecap="round" stroke-linejoin="round"/>
<path d="M87.4935 78.8482C84.4865 83.2051 83.0262 88.4439 83.346 93.728C83.6657 99.0121 85.747 104.037 89.2574 107.999C92.7678 111.961 97.5049 114.633 102.712 115.588C107.919 116.542 113.296 115.724 117.983 113.264C122.671 110.804 126.399 106.844 128.572 102.017C130.744 97.1898 131.237 91.7736 129.971 86.6336C128.704 81.4935 125.752 76.9261 121.585 73.6608C117.418 70.3956 112.278 68.6208 106.984 68.6201C105.532 68.6202 104.084 68.7512 102.656 69.0117" stroke="white" stroke-width="0.865031" stroke-linecap="round" stroke-linejoin="round"/>
<path d="M91.529 74.3737C90.7335 75.0622 89.9835 75.8017 89.2839 76.5874" stroke="white" stroke-width="0.865031" stroke-linecap="round" stroke-linejoin="round"/>
<path d="M125.484 100.175C129.832 89.9666 125.081 78.1662 114.873 73.8183C104.664 69.4703 92.8637 74.2212 88.5158 84.4297C84.1678 94.6382 88.9187 106.438 99.1272 110.786C109.336 115.134 121.136 110.384 125.484 100.175Z" fill="#E50D7E"/>
<path d="M97.7212 90.2145L105.344 98.8764L117.812 81.2133" stroke="#263238" stroke-width="5.19018" stroke-linecap="round" stroke-linejoin="round"/>
<path d="M126.092 33.5864C125.37 34.2221 124.443 34.5746 123.481 34.5785H91.4394C90.5122 34.578 89.6145 34.2529 88.902 33.6595L86.8605 31.9679H68.6963V45.7046H145.29V31.9679H127.94L126.092 33.5864Z" fill="#E50D7E" stroke="#263238" stroke-width="0.865031" stroke-linecap="round" stroke-linejoin="round"/>
<path d="M109.447 170.406C109.448 170.06 109.346 169.722 109.155 169.435C108.964 169.147 108.692 168.923 108.373 168.79C108.054 168.658 107.703 168.623 107.364 168.69C107.025 168.757 106.714 168.923 106.47 169.167C106.226 169.411 106.06 169.723 105.992 170.061C105.925 170.4 105.96 170.751 106.093 171.07C106.226 171.389 106.45 171.661 106.738 171.852C107.025 172.044 107.363 172.145 107.708 172.144C108.169 172.143 108.61 171.959 108.936 171.633C109.262 171.308 109.446 170.866 109.447 170.406Z" fill="#263238" stroke="#263238" stroke-width="0.865031" stroke-linecap="round" stroke-linejoin="round"/>
<path d="M41.3277 116.994L34.4985 178.081C34.4985 178.081 29.4915 182.435 29.93 184.194C30.3686 185.954 36.1484 183.15 36.9472 181.699C37.5141 180.491 37.9179 179.212 38.1481 177.898L52.527 131.952L63.5853 181.224C63.5853 181.224 68.2843 185.082 70.8949 184.952C73.5054 184.821 72.5761 183.792 71.088 181.908C69.6 180.023 66.2324 178.947 66.2324 178.947L64.5721 115.443L41.3277 116.994Z" fill="#263238" stroke="#263238" stroke-width="0.865031" stroke-linecap="round" stroke-linejoin="round"/>
<path d="M64.1977 114.374L41.2544 115.541L41.4134 118.669L64.3567 117.503L64.1977 114.374Z" fill="#263238" stroke="#263238" stroke-width="0.865031" stroke-linecap="round" stroke-linejoin="round"/>
<path d="M55.4877 116.362C55.5242 117.14 54.5374 117.819 53.2739 117.886C52.0104 117.954 50.9453 117.38 50.9453 116.597C50.9453 115.814 51.9008 115.14 53.1591 115.077C54.4174 115.015 55.4459 115.589 55.4877 116.362Z" fill="white"/>
<path d="M51.5557 84.2625L42.9304 86.7896L44.0007 115.621L64.2325 115.119L61.6742 85.3172L51.5557 84.2625Z" fill="white" stroke="#263238" stroke-width="0.865031" stroke-linecap="round" stroke-linejoin="round"/>
<path d="M47.7808 84.5862L46.6217 133.785L35.6365 128.464L40.466 112.926L37.1715 86.6903L47.7808 84.5862Z" fill="#E50D7E" stroke="#263238" stroke-width="0.865031" stroke-linecap="round" stroke-linejoin="round"/>
<path d="M56.5166 84.1424L62.6566 132.97L73.0519 126.564L66.6717 111.595L67.2878 85.1605L56.5166 84.1424Z" fill="#E50D7E" stroke="#263238" stroke-width="0.865031" stroke-linecap="round" stroke-linejoin="round"/>
<path d="M49.9788 90.0945L51.6913 92.8826L50.3234 112.295L53.5709 116.137L55.2521 111.522L52.652 92.9191L54.2548 90.225L51.9262 87.2072L49.9788 90.0945Z" fill="#263238" stroke="#263238" stroke-width="0.865031" stroke-linecap="round" stroke-linejoin="round"/>
<path d="M52.0986 89.7238L48.8668 92.1568L46.2771 85.8393L47.7338 83.5838L55.6438 83.1817L57.5129 85.7035L55.9727 91.4467L52.0986 89.7238Z" fill="white" stroke="#263238" stroke-width="0.865031" stroke-linecap="round" stroke-linejoin="round"/>
<path d="M48.3916 81.1559L49.1173 85.171L52.0986 89.7238L54.8292 84.3565L54.6569 80.968L48.3916 81.1559Z" fill="white" stroke="#263238" stroke-width="0.865031" stroke-linecap="round" stroke-linejoin="round"/>
<path d="M37.1714 86.6903L22.521 104.426L32.2584 115.955L36.1794 113.407L31.3656 103.586L38.5498 98.3856L37.1714 86.6903Z" fill="#E50D7E" stroke="#263238" stroke-width="0.865031" stroke-linecap="round" stroke-linejoin="round"/>
<path d="M36.1793 113.407L36.764 114.681L33.4643 116.55L33.0205 115.527L36.1793 113.407Z" fill="white" stroke="#263238" stroke-width="0.865031" stroke-linecap="round" stroke-linejoin="round"/>
<path d="M36.7644 114.681L40.1268 119.087L39.0199 120.45L38.2158 120.1L36.5868 121.489C36.5868 121.489 35.3964 121.155 35.245 120.774C35.0936 120.393 33.4803 119.421 33.4437 118.774C33.4072 118.127 33.4437 116.55 33.4437 116.55L36.7644 114.681Z" fill="white" stroke="#263238" stroke-width="0.865031" stroke-linecap="round" stroke-linejoin="round"/>
<path d="M75.4473 88.6221C75.6457 88.1045 75.6893 87.5403 75.5726 86.9983C75.3324 86.377 74.7998 84.2259 74.9043 83.5159C75.0087 82.8058 76.0842 81.772 76.1782 80.8531C76.2722 79.9342 76.1782 79.0936 76.1782 78.5976C76.1869 78.4618 76.2391 78.3325 76.3272 78.2288C76.4153 78.1251 76.5345 78.0526 76.667 78.0221C76.7996 77.9916 76.9385 78.0047 77.063 78.0595C77.1876 78.1143 77.2911 78.2078 77.3582 78.3261C77.8803 78.9317 78.1936 79.553 77.943 80.1952C77.7723 80.9134 77.6916 81.65 77.7028 82.3881C77.7028 82.3881 78.5382 83.542 78.9976 84.2938C79.4571 85.0457 79.4153 87.014 79.1073 87.8024C78.8201 88.3994 78.4152 88.9322 77.9169 89.3687L77.9691 90.7262L75.4473 88.6221Z" fill="white" stroke="#263238" stroke-width="0.865031" stroke-linecap="round" stroke-linejoin="round"/>
<path d="M76.9729 81.3021C76.9729 81.3021 76.6075 82.3776 77.2497 82.623C77.8919 82.8684 80.5181 83.2339 80.5442 82.3881C80.5703 81.5423 80.6225 81.1194 80.1996 81.1402C79.7767 81.1611 77.8083 81.1402 77.8083 81.1402C77.8083 81.1402 76.8946 81.0932 76.9729 81.3021Z" fill="white" stroke="#263238" stroke-width="0.865031" stroke-linecap="round" stroke-linejoin="round"/>
<path d="M77.2689 86.5754C77.2689 86.5754 77.0078 87.3743 77.4725 87.557C77.9372 87.7397 79.8272 88.0165 79.8429 87.3847C79.8586 86.7529 79.8951 86.4397 79.5923 86.4553C79.2895 86.471 77.8693 86.4553 77.8693 86.4553C77.8693 86.4553 77.2115 86.4083 77.2689 86.5754Z" fill="white" stroke="#263238" stroke-width="0.865031" stroke-linecap="round" stroke-linejoin="round"/>
<path d="M76.9204 84.8681C76.9204 84.8681 76.6176 85.7975 77.1554 86.0116C77.6931 86.2256 79.8808 86.5337 79.9017 85.8132C79.9226 85.0926 79.9643 84.7167 79.6093 84.7324C79.2542 84.7481 77.6148 84.7324 77.6148 84.7324C77.6148 84.7324 76.8525 84.6906 76.9204 84.8681Z" fill="white" stroke="#263238" stroke-width="0.865031" stroke-linecap="round" stroke-linejoin="round"/>
<path d="M76.7163 83.213C76.7163 83.213 76.3508 84.2886 76.9982 84.534C77.6457 84.7794 80.2614 85.1448 80.2875 84.299C80.3136 83.4532 80.3659 83.0303 79.9429 83.0512C79.52 83.0721 77.5517 83.0512 77.5517 83.0512C77.5517 83.0512 76.638 83.0094 76.7163 83.213Z" fill="white" stroke="#263238" stroke-width="0.865031" stroke-linecap="round" stroke-linejoin="round"/>
<path d="M75.1494 89.6924L75.5567 88.053L78.3865 89.7394L77.9114 91.5198L75.1494 89.6924Z" fill="white" stroke="#263238" stroke-width="0.865031" stroke-linecap="round" stroke-linejoin="round"/>
<path d="M67.287 85.1605L72.7065 96.694L75.3692 89.2748L77.9798 91.76L75.3066 105.512C75.2232 105.936 75.018 106.326 74.716 106.634C74.414 106.942 74.0285 107.156 73.6069 107.248C73.1853 107.34 72.746 107.307 72.343 107.152C71.94 106.998 71.5909 106.729 71.3386 106.379L67.0103 100.338L67.287 85.1605Z" fill="#E50D7E" stroke="#263238" stroke-width="0.865031" stroke-linecap="round" stroke-linejoin="round"/>
<path d="M45.8702 76.4674C45.8702 76.4674 44.7738 75.2979 44.6328 76.1541C44.4918 77.0104 44.9356 78.488 45.6248 79.0153C46.314 79.5426 46.9196 78.6707 46.9196 78.6707L45.8702 76.4674Z" fill="white" stroke="#263238" stroke-width="0.865031" stroke-linecap="round" stroke-linejoin="round"/>
<path d="M56.2334 75.94C56.2334 75.94 57.1993 74.6661 57.4342 75.5015C57.6692 76.3368 57.3664 77.8562 56.7346 78.4514C56.1029 79.0466 55.4084 78.2373 55.4084 78.2373L56.2334 75.94Z" fill="white" stroke="#263238" stroke-width="0.865031" stroke-linecap="round" stroke-linejoin="round"/>
<path d="M46.3092 77.6682L45.265 75.4597C44.4245 74.2768 43.8428 72.9301 43.5577 71.5073C43.0356 69.0847 43.8971 67.0694 44.9935 66.448C45.6097 66.0792 46.3372 65.9422 47.0454 66.0617C47.0454 66.0617 47.2542 64.6415 50.7002 63.4511C54.1461 62.2607 57.8948 64.4066 57.8374 65.1584C57.78 65.9103 56.8611 66.2444 56.8611 66.2444C56.8611 66.2444 59.5447 67.2364 58.5736 68.5052C57.9747 69.2802 57.1997 69.9013 56.3129 70.3169C56.5075 70.9567 56.6661 71.6068 56.788 72.2644C56.9237 73.105 56.1667 76.718 56.1667 76.718L54.3132 71.6378L48.4969 71.9354C48.4969 71.9354 48.1523 74.3998 47.5362 75.2769C47.1429 75.9427 46.9238 76.6969 46.8992 77.4698C46.8992 77.4698 46.6277 78.3992 46.3092 77.6682Z" fill="#263238" stroke="#263238" stroke-width="0.865031" stroke-linecap="round" stroke-linejoin="round"/>
<path d="M47.3425 68.4895C47.3325 70.0058 47.2226 71.5197 47.0135 73.0215C46.8877 73.8571 46.4561 74.6163 45.8022 75.1517C45.8022 75.1517 46.5436 78.5924 47.4834 80.425C48.4232 82.2576 50.3759 83.7613 52.3443 83.5577C54.3127 83.354 55.8842 81.1194 56.0722 79.2294C56.2601 77.3393 55.336 70.3535 55.336 70.3535C55.336 70.3535 49.1855 71.4342 47.3425 68.4895Z" fill="white" stroke="#263238" stroke-width="0.865031" stroke-linecap="round" stroke-linejoin="round"/>
<path d="M47.8643 75.5537C48.1778 75.3681 48.5317 75.2617 48.8956 75.2435C49.2594 75.2253 49.6222 75.2959 49.9527 75.4492" stroke="#263238" stroke-width="0.865031" stroke-linecap="round" stroke-linejoin="round"/>
<path d="M47.781 73.9873C47.781 73.9873 47.9011 72.9431 49.6449 72.8491" stroke="#263238" stroke-width="0.865031" stroke-linecap="round" stroke-linejoin="round"/>
<path d="M52.4221 72.6194C52.8167 72.4578 53.2527 72.4268 53.6661 72.5311C54.0796 72.6354 54.4487 72.8695 54.7194 73.199" stroke="#263238" stroke-width="0.865031" stroke-linecap="round" stroke-linejoin="round"/>
<path d="M51.812 74.3058C51.812 74.3058 52.0888 76.3943 52.1044 76.6501C52.1201 76.906 52.992 76.9529 52.7571 77.4855C52.5221 78.0181 51.7651 78.5819 51.1333 78.1799" stroke="#263238" stroke-width="0.865031" stroke-linecap="round" stroke-linejoin="round"/>
<path d="M52.7939 79.929C52.7939 79.929 52.1308 80.5712 50.7942 80.0282" stroke="#263238" stroke-width="0.865031" stroke-linecap="round" stroke-linejoin="round"/>
<path d="M54.114 74.9741C54.114 75.3605 53.9522 75.6842 53.712 75.6946C53.4718 75.7051 53.263 75.4022 53.2421 75.0211C53.2212 74.64 53.404 74.3163 53.6441 74.3006C53.8843 74.2849 54.0775 74.593 54.114 74.9741Z" fill="#263238"/>
</svg>
