<svg width="114" height="62" viewBox="0 0 114 62" fill="none" xmlns="http://www.w3.org/2000/svg">
<path d="M46.5336 35.8702C47.7147 33.8288 48.3199 31.3864 48.9396 29.1044C49.0416 28.7472 49.1583 28.3827 49.2677 28.0254C49.2895 27.9088 49.3333 27.6755 49.3624 27.5515C49.5301 26.3559 49.3624 25.2695 48.7938 24.1687C48.4803 23.6146 48.0793 23.1042 47.5689 22.7105C47.4668 22.6376 47.2335 22.4991 47.1315 22.4335C47.0367 22.3897 46.7451 22.2585 46.643 22.2075C43.9673 21.5367 41.0948 21.6679 38.3681 21.9814C37.9817 22.0325 37.639 22.1418 37.2891 22.2949C37.0922 22.3606 36.8516 22.5355 36.6766 22.6303C36.5891 22.6959 36.3631 22.8855 36.2829 22.9511C36.21 23.0313 36.0205 23.2354 35.9403 23.3084C34.9196 24.5769 34.5842 26.3996 35.5466 27.7921C36.4433 29.2284 37.3255 30.7084 38.0837 32.2103C38.543 33.0997 39.1117 34.3319 39.5273 35.2505C39.7898 35.8848 40.2345 36.468 40.7667 36.9201C42.6477 38.4365 45.3161 37.9772 46.5191 35.8483L46.5336 35.8702ZM46.8982 36.0671C45.5348 38.6334 42.655 40.2665 39.695 39.6832C38.1129 39.3552 36.7204 38.349 35.8528 36.993C35.6778 36.7305 35.2987 36.1254 35.131 35.8556C34.1905 34.3465 33.3375 32.7935 32.572 31.1969C32.397 30.8323 32.0689 30.1543 31.9085 29.7971C31.1649 28.2441 30.9389 26.4069 31.4419 24.7446C31.9596 22.8636 33.4177 21.2961 35.2258 20.6181L35.7507 20.4358C35.933 20.3921 36.3777 20.3046 36.5527 20.2681C37.1359 20.1952 37.8067 20.1952 38.3827 20.2608C40.147 20.4796 41.9259 20.5743 43.6976 20.465C44.7912 20.4139 45.8264 20.1879 46.9419 20.1296C49.4208 20.0713 51.9142 21.6679 52.7453 24.1103C53.4088 25.8893 53.1026 27.9744 51.9871 29.4981C50.2519 31.6124 48.1449 33.6101 46.9055 36.0743L46.8982 36.0671Z" fill="#70648D"/>
<path d="M41.7057 18.8606C44.1659 18.8606 46.1603 16.8662 46.1603 14.4059C46.1603 11.9457 44.1659 9.95134 41.7057 9.95134C39.2455 9.95134 37.2511 11.9457 37.2511 14.4059C37.2511 16.8662 39.2455 18.8606 41.7057 18.8606Z" fill="#70648D"/>
<path d="M75.444 35.87C76.6251 33.8286 77.2303 31.3862 77.85 29.1042C77.952 28.747 78.0687 28.3824 78.1781 28.0252C78.1999 27.9085 78.2437 27.6752 78.2728 27.5513C78.4405 26.3556 78.2728 25.2693 77.7042 24.1684C77.3907 23.6143 76.9897 23.104 76.4793 22.7103C76.3773 22.6374 76.144 22.4989 76.0419 22.4332C75.9471 22.3895 75.6555 22.2583 75.5534 22.2072C72.8777 21.5365 70.0052 21.6677 67.2785 21.9812C66.8921 22.0323 66.5494 22.1416 66.1995 22.2947C66.0026 22.3603 65.762 22.5353 65.587 22.6301C65.4995 22.6957 65.2735 22.8853 65.1933 22.9509C65.1204 23.0311 64.9309 23.2352 64.8507 23.3081C63.83 24.5767 63.4946 26.3994 64.457 27.7919C65.3537 29.2282 66.2359 30.7082 66.9941 32.2101C67.4535 33.0995 68.0221 34.3316 68.4377 35.2503C68.7002 35.8846 69.1449 36.4678 69.6771 36.9198C71.5581 38.4363 74.2265 37.977 75.4295 35.8481L75.444 35.87ZM75.8086 36.0668C74.4452 38.6332 71.5654 40.2663 68.6054 39.683C67.0233 39.3549 65.6308 38.3488 64.7632 36.9927C64.5882 36.7303 64.2091 36.1252 64.0414 35.8554C63.1009 34.3462 62.2479 32.7933 61.4824 31.1966C61.3074 30.8321 60.9793 30.1541 60.8189 29.7968C60.0753 28.2439 59.8493 26.4067 60.3523 24.7444C60.87 22.8634 62.3281 21.2959 64.1362 20.6179L64.6611 20.4356C64.8434 20.3918 65.2881 20.3044 65.4631 20.2679C66.0463 20.195 66.7171 20.195 67.2931 20.2606C69.0574 20.4793 70.8363 20.5741 72.608 20.4648C73.7016 20.4137 74.7368 20.1877 75.8523 20.1294C78.3312 20.0711 80.8246 21.6677 81.6557 24.1101C82.3192 25.889 82.013 27.9742 80.8975 29.4979C79.1623 31.6122 77.0553 33.6099 75.8159 36.0741L75.8086 36.0668Z" fill="#70648D"/>
<path d="M70.6258 18.8603C73.086 18.8603 75.0804 16.8659 75.0804 14.4057C75.0804 11.9455 73.086 9.95111 70.6258 9.95111C68.1656 9.95111 66.1712 11.9455 66.1712 14.4057C66.1712 16.8659 68.1656 18.8603 70.6258 18.8603Z" fill="#70648D"/>
<path d="M61.1358 35.87C62.3168 33.8286 62.922 31.3862 63.5417 29.1042C63.6437 28.747 63.7604 28.3824 63.8698 28.0252C63.8916 27.9085 63.9354 27.6752 63.9645 27.5513C64.1322 26.3556 63.9645 25.2693 63.3959 24.1684C63.0824 23.6143 62.6814 23.104 62.171 22.7103C62.069 22.6374 61.8357 22.4989 61.7336 22.4332C61.6388 22.3895 61.3472 22.2583 61.2451 22.2072C58.5694 21.5365 55.6969 21.6677 52.9702 21.9812C52.5838 22.0323 52.2411 22.1416 51.8912 22.2947C51.6943 22.3603 51.4537 22.5353 51.2787 22.6301C51.1913 22.6957 50.9652 22.8853 50.885 22.9509C50.8121 23.0311 50.6226 23.2352 50.5424 23.3081C49.5217 24.5767 49.1863 26.3994 50.1487 27.7919C51.0454 29.2282 51.9276 30.7082 52.6858 32.2101C53.1452 33.0995 53.7138 34.3316 54.1294 35.2503C54.3919 35.8846 54.8366 36.4678 55.3688 36.9198C57.2498 38.4363 59.9182 37.977 61.1212 35.8481L61.1358 35.87ZM61.5003 36.0668C60.1369 38.6332 57.2571 40.2663 54.2971 39.683C52.715 39.3549 51.3225 38.3488 50.4549 36.9927C50.2799 36.7303 49.9008 36.1252 49.7331 35.8554C48.7926 34.3462 47.9396 32.7933 47.1741 31.1966C46.9991 30.8321 46.671 30.1541 46.5106 29.7968C45.767 28.2439 45.541 26.4067 46.044 24.7444C46.5617 22.8634 48.0198 21.2959 49.8279 20.6179L50.3528 20.4356C50.5351 20.3918 50.9798 20.3044 51.1548 20.2679C51.7381 20.195 52.4088 20.195 52.9848 20.2606C54.7491 20.4793 56.528 20.5741 58.2997 20.4648C59.3933 20.4137 60.4286 20.1877 61.544 20.1294C64.0229 20.0711 66.5163 21.6677 67.3474 24.1101C68.0109 25.889 67.7047 27.9742 66.5892 29.4979C64.854 31.6122 62.747 33.6099 61.5076 36.0741L61.5003 36.0668Z" fill="#E5087E"/>
<path d="M56.3175 18.8603C58.7777 18.8603 60.7721 16.8659 60.7721 14.4057C60.7721 11.9455 58.7777 9.95111 56.3175 9.95111C53.8573 9.95111 51.8629 11.9455 51.8629 14.4057C51.8629 16.8659 53.8573 18.8603 56.3175 18.8603Z" fill="#E5087E"/>
<path d="M13.7786 51.9604C13.5307 51.9604 13.363 51.924 13.261 51.8511C13.1589 51.7782 13.0933 51.6834 13.0641 51.5667C13.0349 51.4501 13.0276 51.3261 13.0276 51.2022V45.7852C13.0276 45.6613 13.0422 45.5373 13.0641 45.4207C13.086 45.304 13.1589 45.2092 13.261 45.1363C13.363 45.0634 13.5453 45.027 13.7859 45.027H15.8346C16.1116 45.027 16.3959 45.078 16.6803 45.1728C16.9646 45.2749 17.2271 45.4207 17.4604 45.6248C17.701 45.829 17.8905 46.0841 18.0364 46.3903C18.1822 46.6965 18.2551 47.0538 18.2551 47.4694C18.2551 47.7464 18.2113 48.0162 18.1311 48.2786C18.0509 48.5411 17.927 48.7744 17.7593 48.9931C17.5916 49.2045 17.3875 49.3941 17.1469 49.5472C16.899 49.7003 16.622 49.817 16.3012 49.8899H14.5368V51.1949C14.5368 51.3188 14.5222 51.4428 14.5004 51.5594C14.4712 51.6761 14.4056 51.7709 14.3035 51.8438C14.2014 51.9167 14.0192 51.9531 13.7786 51.9531V51.9604ZM14.5441 48.4026H15.9221C16.0095 48.4026 16.097 48.3807 16.1991 48.3442C16.3012 48.3078 16.3887 48.2568 16.4689 48.1838C16.5491 48.1109 16.622 48.0162 16.673 47.8995C16.724 47.7829 16.7532 47.637 16.7532 47.4767C16.7532 47.2871 16.7167 47.1194 16.6365 46.9809C16.5563 46.8424 16.447 46.733 16.3085 46.6601C16.1699 46.5872 16.0095 46.5434 15.82 46.5434H14.5441V48.4099V48.4026ZM17.9634 51.7636C17.7156 51.9386 17.526 52.0115 17.3802 51.975C17.2344 51.9386 17.0813 51.8073 16.9209 51.5813L15.1784 49.0806L16.8771 48.8619L18.153 50.6991C18.2624 50.8595 18.3353 50.9908 18.3644 51.1074C18.3936 51.2168 18.379 51.3261 18.3134 51.4209C18.2478 51.523 18.1311 51.6323 17.9634 51.7563V51.7636Z" fill="#E5087E"/>
<path d="M21.3397 51.961C21.0991 51.961 20.9314 51.9245 20.822 51.8589C20.7127 51.7933 20.6544 51.6985 20.6252 51.5746C20.596 51.4506 20.5887 51.334 20.5887 51.21V45.7858C20.5887 45.5014 20.6471 45.3046 20.7564 45.1952C20.8658 45.0859 21.0699 45.0348 21.3616 45.0348H25.109C25.2402 45.0348 25.3641 45.0494 25.4735 45.0713C25.5829 45.0932 25.6776 45.1588 25.7506 45.2608C25.8235 45.3702 25.8599 45.5452 25.8599 45.7931C25.8599 46.0337 25.8235 46.2013 25.7506 46.3107C25.6776 46.4201 25.5829 46.4784 25.4662 46.5076C25.3496 46.5294 25.2256 46.544 25.0944 46.544H22.0906V47.8199H24.132C24.2633 47.8199 24.3799 47.8272 24.482 47.849C24.584 47.8709 24.6642 47.9219 24.7226 48.0167C24.7809 48.1115 24.8101 48.2646 24.8101 48.4833C24.8101 48.6875 24.7809 48.8406 24.7226 48.9281C24.6642 49.0156 24.5768 49.0739 24.4674 49.0957C24.358 49.1176 24.2341 49.1249 24.1029 49.1249H22.0833V50.4518H25.0944C25.2256 50.4518 25.3496 50.4664 25.4589 50.4883C25.5683 50.5174 25.6631 50.5758 25.736 50.6851C25.8089 50.7872 25.8453 50.9622 25.8453 51.2173C25.8453 51.4579 25.8089 51.6256 25.736 51.735C25.6631 51.8443 25.5683 51.9027 25.4516 51.9318C25.335 51.9537 25.211 51.9683 25.0798 51.9683H21.3105L21.3397 51.961Z" fill="#E5087E"/>
<path d="M31.4364 52.0408C31.1448 52.0408 30.8386 51.9971 30.5178 51.9096C30.197 51.8221 29.8762 51.6836 29.5627 51.494C29.2492 51.3045 28.9649 51.0712 28.717 50.7868C28.4691 50.5025 28.265 50.1671 28.1191 49.7734C27.9733 49.3797 27.8931 48.9423 27.8931 48.4538C27.8931 47.9653 27.966 47.5425 28.1191 47.1707C28.265 46.7988 28.4691 46.4708 28.717 46.1937C28.9649 45.9167 29.2492 45.6834 29.5627 45.5011C29.8762 45.3188 30.1897 45.1876 30.5178 45.0928C30.8459 45.0053 31.1594 44.9616 31.4656 44.9616C31.8009 44.9616 32.0999 44.998 32.3477 45.0782C32.5956 45.1584 32.7998 45.2386 32.9602 45.3261C33.1133 45.4136 33.2153 45.4646 33.2664 45.4938C33.383 45.574 33.4997 45.6615 33.6017 45.749C33.7038 45.8438 33.7621 45.9604 33.7694 46.1062C33.7694 46.1864 33.7548 46.2666 33.7257 46.3468C33.6965 46.427 33.6528 46.5072 33.5944 46.5874C33.4851 46.7405 33.383 46.8499 33.2882 46.9228C33.1862 46.9884 33.0914 47.0248 33.0039 47.0248C32.9237 47.0248 32.8508 47.003 32.7779 46.9665C32.705 46.9301 32.6175 46.8717 32.5227 46.8061C32.479 46.7697 32.4134 46.7332 32.3259 46.6822C32.2384 46.6311 32.1217 46.5874 31.9759 46.5509C31.8301 46.5145 31.6405 46.4926 31.4291 46.4926C31.1958 46.4926 30.9625 46.5291 30.7292 46.6093C30.4959 46.6895 30.2772 46.8134 30.0803 46.9738C29.8835 47.1415 29.7231 47.3456 29.6064 47.6008C29.4898 47.856 29.4315 48.1549 29.4315 48.4976C29.4315 48.8402 29.4898 49.1391 29.6137 49.387C29.7377 49.6349 29.8981 49.8463 30.0949 50.014C30.2918 50.1817 30.5105 50.3057 30.7438 50.3859C30.9771 50.466 31.2104 50.5098 31.4364 50.5098C31.6333 50.5098 31.8009 50.4879 31.9395 50.4515C32.078 50.415 32.2019 50.364 32.304 50.3057C32.4061 50.2473 32.5008 50.1963 32.5738 50.1525C32.6467 50.1088 32.7196 50.0651 32.7998 50.0213C32.8727 49.9849 32.9529 49.963 33.0331 49.963C33.1278 49.963 33.2226 49.9994 33.3174 50.0724C33.4122 50.1453 33.5142 50.2619 33.609 50.4223C33.6674 50.5098 33.7111 50.59 33.7403 50.6775C33.7694 50.7577 33.784 50.8379 33.784 50.9181C33.784 51.0566 33.733 51.1732 33.6236 51.2607C33.5142 51.3482 33.3976 51.4284 33.2809 51.5013C33.2372 51.5305 33.1351 51.5888 32.982 51.6763C32.8289 51.7638 32.6321 51.8513 32.3769 51.9242C32.129 51.9971 31.8228 52.0408 31.4729 52.0408H31.4364Z" fill="#E5087E"/>
<path d="M36.7186 51.9604C36.4707 51.9604 36.303 51.924 36.201 51.8511C36.0989 51.7782 36.0333 51.6834 36.0041 51.5667C35.9749 51.4501 35.9677 51.3261 35.9677 51.2022V45.7852C35.9677 45.6613 35.9822 45.5373 36.0041 45.4207C36.026 45.304 36.0989 45.2092 36.201 45.1363C36.303 45.0634 36.4853 45.027 36.7259 45.027H38.7746C39.0516 45.027 39.3359 45.078 39.6203 45.1728C39.9046 45.2749 40.1671 45.4207 40.4004 45.6248C40.641 45.829 40.8305 46.0841 40.9764 46.3903C41.1222 46.6965 41.1951 47.0538 41.1951 47.4694C41.1951 47.7464 41.1513 48.0162 41.0711 48.2786C40.9909 48.5411 40.867 48.7744 40.6993 48.9931C40.5316 49.2045 40.3275 49.3941 40.0869 49.5472C39.839 49.7003 39.562 49.817 39.2412 49.8899H37.4768V51.1949C37.4768 51.3188 37.4622 51.4428 37.4404 51.5594C37.4112 51.6761 37.3456 51.7709 37.2435 51.8438C37.1415 51.9167 36.9592 51.9531 36.7186 51.9531V51.9604ZM37.4841 48.4026H38.8621C38.9495 48.4026 39.037 48.3807 39.1391 48.3442C39.2412 48.3078 39.3287 48.2568 39.4089 48.1838C39.4891 48.1109 39.562 48.0162 39.613 47.8995C39.664 47.7829 39.6932 47.637 39.6932 47.4767C39.6932 47.2871 39.6567 47.1194 39.5765 46.9809C39.4963 46.8424 39.387 46.733 39.2485 46.6601C39.1099 46.5872 38.9495 46.5434 38.76 46.5434H37.4841V48.4099V48.4026ZM40.9034 51.7636C40.6556 51.9386 40.466 52.0115 40.3202 51.975C40.1744 51.9386 40.0213 51.8073 39.8609 51.5813L38.1184 49.0806L39.8171 48.8619L41.093 50.6991C41.2024 50.8595 41.2753 50.9908 41.3044 51.1074C41.3336 51.2168 41.319 51.3261 41.2534 51.4209C41.1878 51.523 41.0711 51.6323 40.9034 51.7563V51.7636Z" fill="#E5087E"/>
<path d="M46.4258 52.0486C45.9446 52.0486 45.5145 51.9538 45.1499 51.7642C44.7781 51.5747 44.4719 51.3268 44.2167 51.0133C43.9688 50.6998 43.7793 50.3426 43.6553 49.9489C43.5314 49.5552 43.4658 49.1542 43.4658 48.7459V45.7786C43.4658 45.6474 43.4804 45.5234 43.5022 45.4068C43.5241 45.2901 43.5897 45.1953 43.6991 45.1224C43.8085 45.0495 43.9834 45.0131 44.224 45.0131C44.4646 45.0131 44.6542 45.0495 44.7562 45.1224C44.8583 45.1953 44.9239 45.2901 44.9531 45.4068C44.975 45.5234 44.9895 45.6474 44.9895 45.7859V48.7386C44.9895 49.0302 45.0406 49.3073 45.1354 49.5843C45.2301 49.8614 45.3905 50.0801 45.6093 50.2551C45.828 50.4301 46.1123 50.5248 46.4696 50.5248C46.7758 50.5248 47.0382 50.4519 47.2497 50.2988C47.4684 50.153 47.6361 49.9416 47.7527 49.6718C47.8694 49.4021 47.9277 49.0886 47.9277 48.724V45.7203C47.9277 45.5963 47.9423 45.4797 47.9641 45.3703C47.9933 45.2682 48.0589 45.1808 48.161 45.1079C48.2704 45.0422 48.438 45.0058 48.6786 45.0058C48.9265 45.0058 49.1088 45.0422 49.2109 45.1224C49.3129 45.2026 49.3785 45.2974 49.4004 45.4068C49.4223 45.5234 49.4369 45.6474 49.4369 45.7786V48.7532C49.4369 49.1688 49.3712 49.5698 49.24 49.9634C49.1088 50.3571 48.9192 50.7071 48.6568 51.0133C48.4016 51.3268 48.0881 51.5747 47.7163 51.757C47.3444 51.9392 46.9143 52.034 46.4258 52.034V52.0486Z" fill="#E5087E"/>
<path d="M52.485 51.9604C52.2444 51.9604 52.0767 51.924 51.9674 51.8584C51.858 51.7927 51.7997 51.698 51.7705 51.574C51.7487 51.4574 51.7341 51.3334 51.7341 51.2095V45.7852C51.7341 45.6613 51.7487 45.5373 51.7705 45.4207C51.7924 45.304 51.858 45.2092 51.9674 45.1363C52.0767 45.0634 52.2517 45.027 52.4923 45.027C52.7329 45.027 52.9225 45.0634 53.0245 45.1363C53.1266 45.2092 53.1922 45.304 53.2141 45.4207C53.236 45.5373 53.2505 45.6613 53.2505 45.7925V51.2168C53.2505 51.3407 53.236 51.4647 53.2141 51.5813C53.1849 51.698 53.1266 51.7927 53.0172 51.8584C52.9152 51.9313 52.7402 51.9604 52.485 51.9604Z" fill="#E5087E"/>
<path d="M60.694 45.0197C60.8034 45.0197 60.9127 45.027 61.0075 45.0489C61.1023 45.0708 61.1825 45.1218 61.2408 45.2166C61.2991 45.3114 61.3283 45.4645 61.3283 45.6759C61.3283 45.8873 61.2991 46.0331 61.2408 46.1206C61.1825 46.2081 61.1023 46.2664 61.0002 46.2883C60.8982 46.3102 60.7961 46.3175 60.6794 46.3175H59.0828V51.2241C59.0828 51.348 59.0682 51.4647 59.0463 51.5813C59.0244 51.698 58.9588 51.7855 58.8568 51.8511C58.7547 51.924 58.5797 51.9532 58.3245 51.9532C58.0912 51.9532 57.9236 51.9167 57.8215 51.8511C57.7121 51.7855 57.6538 51.6907 57.6246 51.5741C57.6028 51.4574 57.5882 51.3407 57.5882 51.2095V46.3102H55.9842C55.8749 46.3102 55.7728 46.2956 55.678 46.2737C55.576 46.2519 55.4958 46.1935 55.4374 46.106C55.3718 46.0186 55.3427 45.8654 55.3427 45.654C55.3427 45.4426 55.3718 45.3041 55.4374 45.2093C55.503 45.1145 55.5832 45.0635 55.678 45.0416C55.7801 45.0197 55.8822 45.0124 55.9842 45.0124H60.6867L60.694 45.0197Z" fill="#E5087E"/>
<path d="M64.155 51.9682C64.0238 51.9682 63.9217 51.9537 63.8488 51.9172C63.7759 51.8807 63.7322 51.8297 63.7176 51.7641C63.703 51.6985 63.6884 51.6183 63.6884 51.5235V45.5014C63.6884 45.4066 63.6957 45.3264 63.7176 45.2608C63.7395 45.1952 63.7759 45.1369 63.8415 45.1004C63.9072 45.064 64.0019 45.0494 64.1332 45.0494C64.2644 45.0494 64.3592 45.064 64.4248 45.1004C64.4904 45.1369 64.5269 45.1879 64.5487 45.2608C64.5706 45.3337 64.5779 45.4139 64.5779 45.5014V51.1298H67.9025C67.99 51.1298 68.0629 51.1371 68.1212 51.159C68.1795 51.1808 68.2305 51.2173 68.267 51.2756C68.3034 51.3339 68.3253 51.4214 68.3253 51.5454C68.3253 51.6547 68.3107 51.7422 68.2743 51.8078C68.2378 51.8735 68.1941 51.9099 68.1358 51.9318C68.0774 51.9537 68.0045 51.9609 67.917 51.9609H64.1623L64.155 51.9682Z" fill="#E5087E"/>
<path d="M73.7437 52.0407C73.2771 52.0407 72.8323 51.9532 72.4168 51.771C72.0012 51.5887 71.6367 51.3408 71.3232 51.02C71.0024 50.6992 70.7618 50.3274 70.5868 49.9118C70.4118 49.4963 70.3243 49.0442 70.3243 48.5631C70.3243 48.0819 70.4118 47.6153 70.5795 47.1778C70.7472 46.7404 70.9878 46.3686 71.3013 46.0405C71.6075 45.7197 71.9647 45.4645 72.3657 45.275C72.7667 45.0927 73.1969 44.9979 73.6562 44.9979C74.1155 44.9979 74.5748 45.0854 74.9904 45.2677C75.406 45.4499 75.7632 45.6978 76.0767 46.0186C76.3902 46.3394 76.6308 46.7185 76.8058 47.1414C76.9807 47.5642 77.0682 48.0308 77.0682 48.5266C77.0682 49.0224 76.9807 49.4525 76.8058 49.8754C76.6308 50.2982 76.3902 50.6701 76.084 50.9981C75.7778 51.3189 75.4278 51.5741 75.0268 51.7564C74.6258 51.9386 74.1957 52.0261 73.7437 52.0261V52.0407ZM73.6853 51.1367C74.028 51.1367 74.3488 51.0711 74.655 50.9398C74.9612 50.8086 75.2164 50.619 75.4424 50.3784C75.6684 50.1378 75.8434 49.8608 75.9746 49.54C76.1059 49.2265 76.1715 48.8838 76.1715 48.5193C76.1715 48.1548 76.1059 47.8267 75.9746 47.5132C75.8434 47.1997 75.6684 46.9226 75.4424 46.6821C75.2164 46.4415 74.9539 46.2519 74.655 46.1134C74.3561 45.9749 74.0426 45.9092 73.6999 45.9092C73.3573 45.9092 73.0438 45.9749 72.7448 46.1134C72.4459 46.2519 72.1835 46.4342 71.9575 46.6748C71.7314 46.9154 71.5492 47.1924 71.4252 47.5059C71.294 47.8267 71.2284 48.1621 71.2284 48.5266C71.2284 48.8911 71.294 49.2192 71.4252 49.54C71.5565 49.8608 71.7387 50.1378 71.9575 50.3711C72.1835 50.6117 72.4386 50.794 72.7376 50.9325C73.0365 51.0711 73.35 51.1367 73.6853 51.1367Z" fill="#E5087E"/>
<path d="M82.7581 51.9903C82.4008 51.9903 82.0509 51.9392 81.7155 51.8372C81.3801 51.7351 81.0593 51.582 80.7677 51.3851C80.4761 51.181 80.2209 50.9404 80.0022 50.6488C79.7835 50.3571 79.6085 50.0291 79.4845 49.6572C79.3606 49.2854 79.295 48.8844 79.295 48.447C79.295 48.0095 79.3606 47.6231 79.4845 47.2659C79.6085 46.9087 79.7835 46.5879 80.0022 46.3108C80.2209 46.0338 80.4761 45.8005 80.7677 45.6036C81.0593 45.4068 81.3801 45.261 81.7155 45.1589C82.0509 45.0568 82.4008 45.0058 82.7653 45.0058C83.0934 45.0058 83.3778 45.0422 83.6184 45.1079C83.859 45.1735 84.0485 45.2464 84.2016 45.3266C84.3474 45.4068 84.4568 45.4651 84.5151 45.4943C84.6099 45.5526 84.6974 45.6182 84.7849 45.6911C84.8724 45.764 84.9161 45.8442 84.9234 45.939C84.938 46.0119 84.9307 46.0702 84.9088 46.1213C84.8869 46.1723 84.8578 46.216 84.8213 46.2671C84.7703 46.3473 84.712 46.4056 84.6536 46.442C84.5953 46.4785 84.537 46.5004 84.4787 46.5004C84.413 46.5004 84.3547 46.4785 84.2964 46.442C84.2381 46.4056 84.1724 46.3546 84.0923 46.3035C84.0558 46.2744 83.9756 46.2306 83.8517 46.1723C83.735 46.114 83.5819 46.0556 83.3923 46.0046C83.2028 45.9536 82.9841 45.9244 82.7216 45.9244C82.3862 45.9244 82.0654 45.9827 81.7519 46.1067C81.4457 46.2233 81.176 46.3983 80.9427 46.6243C80.7094 46.8503 80.5271 47.1201 80.3959 47.4409C80.2646 47.7617 80.199 48.1189 80.199 48.5199C80.199 48.9209 80.2646 49.2781 80.3959 49.5989C80.5271 49.9197 80.7094 50.1895 80.9427 50.4155C81.176 50.6415 81.4457 50.8092 81.7519 50.9331C82.0581 51.0571 82.3789 51.1154 82.7143 51.1154C82.9622 51.1154 83.1809 51.0862 83.3705 51.0352C83.5527 50.9841 83.7131 50.9258 83.8371 50.8602C83.961 50.7946 84.0485 50.7508 84.0923 50.7144C84.1652 50.6779 84.2308 50.6342 84.2891 50.5977C84.3474 50.5613 84.4058 50.5394 84.4714 50.5394C84.537 50.5394 84.5953 50.5613 84.6536 50.5977C84.712 50.6342 84.763 50.6925 84.814 50.7727C84.8432 50.8165 84.8724 50.8675 84.8942 50.9258C84.9161 50.9841 84.9234 51.0425 84.9161 51.1081C84.9161 51.2102 84.8651 51.2904 84.7703 51.3633C84.6828 51.4362 84.588 51.4945 84.5005 51.5601C84.4495 51.5893 84.3474 51.6403 84.2016 51.7205C84.0558 51.8007 83.859 51.8736 83.6184 51.9392C83.3778 52.0048 83.0934 52.034 82.7581 52.034V51.9903Z" fill="#E5087E"/>
<path d="M93.6695 51.334C93.7205 51.4361 93.7497 51.5163 93.757 51.5892C93.757 51.6621 93.7424 51.7204 93.6914 51.7787C93.6403 51.837 93.5747 51.8881 93.4726 51.9318C93.3122 52.012 93.1883 52.0266 93.1008 51.9829C93.0133 51.9391 92.9331 51.8443 92.8602 51.6912L90.3814 46.4128L87.9244 51.6766C87.8515 51.8298 87.7713 51.9245 87.6838 51.961C87.5963 51.9974 87.4651 51.9829 87.3047 51.91C87.2026 51.8735 87.1297 51.8225 87.086 51.7641C87.0422 51.7058 87.0204 51.6329 87.035 51.5454C87.0495 51.4579 87.0787 51.3632 87.137 51.2465L89.9804 45.3046C90.0168 45.2244 90.0752 45.1588 90.1554 45.1077C90.2283 45.0567 90.3158 45.0348 90.396 45.0348C90.4543 45.0348 90.5126 45.0421 90.5637 45.064C90.6147 45.0859 90.6657 45.115 90.7022 45.1515C90.7386 45.1879 90.7751 45.2463 90.8042 45.3119L93.6768 51.3194L93.6695 51.334ZM88.515 49.9925L88.8503 49.227H91.927L92.2551 49.9925H88.515Z" fill="#E5087E"/>
<path d="M96.4774 51.9682C96.3462 51.9682 96.2441 51.9537 96.1712 51.9172C96.0983 51.8807 96.0545 51.8297 96.04 51.7641C96.0254 51.6985 96.0108 51.6183 96.0108 51.5235V45.5014C96.0108 45.4066 96.0181 45.3264 96.04 45.2608C96.0618 45.1952 96.0983 45.1369 96.1639 45.1004C96.2295 45.064 96.3243 45.0494 96.4555 45.0494C96.5868 45.0494 96.6815 45.064 96.7472 45.1004C96.8128 45.1369 96.8492 45.1879 96.8711 45.2608C96.893 45.3337 96.9003 45.4139 96.9003 45.5014V51.1298H100.225C100.312 51.1298 100.385 51.1371 100.444 51.159C100.502 51.1808 100.553 51.2173 100.589 51.2756C100.626 51.3339 100.648 51.4214 100.648 51.5454C100.648 51.6547 100.633 51.7422 100.597 51.8078C100.56 51.8735 100.516 51.9099 100.458 51.9318C100.4 51.9537 100.327 51.9609 100.239 51.9609H96.4847L96.4774 51.9682Z" fill="#E5087E"/>
</svg>
