<svg width="32" height="32" viewBox="0 0 32 32" fill="none" xmlns="http://www.w3.org/2000/svg">
<path d="M0 8C0 3.58172 3.58172 0 8 0H24C28.4183 0 32 3.58172 32 8V24C32 28.4183 28.4183 32 24 32H8C3.58172 32 0 28.4183 0 24V8Z" fill="#E60076"/>
<path fill-rule="evenodd" clip-rule="evenodd" d="M16.6062 8.38218C16.2311 8.16883 15.7689 8.16883 15.3938 8.38218L9.60622 11.6739C9.23109 11.8872 9 12.2815 9 12.7082V19.2916C9 19.7184 9.23109 20.1127 9.60622 20.326L15.3938 23.6177C15.7689 23.8311 16.2311 23.8311 16.6062 23.6177L22.3938 20.326C22.7689 20.1127 23 19.7184 23 19.2916V12.7082C23 12.2815 22.7689 11.8872 22.3938 11.6739L16.6062 8.38218ZM18.9906 16C18.9906 17.6271 17.6517 18.9461 16 18.9461C14.3482 18.9461 13.0093 17.6271 13.0093 16C13.0093 14.3729 14.3482 13.0538 16 13.0538C17.6517 13.0538 18.9906 14.3729 18.9906 16Z" fill="white"/>
</svg>
