<svg width="377" height="37" viewBox="0 0 377 37" fill="none" xmlns="http://www.w3.org/2000/svg">
<path d="M15.2398 29.4082C16.4115 27.3828 17.0118 24.9596 17.6266 22.6955C17.7279 22.3411 17.8436 21.9794 17.9521 21.625C17.9738 21.5092 18.0172 21.2778 18.0461 21.1548C18.2125 19.9685 18.0461 18.8907 17.482 17.7984C17.1709 17.2487 16.7731 16.7424 16.2668 16.3517C16.1656 16.2794 15.9341 16.142 15.8329 16.0769C15.7388 16.0335 15.4495 15.9033 15.3482 15.8526C12.6938 15.1871 9.84399 15.3174 7.13888 15.6284C6.75553 15.679 6.41559 15.7875 6.06841 15.9394C5.87312 16.0045 5.63443 16.1781 5.46084 16.2722C5.37405 16.3373 5.14982 16.5253 5.07026 16.5904C4.99793 16.67 4.80988 16.8726 4.73032 16.9449C3.71771 18.2035 3.38499 20.0119 4.33974 21.3935C5.22939 22.8185 6.10457 24.2869 6.85679 25.777C7.31247 26.6595 7.87664 27.8819 8.28891 28.7934C8.5493 29.4227 8.99051 30.0014 9.51851 30.4498C11.3846 31.9544 14.0319 31.4987 15.2253 29.3865L15.2398 29.4082ZM15.6014 29.6035C14.2488 32.1497 11.3918 33.77 8.45527 33.1913C6.88573 32.8658 5.50424 31.8676 4.64352 30.5222C4.46993 30.2618 4.09382 29.6614 3.92746 29.3937C2.99442 27.8964 2.14816 26.3557 1.3887 24.7715C1.21511 24.4099 0.889633 23.7371 0.730509 23.3827C-0.00724887 21.842 -0.231469 20.0191 0.267603 18.3699C0.78114 16.5036 2.22773 14.9484 4.02149 14.2757L4.54226 14.0949C4.72308 14.0515 5.16429 13.9647 5.33788 13.9285C5.91652 13.8562 6.58194 13.8562 7.15334 13.9213C8.90371 14.1383 10.6685 14.2323 12.4261 14.1238C13.5111 14.0732 14.5382 13.849 15.6448 13.7911C18.104 13.7332 20.5776 15.3174 21.4022 17.7406C22.0604 19.5056 21.7566 21.5743 20.65 23.0861C18.9285 25.1838 16.8382 27.1658 15.6086 29.6108L15.6014 29.6035Z" fill="#70648D"/>
<path d="M10.455 12.5307C12.8957 12.5307 14.8743 10.552 14.8743 8.11108C14.8743 5.67016 12.8957 3.69141 10.455 3.69141C8.01424 3.69141 6.03564 5.67016 6.03564 8.11108C6.03564 10.552 8.01424 12.5307 10.455 12.5307Z" fill="#70648D"/>
<path d="M43.9312 29.4082C45.1029 27.3828 45.7032 24.9596 46.318 22.6955C46.4193 22.3411 46.535 21.9794 46.6435 21.625C46.6652 21.5092 46.7086 21.2778 46.7375 21.1548C46.9039 19.9685 46.7375 18.8907 46.1734 17.7984C45.8623 17.2487 45.4645 16.7424 44.9582 16.3517C44.857 16.2794 44.6255 16.142 44.5243 16.0769C44.4302 16.0335 44.1409 15.9033 44.0396 15.8526C41.3852 15.1871 38.5354 15.3174 35.8303 15.6284C35.4469 15.679 35.107 15.7875 34.7598 15.9394C34.5645 16.0045 34.3258 16.1781 34.1522 16.2722C34.0655 16.3373 33.8412 16.5253 33.7617 16.5904C33.6893 16.67 33.5013 16.8726 33.4217 16.9449C32.4091 18.2035 32.0764 20.0119 33.0311 21.3935C33.9208 22.8185 34.796 24.2869 35.5482 25.777C36.0039 26.6595 36.568 27.8819 36.9803 28.7934C37.2407 29.4227 37.6819 30.0014 38.2099 30.4498C40.076 31.9544 42.7233 31.4987 43.9167 29.3865L43.9312 29.4082ZM44.2928 29.6035C42.9402 32.1497 40.0832 33.77 37.1467 33.1913C35.5771 32.8658 34.1956 31.8676 33.3349 30.5222C33.1613 30.2618 32.7852 29.6614 32.6189 29.3937C31.6858 27.8964 30.8396 26.3557 30.0801 24.7715C29.9065 24.4099 29.581 23.7371 29.4219 23.3827C28.6842 21.842 28.4599 20.0191 28.959 18.3699C29.4725 16.5036 30.9191 14.9484 32.7129 14.2757L33.2337 14.0949C33.4145 14.0515 33.8557 13.9647 34.0293 13.9285C34.6079 13.8562 35.2734 13.8562 35.8448 13.9213C37.5951 14.1383 39.3599 14.2323 41.1175 14.1238C42.2025 14.0732 43.2296 13.849 44.3362 13.7911C46.7954 13.7332 49.2691 15.3174 50.0936 17.7406C50.7518 19.5056 50.448 21.5743 49.3414 23.0861C47.6199 25.1838 45.5296 27.1658 44.3 29.6108L44.2928 29.6035Z" fill="#70648D"/>
<path d="M39.1517 12.5307C41.5925 12.5307 43.5711 10.552 43.5711 8.11108C43.5711 5.67016 41.5925 3.69141 39.1517 3.69141C36.711 3.69141 34.7324 5.67016 34.7324 8.11108C34.7324 10.552 36.711 12.5307 39.1517 12.5307Z" fill="#70648D"/>
<path d="M29.7183 29.4082C30.89 27.3828 31.4903 24.9596 32.1051 22.6955C32.2064 22.3411 32.3221 21.9794 32.4306 21.625C32.4523 21.5092 32.4957 21.2778 32.5246 21.1548C32.691 19.9685 32.5246 18.8907 31.9605 17.7984C31.6495 17.2487 31.2516 16.7424 30.7453 16.3517C30.6441 16.2794 30.4126 16.142 30.3114 16.0769C30.2173 16.0335 29.928 15.9033 29.8268 15.8526C27.1723 15.1871 24.3225 15.3174 21.6174 15.6284C21.234 15.679 20.8941 15.7875 20.5469 15.9394C20.3516 16.0045 20.1129 16.1781 19.9394 16.2722C19.8526 16.3373 19.6283 16.5253 19.5488 16.5904C19.4764 16.67 19.2884 16.8726 19.2088 16.9449C18.1962 18.2035 17.8635 20.0119 18.8183 21.3935C19.7079 22.8185 20.5831 24.2869 21.3353 25.777C21.791 26.6595 22.3551 27.8819 22.7674 28.7934C23.0278 29.4227 23.469 30.0014 23.997 30.4498C25.8631 31.9544 28.5104 31.4987 29.7038 29.3865L29.7183 29.4082ZM30.0799 29.6035C28.7274 32.1497 25.8704 33.77 22.9338 33.1913C21.3642 32.8658 19.9828 31.8676 19.122 30.5222C18.9484 30.2618 18.5723 29.6614 18.406 29.3937C17.4729 27.8964 16.6267 26.3557 15.8672 24.7715C15.6936 24.4099 15.3681 23.7371 15.209 23.3827C14.4713 21.842 14.247 20.0191 14.7461 18.3699C15.2597 16.5036 16.7062 14.9484 18.5 14.2757L19.0208 14.0949C19.2016 14.0515 19.6428 13.9647 19.8164 13.9285C20.395 13.8562 21.0605 13.8562 21.6319 13.9213C23.3822 14.1383 25.1471 14.2323 26.9047 14.1238C27.9896 14.0732 29.0167 13.849 30.1233 13.7911C32.5825 13.7332 35.0562 15.3174 35.8807 17.7406C36.5389 19.5056 36.2351 21.5743 35.1285 23.0861C33.4071 25.1838 31.3167 27.1658 30.0871 29.6108L30.0799 29.6035Z" fill="#E5087E"/>
<path d="M24.9447 12.5307C27.3854 12.5307 29.364 10.552 29.364 8.11108C29.364 5.67016 27.3854 3.69141 24.9447 3.69141C22.504 3.69141 20.5254 5.67016 20.5254 8.11108C20.5254 10.552 22.504 12.5307 24.9447 12.5307Z" fill="#E5087E"/>
<path d="M61.77 19V7.05364H67.0029C67.8778 7.05364 68.635 7.19947 69.2743 7.49112C69.9249 7.78276 70.4241 8.1978 70.7718 8.73623C71.1196 9.26344 71.2934 9.8916 71.2934 10.6207C71.2934 11.1704 71.1757 11.6583 70.9401 12.0846C70.7158 12.5108 70.4017 12.8586 69.9979 13.1278C69.6053 13.397 69.151 13.5652 68.635 13.6326L68.5845 13.4811C69.3809 13.4811 69.9866 13.655 70.4017 14.0027C70.8167 14.3392 71.0523 14.8608 71.1084 15.5675L71.4112 19H68.8032L68.5845 15.9713C68.5508 15.5114 68.405 15.1749 68.147 14.9618C67.9002 14.7375 67.474 14.6253 66.8682 14.6253H64.3275V19H61.77ZM64.3275 12.4884H66.7168C67.3338 12.4884 67.8105 12.3482 68.147 12.0677C68.4947 11.7761 68.6686 11.3667 68.6686 10.8395C68.6686 10.301 68.4947 9.89721 68.147 9.628C67.7993 9.34757 67.2945 9.20735 66.6327 9.20735H64.3275V12.4884ZM77.1268 19.2019C76.2069 19.2019 75.4049 19.0112 74.7207 18.6298C74.0476 18.2372 73.5204 17.6876 73.139 16.9809C72.7689 16.2742 72.5838 15.4441 72.5838 14.4907C72.5838 13.5372 72.7689 12.7127 73.139 12.0173C73.5204 11.3106 74.0476 10.7609 74.7207 10.3683C75.3937 9.97573 76.1901 9.77943 77.1099 9.77943C78.0073 9.77943 78.7869 9.97573 79.4487 10.3683C80.1105 10.7609 80.6209 11.3218 80.9799 12.0509C81.3501 12.78 81.5351 13.6494 81.5351 14.6589V15.1637H75.1918C75.2254 15.8816 75.4161 16.4144 75.7639 16.7622C76.1228 17.1099 76.5939 17.2838 77.1772 17.2838C77.6035 17.2838 77.9568 17.194 78.2373 17.0145C78.5289 16.8351 78.7364 16.5603 78.8598 16.1901L81.4005 16.3415C81.165 17.2389 80.6658 17.94 79.903 18.4447C79.1403 18.9495 78.2148 19.2019 77.1268 19.2019ZM75.1918 13.6157H78.944C78.9103 12.9539 78.7252 12.4604 78.3887 12.1351C78.0634 11.8098 77.6371 11.6471 77.1099 11.6471C76.5827 11.6471 76.1453 11.821 75.7975 12.1687C75.461 12.5052 75.2591 12.9876 75.1918 13.6157ZM87.1836 19.2019C86.2638 19.2019 85.4618 19.0112 84.7775 18.6298C84.0933 18.2372 83.5605 17.6876 83.1791 16.9809C82.7977 16.2742 82.607 15.4441 82.607 14.4907C82.607 13.5372 82.7977 12.7127 83.1791 12.0173C83.5605 11.3106 84.0933 10.7609 84.7775 10.3683C85.4618 9.97573 86.2638 9.77943 87.1836 9.77943C87.9801 9.77943 88.6923 9.91965 89.3205 10.2001C89.9599 10.4805 90.4759 10.8843 90.8685 11.4115C91.2611 11.9387 91.5023 12.5725 91.592 13.3129L88.984 13.4306C88.9055 12.8698 88.7036 12.4491 88.3783 12.1687C88.0642 11.8771 87.666 11.7312 87.1836 11.7312C86.5555 11.7312 86.0675 11.9724 85.7198 12.4547C85.372 12.9371 85.1982 13.6157 85.1982 14.4907C85.1982 15.3656 85.372 16.0499 85.7198 16.5434C86.0675 17.0258 86.5555 17.2669 87.1836 17.2669C87.666 17.2669 88.0698 17.1211 88.3951 16.8295C88.7204 16.5266 88.9167 16.0723 88.984 15.4666L91.592 15.5675C91.5135 16.3079 91.2779 16.9529 90.8853 17.5025C90.5039 18.0409 89.9935 18.4616 89.3542 18.7644C88.726 19.0561 88.0025 19.2019 87.1836 19.2019ZM92.9867 19V9.98134H95.376L95.4601 12.6062L95.275 12.5557C95.4208 11.6471 95.6788 10.9909 96.049 10.5871C96.4192 10.1833 96.9296 9.98134 97.5802 9.98134H98.4046V12.0677H97.5802C97.109 12.0677 96.722 12.1294 96.4192 12.2528C96.1163 12.3762 95.8864 12.5725 95.7293 12.8417C95.5835 13.111 95.5106 13.4755 95.5106 13.9354V19H92.9867ZM102.866 19.2019C101.935 19.2019 101.206 18.9047 100.678 18.3101C100.162 17.7044 99.9044 16.8631 99.9044 15.7863V9.98134H102.428V15.1974C102.428 15.8928 102.535 16.4032 102.748 16.7285C102.961 17.0426 103.298 17.1996 103.757 17.1996C104.273 17.1996 104.672 17.0258 104.952 16.678C105.244 16.3191 105.39 15.7863 105.39 15.0796V9.98134H107.913V19H105.608L105.541 16.4088L105.861 16.4761C105.726 17.3735 105.406 18.0521 104.902 18.5121C104.397 18.972 103.718 19.2019 102.866 19.2019ZM109.993 19V9.98134H112.517V19H109.993ZM109.943 8.87084V6.85173H112.551V8.87084H109.943ZM117.968 19C117.037 19 116.353 18.7869 115.915 18.3606C115.478 17.9231 115.259 17.2333 115.259 16.291V7.86128H117.783V15.9882C117.783 16.4256 117.873 16.7229 118.052 16.8799C118.243 17.037 118.523 17.1155 118.893 17.1155H120.155V19H117.968ZM113.812 11.8658V9.98134H120.155V11.8658H113.812Z" fill="white"/>
<path d="M125.903 20V5.6765H127.638V19.193L126.77 18.3054H134.8V20H125.903ZM140.751 20.2421C139.769 20.2421 138.909 20.0134 138.169 19.5562C137.429 19.0989 136.858 18.4533 136.454 17.6195C136.051 16.7722 135.849 15.7836 135.849 14.6539C135.849 13.5107 136.051 12.5222 136.454 11.6883C136.858 10.8545 137.429 10.2089 138.169 9.75164C138.909 9.29436 139.769 9.06572 140.751 9.06572C141.733 9.06572 142.587 9.29436 143.313 9.75164C144.053 10.2089 144.625 10.8545 145.028 11.6883C145.432 12.5222 145.633 13.5107 145.633 14.6539C145.633 15.7836 145.432 16.7722 145.028 17.6195C144.625 18.4533 144.053 19.0989 143.313 19.5562C142.587 20.0134 141.733 20.2421 140.751 20.2421ZM140.751 18.6282C141.733 18.6282 142.493 18.2785 143.031 17.5791C143.582 16.8663 143.858 15.8912 143.858 14.6539C143.858 13.4166 143.582 12.4482 143.031 11.7489C142.493 11.036 141.733 10.6796 140.751 10.6796C139.769 10.6796 139.003 11.036 138.451 11.7489C137.9 12.4482 137.624 13.4166 137.624 14.6539C137.624 15.8912 137.9 16.8663 138.451 17.5791C139.003 18.2785 139.769 18.6282 140.751 18.6282ZM152.119 20.2421C151.124 20.2421 150.256 20.0134 149.516 19.5562C148.79 19.0989 148.225 18.4533 147.822 17.6195C147.418 16.7722 147.216 15.7836 147.216 14.6539C147.216 13.5242 147.418 12.5424 147.822 11.7085C148.225 10.8747 148.79 10.2291 149.516 9.77181C150.256 9.30109 151.124 9.06572 152.119 9.06572C152.939 9.06572 153.665 9.21367 154.298 9.50955C154.943 9.79199 155.468 10.2089 155.871 10.7603C156.275 11.3118 156.537 11.9842 156.658 12.7777L154.883 12.8988C154.762 12.186 154.452 11.6413 153.955 11.2647C153.457 10.8747 152.845 10.6796 152.119 10.6796C151.137 10.6796 150.37 11.036 149.819 11.7489C149.268 12.4482 148.992 13.4166 148.992 14.6539C148.992 15.8912 149.268 16.8663 149.819 17.5791C150.37 18.2785 151.137 18.6282 152.119 18.6282C152.845 18.6282 153.457 18.4264 153.955 18.023C154.452 17.6195 154.762 17.0143 154.883 16.2073L156.658 16.3283C156.537 17.1219 156.275 17.8145 155.871 18.4063C155.468 18.9846 154.943 19.4351 154.298 19.7579C153.665 20.0807 152.939 20.2421 152.119 20.2421ZM161.919 20.2421C160.817 20.2421 159.936 19.9866 159.277 19.4755C158.631 18.9644 158.308 18.2516 158.308 17.337C158.308 16.4225 158.577 15.703 159.115 15.1784C159.653 14.6539 160.507 14.284 161.677 14.0689L165.47 13.3628C165.47 12.4617 165.255 11.7892 164.824 11.3454C164.407 10.9016 163.775 10.6796 162.928 10.6796C162.188 10.6796 161.603 10.8478 161.173 11.184C160.743 11.5068 160.447 11.9775 160.285 12.5962L158.49 12.4549C158.692 11.4462 159.176 10.6326 159.942 10.0139C160.722 9.38178 161.718 9.06572 162.928 9.06572C164.3 9.06572 165.349 9.45575 166.075 10.2358C166.801 11.0024 167.165 12.0649 167.165 13.4233V17.8414C167.165 18.0835 167.205 18.2583 167.286 18.3659C167.38 18.4601 167.528 18.5071 167.729 18.5071H168.153V20C168.099 20.0134 168.012 20.0202 167.891 20.0202C167.77 20.0336 167.642 20.0403 167.508 20.0403C167.023 20.0403 166.627 19.9664 166.317 19.8184C166.021 19.657 165.806 19.415 165.672 19.0922C165.537 18.7559 165.47 18.3188 165.47 17.7809L165.672 17.8212C165.578 18.2785 165.349 18.6954 164.986 19.072C164.623 19.4351 164.172 19.7243 163.634 19.9395C163.096 20.1412 162.525 20.2421 161.919 20.2421ZM162.081 18.7492C162.794 18.7492 163.399 18.6147 163.896 18.3457C164.407 18.0633 164.798 17.6867 165.066 17.216C165.335 16.7318 165.47 16.1938 165.47 15.6021V14.8355L162 15.481C161.274 15.6155 160.769 15.824 160.487 16.1064C160.218 16.3754 160.084 16.7318 160.084 17.1756C160.084 17.6733 160.258 18.0633 160.608 18.3457C160.971 18.6147 161.462 18.7492 162.081 18.7492ZM172.047 20C171.428 20 170.924 19.8386 170.534 19.5158C170.144 19.193 169.949 18.682 169.949 17.9826V5.6765H171.644V17.8414C171.644 18.0566 171.697 18.2247 171.805 18.3457C171.926 18.4533 172.094 18.5071 172.309 18.5071H173.237V20H172.047Z" fill="white"/>
<path d="M61.3073 34V28.0268H63.2843C63.9798 28.0268 64.5014 28.1586 64.8491 28.4222C65.1969 28.6802 65.3707 29.084 65.3707 29.6337C65.3707 29.8917 65.3119 30.1216 65.1941 30.3236C65.0819 30.5255 64.9193 30.6825 64.7061 30.7947C64.493 30.9068 64.2434 30.9629 63.9574 30.9629L63.949 30.9125C64.4706 30.9125 64.88 31.0471 65.1773 31.3163C65.4745 31.5855 65.6231 31.9388 65.6231 32.3763C65.6231 32.9147 65.4521 33.3214 65.1099 33.5962C64.7678 33.8654 64.2715 34 63.6209 34H61.3073ZM61.8794 33.4447H63.6209C64.0808 33.4447 64.4285 33.3522 64.6641 33.1671C64.9052 32.982 65.0258 32.71 65.0258 32.3511C65.0258 32.0089 64.9024 31.7425 64.6556 31.5518C64.4089 31.3555 64.0639 31.2574 63.6209 31.2574H61.8794V33.4447ZM61.8794 30.7021H63.2843C63.7611 30.7021 64.1284 30.6124 64.3864 30.4329C64.6444 30.2478 64.7734 29.987 64.7734 29.6505C64.7734 29.2916 64.65 29.0252 64.4033 28.8513C64.1565 28.6718 63.7835 28.5821 63.2843 28.5821H61.8794V30.7021ZM66.7357 34V29.5411H67.2153L67.2489 30.761L67.1732 30.719C67.2461 30.3207 67.3779 30.0263 67.5686 29.8356C67.7593 29.6393 68.0229 29.5411 68.3594 29.5411H68.7464V30.0796H68.3426C68.1183 30.0796 67.9276 30.1301 67.7705 30.231C67.6135 30.3264 67.4929 30.4638 67.4088 30.6432C67.3303 30.8227 67.291 31.0358 67.291 31.2826V34H66.7357ZM69.5702 34V29.5411H70.1254V34H69.5702ZM69.5534 28.8008V28.0521H70.1423V28.8008H69.5534ZM71.5748 34V29.5411H72.0796L72.1048 30.7105L72.0375 30.6601C72.0824 30.3852 72.1749 30.1581 72.3152 29.9786C72.461 29.7991 72.6377 29.6645 72.8452 29.5748C73.0527 29.4851 73.277 29.4402 73.5182 29.4402C73.8603 29.4402 74.1408 29.5159 74.3595 29.6673C74.5838 29.8188 74.7493 30.0235 74.8559 30.2815C74.9624 30.5339 75.0157 30.8171 75.0157 31.1312V34H74.4605V31.3331C74.4605 31.0415 74.424 30.7919 74.3511 30.5844C74.2838 30.3768 74.1716 30.217 74.0146 30.1048C73.8575 29.9926 73.6528 29.9366 73.4004 29.9366C73.019 29.9366 72.7106 30.0599 72.475 30.3067C72.2451 30.5535 72.1301 30.8956 72.1301 31.3331V34H71.5748ZM77.9478 35.3629C77.6337 35.3629 77.3477 35.3068 77.0897 35.1946C76.8373 35.0881 76.6298 34.9366 76.4671 34.7403C76.3045 34.544 76.2007 34.3169 76.1559 34.0589L76.7363 34.0252C76.7868 34.2664 76.9102 34.4599 77.1065 34.6057C77.3028 34.7572 77.5833 34.8329 77.9478 34.8329C78.3797 34.8329 78.7106 34.7319 78.9405 34.53C79.1761 34.3281 79.2939 34.0337 79.2939 33.6467V32.8811C79.1817 33.1503 79.0022 33.3662 78.7555 33.5289C78.5087 33.6915 78.2254 33.7729 77.9057 33.7729C77.53 33.7729 77.1963 33.6831 76.9046 33.5036C76.6186 33.3186 76.3942 33.0634 76.2316 32.7381C76.0745 32.4128 75.996 32.0342 75.996 31.6023C75.996 31.1705 76.0745 30.7947 76.2316 30.475C76.3942 30.1497 76.6158 29.8973 76.8962 29.7178C77.1822 29.5327 77.5103 29.4402 77.8805 29.4402C78.2226 29.4402 78.5199 29.5271 78.7723 29.701C79.0303 29.8693 79.2126 30.0936 79.3191 30.374V29.5411H79.8491V33.6467C79.8491 34 79.7734 34.3057 79.622 34.5637C79.4705 34.8217 79.2518 35.018 78.9658 35.1526C78.6853 35.2928 78.346 35.3629 77.9478 35.3629ZM77.931 33.2428C78.3404 33.2428 78.6685 33.097 78.9153 32.8054C79.1677 32.5081 79.2939 32.1071 79.2939 31.6023C79.2995 31.277 79.2462 30.9938 79.134 30.7526C79.0219 30.5058 78.862 30.3151 78.6545 30.1805C78.447 30.0403 78.2058 29.9702 77.931 29.9702C77.5103 29.9702 77.1794 30.1188 76.9383 30.4161C76.6971 30.7077 76.5765 31.1031 76.5765 31.6023C76.5765 32.1071 76.6971 32.5081 76.9383 32.8054C77.185 33.097 77.5159 33.2428 77.931 33.2428ZM81.1215 34V29.5411H81.6768V34H81.1215ZM81.1047 28.8008V28.0521H81.6936V28.8008H81.1047ZM83.1262 34V29.5411H83.6309L83.6562 30.7105L83.5889 30.6601C83.6337 30.3852 83.7263 30.1581 83.8665 29.9786C84.0123 29.7991 84.189 29.6645 84.3965 29.5748C84.604 29.4851 84.8284 29.4402 85.0696 29.4402C85.4117 29.4402 85.6921 29.5159 85.9108 29.6673C86.1352 29.8188 86.3006 30.0235 86.4072 30.2815C86.5138 30.5339 86.5671 30.8171 86.5671 31.1312V34H86.0118V31.3331C86.0118 31.0415 85.9753 30.7919 85.9024 30.5844C85.8351 30.3768 85.723 30.217 85.5659 30.1048C85.4089 29.9926 85.2042 29.9366 84.9518 29.9366C84.5704 29.9366 84.2619 30.0599 84.0263 30.3067C83.7964 30.5535 83.6814 30.8956 83.6814 31.3331V34H83.1262ZM89.4992 35.3629C89.1851 35.3629 88.899 35.3068 88.641 35.1946C88.3886 35.0881 88.1811 34.9366 88.0185 34.7403C87.8558 34.544 87.7521 34.3169 87.7072 34.0589L88.2877 34.0252C88.3382 34.2664 88.4616 34.4599 88.6579 34.6057C88.8542 34.7572 89.1346 34.8329 89.4992 34.8329C89.931 34.8329 90.2619 34.7319 90.4919 34.53C90.7274 34.3281 90.8452 34.0337 90.8452 33.6467V32.8811C90.7331 33.1503 90.5536 33.3662 90.3068 33.5289C90.06 33.6915 89.7768 33.7729 89.4571 33.7729C89.0813 33.7729 88.7476 33.6831 88.456 33.5036C88.1699 33.3186 87.9456 33.0634 87.7829 32.7381C87.6259 32.4128 87.5474 32.0342 87.5474 31.6023C87.5474 31.1705 87.6259 30.7947 87.7829 30.475C87.9456 30.1497 88.1671 29.8973 88.4475 29.7178C88.7336 29.5327 89.0617 29.4402 89.4319 29.4402C89.774 29.4402 90.0712 29.5271 90.3236 29.701C90.5816 29.8693 90.7639 30.0936 90.8705 30.374V29.5411H91.4005V33.6467C91.4005 34 91.3248 34.3057 91.1733 34.5637C91.0219 34.8217 90.8032 35.018 90.5171 35.1526C90.2367 35.2928 89.8974 35.3629 89.4992 35.3629ZM89.4823 33.2428C89.8918 33.2428 90.2199 33.097 90.4666 32.8054C90.719 32.5081 90.8452 32.1071 90.8452 31.6023C90.8508 31.277 90.7975 30.9938 90.6854 30.7526C90.5732 30.5058 90.4134 30.3151 90.2058 30.1805C89.9983 30.0403 89.7572 29.9702 89.4823 29.9702C89.0617 29.9702 88.7308 30.1188 88.4896 30.4161C88.2484 30.7077 88.1278 31.1031 88.1278 31.6023C88.1278 32.1071 88.2484 32.5081 88.4896 32.8054C88.7364 33.097 89.0673 33.2428 89.4823 33.2428ZM94.9754 34V28.0268H95.5475V33.714L95.2867 33.4447H98.6098V34H94.9754ZM101.084 34.101C100.681 34.101 100.327 34.0056 100.024 33.8149C99.7271 33.6242 99.4971 33.355 99.3345 33.0073C99.1718 32.6539 99.0905 32.2417 99.0905 31.7706C99.0905 31.2938 99.1718 30.8816 99.3345 30.5339C99.4971 30.1861 99.7271 29.9169 100.024 29.7262C100.327 29.5355 100.681 29.4402 101.084 29.4402C101.488 29.4402 101.839 29.5355 102.136 29.7262C102.433 29.9169 102.663 30.1861 102.826 30.5339C102.988 30.8816 103.07 31.2938 103.07 31.7706C103.07 32.2417 102.988 32.6539 102.826 33.0073C102.663 33.355 102.433 33.6242 102.136 33.8149C101.839 34.0056 101.488 34.101 101.084 34.101ZM101.084 33.5709C101.522 33.5709 101.864 33.4111 102.111 33.0914C102.363 32.7661 102.489 32.3258 102.489 31.7706C102.489 31.2153 102.363 30.7778 102.111 30.4582C101.864 30.1329 101.522 29.9702 101.084 29.9702C100.647 29.9702 100.302 30.1329 100.05 30.4582C99.7972 30.7778 99.671 31.2153 99.671 31.7706C99.671 32.3258 99.7972 32.7661 100.05 33.0914C100.302 33.4111 100.647 33.5709 101.084 33.5709ZM105.759 34.101C105.344 34.101 104.988 34.0028 104.691 33.8065C104.393 33.6046 104.163 33.3298 104.001 32.982C103.844 32.6287 103.765 32.2249 103.765 31.7706C103.765 31.3163 103.844 30.9153 104.001 30.5675C104.163 30.2142 104.393 29.9394 104.691 29.7431C104.988 29.5411 105.344 29.4402 105.759 29.4402C106.101 29.4402 106.401 29.5019 106.659 29.6253C106.917 29.7487 107.128 29.9253 107.29 30.1553C107.453 30.3852 107.562 30.6573 107.618 30.9713L107.038 31.005C106.971 30.6741 106.825 30.4189 106.6 30.2394C106.382 30.0599 106.101 29.9702 105.759 29.9702C105.322 29.9702 104.977 30.1329 104.724 30.4582C104.472 30.7778 104.346 31.2153 104.346 31.7706C104.346 32.3258 104.472 32.7661 104.724 33.0914C104.977 33.4111 105.322 33.5709 105.759 33.5709C106.101 33.5709 106.384 33.4756 106.609 33.2849C106.839 33.0886 106.985 32.8082 107.046 32.4436L107.627 32.4857C107.571 32.811 107.459 33.0942 107.29 33.3354C107.128 33.5765 106.917 33.7644 106.659 33.899C106.401 34.0337 106.101 34.101 105.759 34.101ZM109.83 34.101C109.382 34.101 109.023 33.9944 108.753 33.7813C108.484 33.5625 108.35 33.2681 108.35 32.8979C108.35 32.5277 108.467 32.2361 108.703 32.023C108.939 31.8098 109.283 31.6612 109.738 31.5771L111.387 31.2658C111.387 30.8227 111.291 30.4974 111.101 30.2899C110.91 30.0768 110.621 29.9702 110.234 29.9702C109.892 29.9702 109.62 30.0515 109.418 30.2142C109.216 30.3768 109.082 30.6068 109.014 30.904L108.425 30.8536C108.509 30.4217 108.706 30.0796 109.014 29.8272C109.328 29.5692 109.735 29.4402 110.234 29.4402C110.789 29.4402 111.213 29.5972 111.504 29.9113C111.796 30.2254 111.942 30.6741 111.942 31.2574V33.1166C111.942 33.2681 111.964 33.3718 112.009 33.4279C112.06 33.4784 112.138 33.5036 112.245 33.5036H112.379V34C112.357 34.0056 112.323 34.0084 112.278 34.0084C112.239 34.014 112.197 34.0168 112.152 34.0168C111.978 34.0168 111.833 33.986 111.715 33.9243C111.603 33.8626 111.518 33.7616 111.462 33.6214C111.412 33.4812 111.387 33.2877 111.387 33.0409L111.454 33.0493C111.404 33.2456 111.3 33.4251 111.143 33.5878C110.991 33.7448 110.801 33.871 110.571 33.9663C110.341 34.0561 110.094 34.101 109.83 34.101ZM109.881 33.6046C110.189 33.6046 110.456 33.5429 110.68 33.4195C110.904 33.2961 111.078 33.1307 111.202 32.9231C111.325 32.71 111.387 32.4717 111.387 32.208V31.7622L109.856 32.0482C109.536 32.1099 109.3 32.2052 109.149 32.3342C109.003 32.4632 108.93 32.6343 108.93 32.8474C108.93 33.0886 109.014 33.2765 109.183 33.4111C109.351 33.5401 109.584 33.6046 109.881 33.6046ZM114.004 34C113.751 34 113.552 33.9383 113.406 33.8149C113.26 33.6859 113.188 33.4868 113.188 33.2176V28.0268H113.743V33.1755C113.743 33.2821 113.771 33.3634 113.827 33.4195C113.883 33.4756 113.967 33.5036 114.079 33.5036H114.433V34H114.004ZM118.789 34V28.5821H116.871V28.0268H121.279V28.5821H119.361V34H118.789ZM122.655 34.101C122.206 34.101 121.847 33.9944 121.578 33.7813C121.309 33.5625 121.174 33.2681 121.174 32.8979C121.174 32.5277 121.292 32.2361 121.528 32.023C121.763 31.8098 122.108 31.6612 122.563 31.5771L124.211 31.2658C124.211 30.8227 124.116 30.4974 123.925 30.2899C123.735 30.0768 123.446 29.9702 123.059 29.9702C122.717 29.9702 122.445 30.0515 122.243 30.2142C122.041 30.3768 121.906 30.6068 121.839 30.904L121.25 30.8536C121.334 30.4217 121.531 30.0796 121.839 29.8272C122.153 29.5692 122.56 29.4402 123.059 29.4402C123.614 29.4402 124.038 29.5972 124.329 29.9113C124.621 30.2254 124.767 30.6741 124.767 31.2574V33.1166C124.767 33.2681 124.789 33.3718 124.834 33.4279C124.885 33.4784 124.963 33.5036 125.07 33.5036H125.204V34C125.182 34.0056 125.148 34.0084 125.103 34.0084C125.064 34.014 125.022 34.0168 124.977 34.0168C124.803 34.0168 124.657 33.986 124.54 33.9243C124.427 33.8626 124.343 33.7616 124.287 33.6214C124.237 33.4812 124.211 33.2877 124.211 33.0409L124.279 33.0493C124.228 33.2456 124.125 33.4251 123.968 33.5878C123.816 33.7448 123.625 33.871 123.395 33.9663C123.165 34.0561 122.919 34.101 122.655 34.101ZM122.706 33.6046C123.014 33.6046 123.28 33.5429 123.505 33.4195C123.729 33.2961 123.903 33.1307 124.026 32.9231C124.15 32.71 124.211 32.4717 124.211 32.208V31.7622L122.68 32.0482C122.361 32.1099 122.125 32.2052 121.974 32.3342C121.828 32.4632 121.755 32.6343 121.755 32.8474C121.755 33.0886 121.839 33.2765 122.007 33.4111C122.176 33.5401 122.408 33.6046 122.706 33.6046ZM126.828 34C126.576 34 126.377 33.9383 126.231 33.8149C126.085 33.6859 126.012 33.4868 126.012 33.2176V28.0268H126.568V33.1755C126.568 33.2821 126.596 33.3634 126.652 33.4195C126.708 33.4756 126.792 33.5036 126.904 33.5036H127.257V34H126.828ZM129.84 34.101C129.414 34.101 129.052 34.0028 128.755 33.8065C128.457 33.6046 128.227 33.3298 128.065 32.982C127.908 32.6287 127.829 32.2249 127.829 31.7706C127.829 31.3163 127.908 30.9153 128.065 30.5675C128.222 30.2142 128.446 29.9394 128.738 29.7431C129.035 29.5411 129.391 29.4402 129.806 29.4402C130.204 29.4402 130.549 29.5355 130.841 29.7262C131.133 29.9169 131.354 30.1861 131.506 30.5339C131.663 30.8816 131.741 31.2882 131.741 31.7537V31.9304H128.41C128.432 32.4576 128.57 32.8643 128.822 33.1503C129.074 33.4307 129.414 33.5709 129.84 33.5709C130.165 33.5709 130.432 33.4924 130.639 33.3354C130.847 33.1783 130.99 32.9708 131.068 32.7128L131.665 32.7549C131.553 33.1475 131.337 33.47 131.018 33.7224C130.698 33.9748 130.305 34.101 129.84 34.101ZM128.41 31.4341H131.135C131.107 30.9573 130.976 30.5956 130.74 30.3488C130.504 30.0964 130.193 29.9702 129.806 29.9702C129.419 29.9702 129.102 30.0964 128.856 30.3488C128.609 30.6012 128.46 30.9629 128.41 31.4341ZM132.733 34V29.5411H133.238L133.263 30.7105L133.196 30.6601C133.24 30.3852 133.333 30.1581 133.473 29.9786C133.619 29.7991 133.796 29.6645 134.003 29.5748C134.211 29.4851 134.435 29.4402 134.676 29.4402C135.018 29.4402 135.299 29.5159 135.518 29.6673C135.742 29.8188 135.907 30.0235 136.014 30.2815C136.12 30.5339 136.174 30.8171 136.174 31.1312V34H135.618V31.3331C135.618 31.0415 135.582 30.7919 135.509 30.5844C135.442 30.3768 135.33 30.217 135.173 30.1048C135.016 29.9926 134.811 29.9366 134.558 29.9366C134.177 29.9366 133.869 30.0599 133.633 30.3067C133.403 30.5535 133.288 30.8956 133.288 31.3331V34H132.733ZM138.75 34C138.386 34 138.117 33.9159 137.943 33.7476C137.769 33.5737 137.682 33.3101 137.682 32.9568V28.4979H138.237V32.94C138.237 33.1475 138.282 33.2933 138.372 33.3774C138.467 33.4616 138.61 33.5036 138.801 33.5036H139.39V34H138.75ZM136.984 30.0375V29.5411H139.39V30.0375H136.984ZM143.663 34.101C143.214 34.101 142.855 33.9944 142.586 33.7813C142.317 33.5625 142.182 33.2681 142.182 32.8979C142.182 32.5277 142.3 32.2361 142.535 32.023C142.771 31.8098 143.116 31.6612 143.57 31.5771L145.219 31.2658C145.219 30.8227 145.124 30.4974 144.933 30.2899C144.742 30.0768 144.454 29.9702 144.067 29.9702C143.724 29.9702 143.452 30.0515 143.251 30.2142C143.049 30.3768 142.914 30.6068 142.847 30.904L142.258 30.8536C142.342 30.4217 142.538 30.0796 142.847 29.8272C143.161 29.5692 143.567 29.4402 144.067 29.4402C144.622 29.4402 145.045 29.5972 145.337 29.9113C145.629 30.2254 145.774 30.6741 145.774 31.2574V33.1166C145.774 33.2681 145.797 33.3718 145.842 33.4279C145.892 33.4784 145.971 33.5036 146.077 33.5036H146.212V34C146.189 34.0056 146.156 34.0084 146.111 34.0084C146.072 34.014 146.03 34.0168 145.985 34.0168C145.811 34.0168 145.665 33.986 145.547 33.9243C145.435 33.8626 145.351 33.7616 145.295 33.6214C145.244 33.4812 145.219 33.2877 145.219 33.0409L145.286 33.0493C145.236 33.2456 145.132 33.4251 144.975 33.5878C144.824 33.7448 144.633 33.871 144.403 33.9663C144.173 34.0561 143.926 34.101 143.663 34.101ZM143.713 33.6046C144.022 33.6046 144.288 33.5429 144.512 33.4195C144.737 33.2961 144.911 33.1307 145.034 32.9231C145.157 32.71 145.219 32.4717 145.219 32.208V31.7622L143.688 32.0482C143.368 32.1099 143.133 32.2052 142.981 32.3342C142.835 32.4632 142.763 32.6343 142.763 32.8474C142.763 33.0886 142.847 33.2765 143.015 33.4111C143.183 33.5401 143.416 33.6046 143.713 33.6046ZM147.053 34V29.5411H147.558L147.583 30.7105L147.516 30.6601C147.56 30.3852 147.653 30.1581 147.793 29.9786C147.939 29.7991 148.116 29.6645 148.323 29.5748C148.531 29.4851 148.755 29.4402 148.996 29.4402C149.338 29.4402 149.619 29.5159 149.838 29.6673C150.062 29.8188 150.227 30.0235 150.334 30.2815C150.441 30.5339 150.494 30.8171 150.494 31.1312V34H149.939V31.3331C149.939 31.0415 149.902 30.7919 149.829 30.5844C149.762 30.3768 149.65 30.217 149.493 30.1048C149.336 29.9926 149.131 29.9366 148.879 29.9366C148.497 29.9366 148.189 30.0599 147.953 30.3067C147.723 30.5535 147.608 30.8956 147.608 31.3331V34H147.053ZM153.35 34.101C152.963 34.101 152.629 34.0056 152.349 33.8149C152.069 33.6242 151.853 33.355 151.701 33.0073C151.55 32.6595 151.474 32.2473 151.474 31.7706C151.474 31.2938 151.55 30.8816 151.701 30.5339C151.853 30.1861 152.069 29.9169 152.349 29.7262C152.629 29.5355 152.963 29.4402 153.35 29.4402C153.675 29.4402 153.964 29.5215 154.217 29.6842C154.475 29.8412 154.663 30.0543 154.78 30.3236V28.0268H155.336V34H154.848L154.822 33.1671C154.699 33.4588 154.503 33.6887 154.234 33.857C153.97 34.0196 153.675 34.101 153.35 34.101ZM153.443 33.5709C153.723 33.5709 153.962 33.498 154.158 33.3522C154.36 33.2008 154.514 32.9904 154.621 32.7212C154.727 32.4464 154.78 32.1295 154.78 31.7706C154.78 31.4116 154.727 31.0975 154.621 30.8283C154.514 30.5591 154.36 30.3488 154.158 30.1974C153.962 30.0459 153.723 29.9702 153.443 29.9702C153.022 29.9702 152.686 30.1329 152.433 30.4582C152.181 30.7778 152.055 31.2153 152.055 31.7706C152.055 32.3202 152.181 32.7577 152.433 33.083C152.686 33.4083 153.022 33.5709 153.443 33.5709ZM161.199 34.1346C160.643 34.1346 160.164 34.0112 159.76 33.7644C159.362 33.5121 159.056 33.1531 158.843 32.6876C158.63 32.2221 158.523 31.6668 158.523 31.0218C158.523 30.3768 158.63 29.8216 158.843 29.3561C159.056 28.8849 159.362 28.5232 159.76 28.2708C160.164 28.0184 160.643 27.8922 161.199 27.8922C161.76 27.8922 162.239 28.0184 162.637 28.2708C163.036 28.5232 163.341 28.8849 163.554 29.3561C163.773 29.8216 163.882 30.3768 163.882 31.0218C163.882 31.6668 163.773 32.2221 163.554 32.6876C163.341 33.1531 163.036 33.5121 162.637 33.7644C162.239 34.0112 161.76 34.1346 161.199 34.1346ZM161.199 33.5709C161.636 33.5709 162.009 33.47 162.318 33.2681C162.626 33.0662 162.864 32.7745 163.033 32.3931C163.201 32.0117 163.285 31.5546 163.285 31.0218C163.285 30.489 163.201 30.0319 163.033 29.6505C162.864 29.2635 162.626 28.9691 162.318 28.7672C162.009 28.5596 161.636 28.4559 161.199 28.4559C160.767 28.4559 160.394 28.5596 160.08 28.7672C159.771 28.9691 159.533 29.2635 159.365 29.6505C159.202 30.0319 159.121 30.489 159.121 31.0218C159.121 31.5546 159.202 32.0117 159.365 32.3931C159.533 32.7745 159.771 33.0662 160.08 33.2681C160.394 33.47 160.767 33.5709 161.199 33.5709ZM164.971 35.2619V29.5411H165.476L165.493 30.6685L165.401 30.6264C165.513 30.2394 165.706 29.945 165.981 29.7431C166.256 29.5411 166.576 29.4402 166.94 29.4402C167.361 29.4402 167.708 29.5468 167.983 29.7599C168.264 29.9674 168.474 30.2478 168.614 30.6012C168.76 30.9489 168.833 31.3387 168.833 31.7706C168.833 32.2024 168.763 32.595 168.623 32.9484C168.482 33.2961 168.272 33.5765 167.992 33.7897C167.711 33.9972 167.361 34.101 166.94 34.101C166.693 34.101 166.463 34.0533 166.25 33.9579C166.043 33.857 165.866 33.7224 165.72 33.5541C165.58 33.3859 165.485 33.1952 165.434 32.982L165.527 32.8727V35.2619H164.971ZM166.898 33.5709C167.313 33.5709 167.641 33.4111 167.882 33.0914C168.123 32.7717 168.244 32.3314 168.244 31.7706C168.244 31.2097 168.123 30.7694 167.882 30.4497C167.641 30.1301 167.31 29.9702 166.89 29.9702C166.615 29.9702 166.374 30.0431 166.166 30.1889C165.964 30.3292 165.807 30.5339 165.695 30.8031C165.583 31.0723 165.527 31.3948 165.527 31.7706C165.527 32.1464 165.583 32.4688 165.695 32.7381C165.807 33.0073 165.967 33.2148 166.175 33.3606C166.382 33.5008 166.623 33.5709 166.898 33.5709ZM169.827 35.2619V29.5411H170.332L170.349 30.6685L170.256 30.6264C170.368 30.2394 170.562 29.945 170.837 29.7431C171.111 29.5411 171.431 29.4402 171.796 29.4402C172.216 29.4402 172.564 29.5468 172.839 29.7599C173.119 29.9674 173.33 30.2478 173.47 30.6012C173.616 30.9489 173.688 31.3387 173.688 31.7706C173.688 32.2024 173.618 32.595 173.478 32.9484C173.338 33.2961 173.128 33.5765 172.847 33.7897C172.567 33.9972 172.216 34.101 171.796 34.101C171.549 34.101 171.319 34.0533 171.106 33.9579C170.898 33.857 170.722 33.7224 170.576 33.5541C170.435 33.3859 170.34 33.1952 170.29 32.982L170.382 32.8727V35.2619H169.827ZM171.754 33.5709C172.169 33.5709 172.497 33.4111 172.738 33.0914C172.979 32.7717 173.1 32.3314 173.1 31.7706C173.1 31.2097 172.979 30.7694 172.738 30.4497C172.497 30.1301 172.166 29.9702 171.745 29.9702C171.47 29.9702 171.229 30.0431 171.022 30.1889C170.82 30.3292 170.663 30.5339 170.55 30.8031C170.438 31.0723 170.382 31.3948 170.382 31.7706C170.382 32.1464 170.438 32.4688 170.55 32.7381C170.663 33.0073 170.822 33.2148 171.03 33.3606C171.238 33.5008 171.479 33.5709 171.754 33.5709ZM176.373 34.101C175.97 34.101 175.616 34.0056 175.313 33.8149C175.016 33.6242 174.786 33.355 174.624 33.0073C174.461 32.6539 174.38 32.2417 174.38 31.7706C174.38 31.2938 174.461 30.8816 174.624 30.5339C174.786 30.1861 175.016 29.9169 175.313 29.7262C175.616 29.5355 175.97 29.4402 176.373 29.4402C176.777 29.4402 177.128 29.5355 177.425 29.7262C177.722 29.9169 177.952 30.1861 178.115 30.5339C178.278 30.8816 178.359 31.2938 178.359 31.7706C178.359 32.2417 178.278 32.6539 178.115 33.0073C177.952 33.355 177.722 33.6242 177.425 33.8149C177.128 34.0056 176.777 34.101 176.373 34.101ZM176.373 33.5709C176.811 33.5709 177.153 33.4111 177.4 33.0914C177.652 32.7661 177.778 32.3258 177.778 31.7706C177.778 31.2153 177.652 30.7778 177.4 30.4582C177.153 30.1329 176.811 29.9702 176.373 29.9702C175.936 29.9702 175.591 30.1329 175.339 30.4582C175.086 30.7778 174.96 31.2153 174.96 31.7706C174.96 32.3258 175.086 32.7661 175.339 33.0914C175.591 33.4111 175.936 33.5709 176.373 33.5709ZM179.357 34V29.5411H179.837L179.87 30.761L179.795 30.719C179.868 30.3207 179.999 30.0263 180.19 29.8356C180.381 29.6393 180.644 29.5411 180.981 29.5411H181.368V30.0796H180.964C180.74 30.0796 180.549 30.1301 180.392 30.231C180.235 30.3264 180.114 30.4638 180.03 30.6432C179.952 30.8227 179.912 31.0358 179.912 31.2826V34H179.357ZM183.559 34C183.195 34 182.925 33.9159 182.751 33.7476C182.578 33.5737 182.491 33.3101 182.491 32.9568V28.4979H183.046V32.94C183.046 33.1475 183.091 33.2933 183.181 33.3774C183.276 33.4616 183.419 33.5036 183.61 33.5036H184.198V34H183.559ZM181.792 30.0375V29.5411H184.198V30.0375H181.792ZM186.613 34.101C186.17 34.101 185.814 33.9523 185.545 33.6551C185.281 33.3522 185.149 32.9372 185.149 32.41V29.5411H185.705V32.2417C185.705 32.7016 185.792 33.0437 185.965 33.2681C186.145 33.4924 186.408 33.6046 186.756 33.6046C187.143 33.6046 187.446 33.4784 187.665 33.226C187.889 32.9736 188.001 32.6315 188.001 32.1996V29.5411H188.557V34H188.035L188.027 32.8558L188.111 32.8979C188.038 33.2793 187.87 33.5765 187.606 33.7897C187.348 33.9972 187.017 34.101 186.613 34.101ZM189.939 34V29.5411H190.444L190.469 30.7105L190.402 30.6601C190.447 30.3852 190.539 30.1581 190.679 29.9786C190.825 29.7991 191.002 29.6645 191.209 29.5748C191.417 29.4851 191.641 29.4402 191.882 29.4402C192.225 29.4402 192.505 29.5159 192.724 29.6673C192.948 29.8188 193.114 30.0235 193.22 30.2815C193.327 30.5339 193.38 30.8171 193.38 31.1312V34H192.825V31.3331C192.825 31.0415 192.788 30.7919 192.715 30.5844C192.648 30.3768 192.536 30.217 192.379 30.1048C192.222 29.9926 192.017 29.9366 191.765 29.9366C191.383 29.9366 191.075 30.0599 190.839 30.3067C190.609 30.5535 190.494 30.8956 190.494 31.3331V34H189.939ZM194.68 34V29.5411H195.235V34H194.68ZM194.663 28.8008V28.0521H195.252V28.8008H194.663ZM197.846 34C197.482 34 197.212 33.9159 197.039 33.7476C196.865 33.5737 196.778 33.3101 196.778 32.9568V28.4979H197.333V32.94C197.333 33.1475 197.378 33.2933 197.468 33.3774C197.563 33.4616 197.706 33.5036 197.897 33.5036H198.486V34H197.846ZM196.08 30.0375V29.5411H198.486V30.0375H196.08ZM199.522 35.2619V34.7656H199.976C200.161 34.7656 200.296 34.7347 200.38 34.673C200.47 34.6169 200.543 34.516 200.599 34.3702L200.767 33.9159H200.565L198.891 29.5411H199.497L200.935 33.4195L202.307 29.5411H202.912L201.078 34.5553C200.988 34.802 200.862 34.9815 200.7 35.0937C200.543 35.2059 200.315 35.2619 200.018 35.2619H199.522ZM207.24 34V28.5821H205.322V28.0268H209.73V28.5821H207.812V34H207.24ZM211.537 34.101C211.133 34.101 210.78 34.0056 210.477 33.8149C210.18 33.6242 209.95 33.355 209.787 33.0073C209.624 32.6539 209.543 32.2417 209.543 31.7706C209.543 31.2938 209.624 30.8816 209.787 30.5339C209.95 30.1861 210.18 29.9169 210.477 29.7262C210.78 29.5355 211.133 29.4402 211.537 29.4402C211.941 29.4402 212.291 29.5355 212.588 29.7262C212.886 29.9169 213.116 30.1861 213.278 30.5339C213.441 30.8816 213.522 31.2938 213.522 31.7706C213.522 32.2417 213.441 32.6539 213.278 33.0073C213.116 33.355 212.886 33.6242 212.588 33.8149C212.291 34.0056 211.941 34.101 211.537 34.101ZM211.537 33.5709C211.974 33.5709 212.316 33.4111 212.563 33.0914C212.816 32.7661 212.942 32.3258 212.942 31.7706C212.942 31.2153 212.816 30.7778 212.563 30.4582C212.316 30.1329 211.974 29.9702 211.537 29.9702C211.099 29.9702 210.754 30.1329 210.502 30.4582C210.25 30.7778 210.123 31.2153 210.123 31.7706C210.123 32.3258 210.25 32.7661 210.502 33.0914C210.754 33.4111 211.099 33.5709 211.537 33.5709ZM216.17 35.3629C215.855 35.3629 215.569 35.3068 215.311 35.1946C215.059 35.0881 214.852 34.9366 214.689 34.7403C214.526 34.544 214.422 34.3169 214.378 34.0589L214.958 34.0252C215.009 34.2664 215.132 34.4599 215.328 34.6057C215.525 34.7572 215.805 34.8329 216.17 34.8329C216.601 34.8329 216.932 34.7319 217.162 34.53C217.398 34.3281 217.516 34.0337 217.516 33.6467V32.8811C217.403 33.1503 217.224 33.3662 216.977 33.5289C216.73 33.6915 216.447 33.7729 216.128 33.7729C215.752 33.7729 215.418 33.6831 215.126 33.5036C214.84 33.3186 214.616 33.0634 214.453 32.7381C214.296 32.4128 214.218 32.0342 214.218 31.6023C214.218 31.1705 214.296 30.7947 214.453 30.475C214.616 30.1497 214.838 29.8973 215.118 29.7178C215.404 29.5327 215.732 29.4402 216.102 29.4402C216.444 29.4402 216.742 29.5271 216.994 29.701C217.252 29.8693 217.434 30.0936 217.541 30.374V29.5411H218.071V33.6467C218.071 34 217.995 34.3057 217.844 34.5637C217.692 34.8217 217.474 35.018 217.188 35.1526C216.907 35.2928 216.568 35.3629 216.17 35.3629ZM216.153 33.2428C216.562 33.2428 216.89 33.097 217.137 32.8054C217.389 32.5081 217.516 32.1071 217.516 31.6023C217.521 31.277 217.468 30.9938 217.356 30.7526C217.244 30.5058 217.084 30.3151 216.876 30.1805C216.669 30.0403 216.428 29.9702 216.153 29.9702C215.732 29.9702 215.401 30.1188 215.16 30.4161C214.919 30.7077 214.798 31.1031 214.798 31.6023C214.798 32.1071 214.919 32.5081 215.16 32.8054C215.407 33.097 215.738 33.2428 216.153 33.2428ZM221.076 34.101C220.649 34.101 220.288 34.0028 219.99 33.8065C219.693 33.6046 219.463 33.3298 219.301 32.982C219.144 32.6287 219.065 32.2249 219.065 31.7706C219.065 31.3163 219.144 30.9153 219.301 30.5675C219.458 30.2142 219.682 29.9394 219.974 29.7431C220.271 29.5411 220.627 29.4402 221.042 29.4402C221.44 29.4402 221.785 29.5355 222.077 29.7262C222.369 29.9169 222.59 30.1861 222.742 30.5339C222.899 30.8816 222.977 31.2882 222.977 31.7537V31.9304H219.646C219.668 32.4576 219.805 32.8643 220.058 33.1503C220.31 33.4307 220.649 33.5709 221.076 33.5709C221.401 33.5709 221.667 33.4924 221.875 33.3354C222.083 33.1783 222.226 32.9708 222.304 32.7128L222.901 32.7549C222.789 33.1475 222.573 33.47 222.254 33.7224C221.934 33.9748 221.541 34.101 221.076 34.101ZM219.646 31.4341H222.371C222.343 30.9573 222.211 30.5956 221.976 30.3488C221.74 30.0964 221.429 29.9702 221.042 29.9702C220.655 29.9702 220.338 30.0964 220.091 30.3488C219.845 30.6012 219.696 30.9629 219.646 31.4341ZM225.328 34C224.963 34 224.694 33.9159 224.52 33.7476C224.346 33.5737 224.26 33.3101 224.26 32.9568V28.4979H224.815V32.94C224.815 33.1475 224.86 33.2933 224.949 33.3774C225.045 33.4616 225.188 33.5036 225.378 33.5036H225.967V34H225.328ZM223.561 30.0375V29.5411H225.967V30.0375H223.561ZM226.91 34V28.0268H227.465V30.6012L227.398 30.5928C227.443 30.3292 227.533 30.1132 227.667 29.945C227.807 29.7767 227.981 29.6505 228.189 29.5664C228.396 29.4823 228.623 29.4402 228.87 29.4402C229.195 29.4402 229.468 29.5131 229.686 29.6589C229.905 29.8048 230.07 30.0067 230.183 30.2647C230.295 30.517 230.351 30.8059 230.351 31.1312V34H229.796V31.3331C229.796 30.8844 229.711 30.5395 229.543 30.2983C229.375 30.0571 229.109 29.9366 228.744 29.9366C228.351 29.9366 228.04 30.0628 227.81 30.3151C227.58 30.5619 227.465 30.904 227.465 31.3415V34H226.91ZM233.342 34.101C232.916 34.101 232.554 34.0028 232.257 33.8065C231.959 33.6046 231.729 33.3298 231.567 32.982C231.41 32.6287 231.331 32.2249 231.331 31.7706C231.331 31.3163 231.41 30.9153 231.567 30.5675C231.724 30.2142 231.948 29.9394 232.24 29.7431C232.537 29.5411 232.893 29.4402 233.308 29.4402C233.706 29.4402 234.051 29.5355 234.343 29.7262C234.635 29.9169 234.856 30.1861 235.008 30.5339C235.165 30.8816 235.243 31.2882 235.243 31.7537V31.9304H231.912C231.934 32.4576 232.072 32.8643 232.324 33.1503C232.576 33.4307 232.916 33.5709 233.342 33.5709C233.667 33.5709 233.934 33.4924 234.141 33.3354C234.349 33.1783 234.492 32.9708 234.57 32.7128L235.167 32.7549C235.055 33.1475 234.839 33.47 234.52 33.7224C234.2 33.9748 233.807 34.101 233.342 34.101ZM231.912 31.4341H234.637C234.609 30.9573 234.478 30.5956 234.242 30.3488C234.006 30.0964 233.695 29.9702 233.308 29.9702C232.921 29.9702 232.604 30.0964 232.358 30.3488C232.111 30.6012 231.962 30.9629 231.912 31.4341ZM236.235 34V29.5411H236.714L236.748 30.761L236.672 30.719C236.745 30.3207 236.877 30.0263 237.068 29.8356C237.258 29.6393 237.522 29.5411 237.859 29.5411H238.246V30.0796H237.842C237.617 30.0796 237.427 30.1301 237.27 30.231C237.113 30.3264 236.992 30.4638 236.908 30.6432C236.829 30.8227 236.79 31.0358 236.79 31.2826V34H236.235Z" fill="white"/>
</svg>
