<svg width="189" height="192" viewBox="0 0 189 192" fill="none" xmlns="http://www.w3.org/2000/svg">
<path d="M17.677 50.3195L55.2939 50.3195L55.2939 11.1071L17.677 11.1071L17.677 50.3195Z" fill="#E0E0E0"/>
<path d="M20.2283 50.3195L57.8452 50.3195L57.8452 11.1071L20.2283 11.1071L20.2283 50.3195Z" fill="#FAFAFA"/>
<path d="M20.2153 11.0938H57.8588V50.3283H20.2153V11.0938ZM57.8367 11.1159H20.2419V50.3062H57.8367V11.1159Z" fill="#E0E0E0"/>
<path d="M25.2832 45.0467H52.7876V16.3754L25.2832 16.3754L25.2832 45.0467Z" fill="white"/>
<path d="M52.7876 45.2411C52.9819 45.5312 53.2104 45.7968 53.4682 46.0322C53.9102 46.4963 54.5246 47.1195 55.2362 47.8002C55.9478 48.4808 56.5621 49.0863 57.035 49.5195C57.2738 49.7704 57.5407 49.9929 57.8306 50.1824C57.6363 49.895 57.4094 49.631 57.1544 49.3957C56.7124 48.9316 56.0936 48.304 55.3864 47.6278C54.6793 46.9515 54.0605 46.3372 53.5876 45.9041C53.3484 45.6518 53.0798 45.4292 52.7876 45.2411Z" fill="#E0E0E0"/>
<path d="M25.2831 45.1661C24.994 45.3599 24.7298 45.5885 24.4964 45.8467C24.0323 46.2887 23.4047 46.9031 22.7285 47.5925C22.0522 48.282 21.4379 48.9185 21.0047 49.3914C20.7526 49.6278 20.5313 49.8951 20.3462 50.187C20.6316 49.9918 20.894 49.7649 21.1285 49.5107C21.5705 49.0688 22.2246 48.4544 22.8964 47.7428C23.5682 47.0312 24.1914 46.4169 24.6201 45.944C24.8726 45.7132 25.0953 45.4519 25.2831 45.1661Z" fill="#E0E0E0"/>
<path d="M25.3593 16.4506C25.1637 16.1642 24.9369 15.9003 24.6831 15.6639C24.2411 15.2219 23.6268 14.5722 22.9152 13.8959C22.2036 13.2197 21.5893 12.6054 21.1208 12.1766C20.8813 11.9265 20.6144 11.7041 20.3252 11.5137C20.5165 11.8021 20.7421 12.0663 20.997 12.3004C21.439 12.7645 22.0578 13.3921 22.7649 14.0683C23.4721 14.7445 24.0909 15.3589 24.5638 15.7876C24.8 16.0412 25.0673 16.264 25.3593 16.4506Z" fill="#E0E0E0"/>
<path d="M52.8638 16.5125C53.1532 16.319 53.4187 16.092 53.6549 15.8362C54.0969 15.3942 54.7422 14.7799 55.4228 14.0683C56.1035 13.3567 56.709 12.7424 57.1421 12.2739C57.3918 12.034 57.6142 11.7672 57.8051 11.4783C57.5118 11.677 57.2458 11.9132 57.014 12.181C56.5499 12.623 55.9223 13.2374 55.246 13.949C54.5698 14.6606 53.9555 15.2749 53.5223 15.7478C53.2738 15.9762 53.0528 16.2328 52.8638 16.5125Z" fill="#E0E0E0"/>
<path d="M25.3588 45.0467C25.3626 44.9997 25.3626 44.9524 25.3588 44.9053C25.3588 44.8081 25.3588 44.6799 25.3588 44.5075C25.3588 44.1495 25.3588 43.6236 25.3588 42.9606C25.3588 41.5993 25.3588 39.6236 25.3853 37.1176C25.3853 32.0967 25.4163 24.9411 25.4384 16.3755L25.3323 16.4816H52.7572L52.6378 16.3578C52.6378 26.8814 52.6378 36.7243 52.6378 45.0291L52.7439 44.923L32.8857 44.976L27.3035 45.007H25.8317H25.4472H25.8141H27.2726L32.8283 45.0379L52.7527 45.0909H52.8588V44.9849C52.8588 36.68 52.8588 26.8372 52.8588 16.3136V16.1943H52.7306H25.3058H25.1997V16.3003C25.1997 24.8924 25.2395 32.0702 25.2527 37.1088C25.2527 39.606 25.2527 41.5772 25.2837 42.9297C25.2837 43.5926 25.2837 44.1009 25.2837 44.4545C25.2837 44.6224 25.2837 44.7506 25.2837 44.8434C25.2837 44.9362 25.3588 45.0467 25.3588 45.0467Z" fill="#E0E0E0"/>
<path d="M34.451 35.3009H43.6265V26.1254H34.451V35.3009Z" fill="#EBEBEB"/>
<path d="M7.1181 186.927H52.3945L52.3945 101.337H7.1181L7.1181 186.927Z" fill="#E0E0E0"/>
<path d="M20.5507 186.927H65.8271L65.8271 101.337H20.5507L20.5507 186.927Z" fill="#F5F5F5"/>
<path d="M23.8877 105.386H62.7598V118.955H23.8877V105.386ZM62.2737 105.863H24.365V118.477H62.2737V105.863Z" fill="#E0E0E0"/>
<path d="M48.2394 108.329H37.8662C37.2859 108.329 36.7295 108.099 36.3192 107.689C35.9089 107.278 35.6784 106.722 35.6784 106.142V105.624H50.4272V106.142C50.4272 106.722 50.1967 107.278 49.7865 107.689C49.3762 108.099 48.8197 108.329 48.2394 108.329Z" fill="#EBEBEB"/>
<path d="M23.8877 122.619H62.7598V136.187H23.8877V122.619ZM62.2737 123.1H24.365V135.71H62.2737V123.1Z" fill="#E0E0E0"/>
<path d="M48.2394 125.562H37.8662C37.2859 125.562 36.7295 125.332 36.3192 124.921C35.9089 124.511 35.6784 123.955 35.6784 123.374V122.857H50.4272V123.374C50.4272 123.955 50.1967 124.511 49.7865 124.921C49.3762 125.332 48.8197 125.562 48.2394 125.562Z" fill="#EBEBEB"/>
<path d="M23.8877 139.856H62.7598V153.42H23.8877V139.856ZM62.2737 140.333H24.365V152.943H62.2737V140.333Z" fill="#E0E0E0"/>
<path d="M48.2394 142.795H37.8662C37.2859 142.795 36.7295 142.565 36.3192 142.154C35.9089 141.744 35.6784 141.187 35.6784 140.607V140.09H50.4272V140.607C50.4272 141.187 50.1967 141.744 49.7865 142.154C49.3762 142.565 48.8197 142.795 48.2394 142.795Z" fill="#EBEBEB"/>
<path d="M23.8877 157.089H62.7598V170.657H23.8877V157.089ZM62.2737 157.566H24.365V170.18H62.2737V157.566Z" fill="#E0E0E0"/>
<path d="M48.2394 160.032H37.8662C37.2859 160.032 36.7295 159.802 36.3192 159.391C35.9089 158.981 35.6784 158.425 35.6784 157.844V157.327H50.4272V157.844C50.4272 158.425 50.1967 158.981 49.7865 159.391C49.3762 159.802 48.8197 160.032 48.2394 160.032Z" fill="#EBEBEB"/>
<path d="M18.6593 102.398H67.8384V98.1328H18.6593V102.398Z" fill="#EBEBEB"/>
<path d="M3.87004 102.398H18.6587V98.1328H3.87004V102.398Z" fill="#E0E0E0"/>
<path d="M63.4542 191.298H65.832V186.927H63.4542V191.298Z" fill="#E0E0E0"/>
<path d="M48.7535 191.298H51.1313V186.927H48.7535V191.298Z" fill="#E0E0E0"/>
<path d="M21.898 191.298H24.2759V186.927H21.898V191.298Z" fill="#E0E0E0"/>
<path d="M8.47176 191.298H10.8496V186.927H8.47176V191.298Z" fill="#E0E0E0"/>
<path d="M117.46 2.67997L114.724 16.7722L135.628 20.8318L138.364 6.73953L117.46 2.67997Z" fill="#F5F5F5"/>
<path d="M138.405 6.92591C138.333 6.98314 138.257 7.03345 138.175 7.07618L137.495 7.47397L134.967 8.90156L126.569 13.5689L126.503 13.6086L126.45 13.5468L126.326 13.4009L120.045 5.97565L118.171 3.69504C117.959 3.43869 117.791 3.23096 117.667 3.07184C117.604 3.00227 117.548 2.92679 117.5 2.84644C117.57 2.90884 117.635 2.97683 117.694 3.04975L118.229 3.64642L120.16 5.85632C121.791 7.76125 124.023 10.3645 126.485 13.2462C126.529 13.2926 126.57 13.3413 126.609 13.3921L126.489 13.37L134.887 8.75129L137.455 7.40767L138.153 7.04082C138.234 6.99639 138.318 6.95798 138.405 6.92591Z" fill="#E0E0E0"/>
<path d="M114.763 16.9544C114.727 16.9102 116.676 15.2837 119.112 13.3214C121.547 11.359 123.532 9.78551 123.58 9.83855C123.629 9.89159 121.666 11.5048 119.231 13.4716C116.796 15.4384 114.794 16.9986 114.763 16.9544Z" fill="#E0E0E0"/>
<path d="M130.565 11.0186C130.614 10.9921 131.794 13.2285 133.217 15.9732C134.64 18.7179 135.732 20.9941 135.683 21.0162C135.635 21.0383 134.454 18.8063 133.031 16.0616C131.608 13.3169 130.516 11.0407 130.565 11.0186Z" fill="#E0E0E0"/>
<path d="M183.307 21.4092L168.378 28.9081L173.433 38.9716L188.362 31.4727L183.307 21.4092Z" fill="#F5F5F5"/>
<path d="M183.421 21.5113C183.405 21.5812 183.381 21.6493 183.351 21.7146C183.293 21.8604 183.214 22.0505 183.116 22.2891L182.232 24.3841L179.262 31.3011L179.236 31.3586H179.174L179.028 31.3276L171.572 29.7277L169.313 29.2238L168.703 29.0824C168.631 29.0681 168.56 29.0473 168.491 29.0205C168.564 29.0238 168.637 29.0342 168.708 29.0514L169.327 29.1664L171.594 29.6083L179.059 31.1641L179.209 31.195L179.121 31.2392C180.296 28.5476 181.357 26.1167 182.135 24.3444L183.054 22.2582L183.315 21.6969C183.345 21.632 183.381 21.5699 183.421 21.5113Z" fill="#E0E0E0"/>
<path d="M173.536 39.0535C173.496 39.0535 173.925 37.0999 174.495 34.7132C175.065 32.3265 175.565 30.3995 175.605 30.4084C175.644 30.4172 175.216 32.3619 174.646 34.7486C174.075 37.1353 173.576 39.08 173.536 39.0535Z" fill="#E0E0E0"/>
<path d="M180.503 27.8094C180.503 27.7696 182.32 28.5829 184.516 29.6215C186.713 30.6602 188.494 31.5353 188.468 31.5707C188.441 31.606 186.651 30.7972 184.454 29.7585C182.258 28.7199 180.485 27.8448 180.503 27.8094Z" fill="#E0E0E0"/>
<path d="M111.98 64.6683L110.257 73.0905L122.754 75.6466L124.476 67.2244L111.98 64.6683Z" fill="#F5F5F5"/>
<path d="M124.487 67.3402L124.35 67.4285L123.939 67.6584L122.427 68.4937L117.38 71.2384L117.336 71.2605L117.305 71.2252L117.234 71.1368C115.784 69.3688 114.472 67.8087 113.517 66.6507L112.399 65.2849L112.098 64.9093C112.06 64.8681 112.027 64.822 112.001 64.7722C112.043 64.8097 112.082 64.8512 112.116 64.896L112.434 65.2584L113.579 66.5844C114.542 67.7379 115.864 69.3114 117.322 71.0484L117.398 71.1368H117.322L122.388 68.423L123.926 67.6142L124.345 67.3976C124.39 67.3735 124.438 67.3543 124.487 67.3402Z" fill="#E0E0E0"/>
<path d="M110.268 73.1964C110.268 73.1699 111.426 72.2108 112.893 71.0484C114.361 69.886 115.572 68.9623 115.594 68.9888C115.616 69.0153 114.436 69.9744 112.969 71.1368C111.501 72.2992 110.29 73.2229 110.268 73.1964Z" fill="#E0E0E0"/>
<path d="M119.776 69.7313C119.802 69.7313 120.496 71.0572 121.323 72.7147C122.149 74.3721 122.799 75.7378 122.772 75.7511C122.746 75.7643 122.048 74.4251 121.221 72.7677C120.395 71.1103 119.74 69.749 119.776 69.7313Z" fill="#E0E0E0"/>
<path d="M141.851 55.5614L161.855 53.2675L163.879 66.8142L143.128 68.8517L141.851 55.5614Z" fill="#EBEBEB"/>
<path d="M141.874 55.5657L150.527 46.8764C150.706 46.6987 150.939 46.5876 151.19 46.5618C151.44 46.5361 151.692 46.5972 151.902 46.735L161.878 53.2675" fill="#E0E0E0"/>
<path d="M143.129 68.8517C143.103 68.8517 144.517 66.9114 146.289 64.5601C148.062 62.2088 149.52 60.3215 149.547 60.3436C149.573 60.3657 148.159 62.2839 146.387 64.6352C144.614 66.9866 143.156 68.8738 143.129 68.8517Z" fill="#E0E0E0"/>
<path d="M163.881 66.8186C163.855 66.8407 162.113 65.2937 159.983 63.3623C157.853 61.4308 156.147 59.8264 156.169 59.8264C156.191 59.8264 157.937 61.3513 160.067 63.2827C162.197 65.2142 163.903 66.7921 163.881 66.8186Z" fill="#E0E0E0"/>
<path d="M142.944 56.1978L142.237 49.9482L159.749 47.8577L160.65 54.4166L152.655 62.2706L142.944 56.1978Z" fill="#FAFAFA"/>
<path d="M142.939 56.1979L143.129 56.2995L143.655 56.6133L145.631 57.8199L152.703 62.1911H152.583L160.566 54.3195L160.535 54.4167C160.362 53.1659 160.177 51.8532 159.995 50.5184C159.872 49.6345 159.748 48.7505 159.629 47.8666L159.757 47.9638L142.241 50.0146L142.307 49.9306C142.511 51.8842 142.674 53.4399 142.789 54.5228C142.839 55.0473 142.879 55.4583 142.908 55.7559C142.908 55.8885 142.908 55.9946 142.935 56.0785C142.941 56.1152 142.941 56.1524 142.935 56.189C142.932 56.1552 142.932 56.1212 142.935 56.0874L142.891 55.778C142.852 55.4833 142.799 55.0767 142.732 54.5581C142.604 53.4709 142.413 51.9062 142.179 49.9483V49.8776H142.25L159.752 47.7428H159.867V47.8533C159.985 48.7373 160.107 49.6212 160.234 50.5052C160.42 51.8311 160.601 53.1571 160.773 54.4034V54.4609L160.729 54.5007L152.72 62.3458L152.667 62.3944L152.606 62.3547L145.534 57.8907L143.594 56.6487L143.09 56.3216C143.037 56.2841 142.986 56.2428 142.939 56.1979Z" fill="#E0E0E0"/>
<path d="M157.313 51.3051C157.313 51.367 154.661 51.7206 151.342 52.0963C148.023 52.472 145.353 52.7283 145.349 52.662C145.344 52.5957 148.001 52.2465 151.32 51.8709C154.639 51.4952 157.309 51.2388 157.313 51.3051Z" fill="#E0E0E0"/>
<path d="M157.502 53.0686C157.502 53.1349 154.85 53.4885 151.531 53.8642C148.212 54.2399 145.542 54.4918 145.538 54.4299C145.533 54.3681 148.189 54.0101 151.509 53.6344C154.828 53.2587 157.498 53.0068 157.502 53.0686Z" fill="#E0E0E0"/>
<path d="M157.723 55.1061C157.723 55.168 155.071 55.5481 151.752 55.9016C148.433 56.2552 145.763 56.5293 145.754 56.4674C145.746 56.4055 148.406 56.0254 151.726 55.6718C155.045 55.3182 157.714 55.0442 157.723 55.1061Z" fill="#E0E0E0"/>
<path d="M157.939 57.1392C157.939 57.2055 155.398 57.5458 152.247 57.9038C149.095 58.2618 146.532 58.5005 146.501 58.4386C146.47 58.3768 149.042 58.032 152.198 57.674C155.354 57.316 157.935 57.0773 157.939 57.1392Z" fill="#E0E0E0"/>
<path d="M155.889 59.1679C155.565 59.2725 155.23 59.3392 154.89 59.3668C154.267 59.4596 153.405 59.5701 152.455 59.6894C151.505 59.8088 150.634 59.8972 150.006 59.9502C149.668 60.0016 149.326 60.012 148.985 59.9811C149.312 59.88 149.648 59.8147 149.989 59.7867C150.612 59.6938 151.474 59.5789 152.424 59.4596C153.374 59.3403 154.245 59.2563 154.868 59.2032C155.206 59.152 155.549 59.1402 155.889 59.1679Z" fill="#E0E0E0"/>
<path d="M153.808 61.1524C153.404 61.3067 152.977 61.3918 152.544 61.4043C152.117 61.4793 151.68 61.4793 151.253 61.4043C151.656 61.2436 152.084 61.1582 152.517 61.1524C152.944 61.0749 153.381 61.0749 153.808 61.1524Z" fill="#E0E0E0"/>
<path d="M142.929 160.624C143.391 158.172 143.197 155.641 142.367 153.288C141.536 150.935 140.099 148.843 138.2 147.224C138.2 147.224 137.104 146.821 137.197 148.05C137.254 148.784 136.547 149.818 135.964 149.376C134.943 148.589 135.265 146.994 134.828 145.783C134.311 144.368 132.804 143.613 131.425 143.007C128.879 141.893 126.293 140.797 123.557 140.315C120.821 139.834 117.9 139.949 115.407 141.177C116.014 142.394 116.618 143.613 117.219 144.832C117.272 144.992 117.356 145.14 117.467 145.268C117.577 145.395 117.711 145.5 117.862 145.576C118.012 145.651 118.176 145.696 118.345 145.708C118.513 145.72 118.682 145.699 118.841 145.646L122.156 145.403C122.638 145.367 123.257 145.403 123.398 145.884C123.54 146.366 122.93 146.795 122.417 146.976L118.943 148.222C120.097 149.896 121.686 151.221 123.54 152.054C125.391 152.881 127.315 153.536 129.285 154.012C129.892 154.242 130.552 154.293 131.186 154.158C132.198 153.831 132.896 152.567 133.953 152.722C133.892 153.303 133.716 153.866 133.436 154.379C133.156 154.892 132.778 155.344 132.322 155.71C136.419 157.318 139.274 159.285 142.929 160.629" fill="#E50D7E"/>
<path d="M146.442 178.812C146.43 178.777 146.42 178.742 146.411 178.706C146.411 178.622 146.372 178.52 146.341 178.392C146.283 178.1 146.199 177.698 146.089 177.181C145.877 176.116 145.572 174.6 145.205 172.73C145.019 171.789 144.816 170.759 144.595 169.636C144.489 169.084 144.374 168.509 144.259 167.922L144.082 167.038C144.038 166.743 143.994 166.434 143.95 166.109C143.565 163.617 143.114 160.832 141.903 158.18C140.692 155.528 138.703 153.482 136.825 151.807C135.133 150.342 133.329 149.012 131.428 147.829C129.815 146.795 128.471 146.021 127.548 145.478L126.483 144.85L126.209 144.682L126.12 144.62C126.12 144.62 126.155 144.62 126.222 144.665L126.505 144.815L127.587 145.407C128.52 145.933 129.877 146.693 131.503 147.71C133.422 148.889 135.242 150.219 136.949 151.688C137.952 152.563 138.89 153.51 139.755 154.521C140.685 155.611 141.467 156.819 142.08 158.114C143.309 160.801 143.755 163.603 144.131 166.101L144.259 167.029L144.431 167.913C144.542 168.501 144.652 169.075 144.758 169.628C144.966 170.733 145.161 171.762 145.342 172.721L146.173 177.181C146.266 177.698 146.341 178.105 146.389 178.396L146.442 178.715C146.446 178.747 146.446 178.78 146.442 178.812Z" fill="#263238"/>
<path d="M152.868 132.903C151.984 134.229 149.478 133.58 149.332 132.019C149.187 130.459 151.507 129.328 152.638 130.446C153.034 125.808 152.561 121.138 151.242 116.674C150.981 117.59 150.54 118.444 149.947 119.189C149.306 119.887 148.276 120.325 147.388 119.989C146.185 119.547 145.832 117.889 146.331 116.705C146.831 115.52 147.914 114.703 148.948 113.942C148.119 112.387 146.98 111.019 145.602 109.92C144.224 108.822 142.636 108.017 140.935 107.556C139.609 109.713 138.252 111.918 137.651 114.38C137.05 116.842 137.324 119.657 138.977 121.589C139.675 122.411 140.599 123.052 141.142 123.984C141.686 124.917 141.646 126.34 140.701 126.844C139.578 127.432 138.309 126.322 137.673 125.222C137.036 124.121 136.387 122.778 135.132 122.57C134.81 126.963 135.686 131.36 137.667 135.294C139.648 139.228 142.659 142.551 146.38 144.908L146.252 144.788C149.213 141.297 151.461 137.26 152.868 132.903ZM147.122 123.215C147.792 122.605 148.589 122.152 149.456 121.889C149.629 121.823 149.819 121.813 149.998 121.861C150.178 121.908 150.337 122.011 150.455 122.154C150.57 122.3 150.653 122.468 150.697 122.648C150.741 122.828 150.746 123.015 150.711 123.198C150.641 123.564 150.49 123.909 150.269 124.21C149.942 124.717 149.484 125.126 148.943 125.394C148.667 125.523 148.365 125.59 148.059 125.59C147.754 125.59 147.452 125.523 147.176 125.394C146.983 125.304 146.817 125.166 146.693 124.992C146.57 124.818 146.494 124.616 146.473 124.404C146.49 124.172 146.555 123.947 146.665 123.742C146.774 123.537 146.926 123.358 147.109 123.215H147.122Z" fill="#E50D7E"/>
<path d="M148.095 178.812C148.09 178.766 148.09 178.72 148.095 178.675C148.095 178.573 148.095 178.436 148.095 178.268C148.095 177.901 148.06 177.384 148.038 176.712C147.98 175.351 147.905 173.402 147.808 170.998C147.596 166.171 147.256 159.506 146.712 152.152C146.168 144.797 145.541 138.154 145.015 133.354C144.758 130.95 144.524 129.01 144.361 127.67C144.285 127.007 144.224 126.49 144.184 126.123C144.184 125.955 144.153 125.823 144.14 125.721C144.132 125.676 144.132 125.63 144.14 125.584L144.166 125.717C144.166 125.818 144.201 125.951 144.224 126.119C144.277 126.481 144.347 127.003 144.44 127.657C144.626 128.983 144.882 130.937 145.156 133.337C145.722 138.136 146.38 144.784 146.924 152.138C147.468 159.493 147.782 166.162 147.963 170.993C148.051 173.406 148.1 175.36 148.126 176.712C148.126 177.38 148.126 177.901 148.126 178.268V178.67C148.12 178.718 148.11 178.766 148.095 178.812Z" fill="#263238"/>
<path d="M133.944 170.684L137.471 185.645H155.963L159.87 170.684H133.944Z" fill="#455A64"/>
<path d="M139.76 182.502C139.76 182.785 141.187 191.364 141.187 191.364H152.436L153.673 182.502H139.76Z" fill="#455A64"/>
<path d="M155.449 185.579C155.449 185.632 151.414 185.676 146.437 185.676C141.461 185.676 137.425 185.632 137.425 185.579C137.425 185.526 141.461 185.477 146.437 185.477C151.414 185.477 155.449 185.521 155.449 185.579Z" fill="#263238"/>
<path d="M157.372 179.546C157.372 179.599 152.616 179.643 146.764 179.643C140.912 179.643 136.157 179.599 136.157 179.546C136.157 179.493 140.917 179.448 146.764 179.448C152.612 179.448 157.372 179.493 157.372 179.546Z" fill="#263238"/>
<path d="M156.542 181.627C156.542 181.685 152.06 181.729 146.54 181.729C141.02 181.729 136.534 181.685 136.534 181.627C136.534 181.57 141.015 181.53 146.54 181.53C152.065 181.53 156.542 181.574 156.542 181.627Z" fill="#263238"/>
<path d="M156.462 183.713C156.462 183.766 152.144 183.811 146.818 183.811C141.492 183.811 137.174 183.766 137.174 183.713C137.174 183.66 141.492 183.616 146.818 183.616C152.144 183.616 156.462 183.66 156.462 183.713Z" fill="#263238"/>
<path d="M157.912 177.521C157.912 177.574 152.939 177.619 146.805 177.619C140.67 177.619 135.702 177.574 135.702 177.521C135.702 177.468 140.67 177.424 146.805 177.424C152.939 177.424 157.912 177.468 157.912 177.521Z" fill="#263238"/>
<path d="M158.266 175.855C158.266 175.908 153.2 175.952 146.955 175.952C140.71 175.952 135.641 175.908 135.641 175.855C135.641 175.802 140.706 175.753 146.955 175.753C153.205 175.753 158.266 175.798 158.266 175.855Z" fill="#263238"/>
<path d="M188.284 191.377C188.284 191.444 146.127 191.492 94.1418 191.492C42.1561 191.492 0 191.444 0 191.377C0 191.311 42.1472 191.262 94.1418 191.262C146.136 191.262 188.284 191.315 188.284 191.377Z" fill="#263238"/>
<path d="M90.7397 172.443L89.542 188.328L82.6338 188.186L81.688 171.656L90.7397 172.443Z" fill="#FFBE9D"/>
<path d="M89.7575 186.233V186.675C89.7575 186.675 97.5187 189.879 97.5894 191.355L82.1201 191.134L82.4074 185.99C83.5433 186.555 84.7877 186.87 86.056 186.912C87.3243 186.954 88.5867 186.722 89.7575 186.233Z" fill="#E50D7E"/>
<path d="M92.1933 189.136C92.1358 189.136 92.0474 188.814 92.2242 188.451C92.401 188.089 92.7148 187.952 92.7413 188.009C92.7678 188.067 92.5734 188.257 92.4319 188.557C92.2905 188.858 92.2596 189.132 92.1933 189.136Z" fill="#263238"/>
<path d="M83.9456 187.678C83.7979 187.724 83.6719 187.822 83.5907 187.953C83.5094 188.085 83.4785 188.241 83.5036 188.394C83.5443 188.543 83.6397 188.671 83.7707 188.753C83.9018 188.835 84.0589 188.865 84.2108 188.836C84.3685 188.789 84.5033 188.685 84.5896 188.545C84.676 188.405 84.7079 188.238 84.6793 188.076C84.625 187.922 84.5129 187.795 84.3669 187.723C84.2209 187.65 84.0524 187.637 83.897 187.687" fill="white"/>
<path d="M89.8056 186.741C89.8056 186.816 89.4255 186.847 89.0498 187.086C88.6741 187.324 88.4708 187.634 88.4045 187.603C88.3382 187.572 88.4531 187.139 88.9128 186.86C89.3724 186.582 89.8233 186.675 89.8056 186.741Z" fill="#263238"/>
<path d="M91.4193 187.435C91.4193 187.51 91.11 187.634 90.8492 187.948C90.5884 188.261 90.5089 188.602 90.4337 188.597C90.3586 188.593 90.3144 188.155 90.6459 187.78C90.9774 187.404 91.4193 187.364 91.4193 187.435Z" fill="#263238"/>
<path d="M82.1201 191.165L82.1864 189.994L97.1077 190.652C97.348 190.838 97.5154 191.103 97.5806 191.399L82.1201 191.165Z" fill="#263238"/>
<path d="M126.951 34.417C126.951 34.417 129.846 31.5574 130.615 31.0756C131.384 30.5939 132.33 29.511 132.926 29.2635C133.61 28.9094 134.27 28.5107 134.902 28.0702L136.078 26.616C136.078 26.616 136.962 26.5232 136.767 27.5L138.955 27.058C138.955 27.058 139.543 27.5663 138.61 28.1674C138.157 28.5148 137.587 28.6732 137.019 28.6094L136.1 29.6348L136.259 30.174L141.563 30.8679C141.537 31.1094 141.423 31.3329 141.243 31.4959C141.062 31.6589 140.829 31.75 140.586 31.7519C139.702 31.7519 136.502 31.6148 136.502 31.6148L141.434 33.4756C141.434 33.4756 141.695 34.2314 140.153 34.0104C138.8 33.7624 137.463 33.4363 136.148 33.0336L135.706 33.4225L137.054 34.2093L138.314 35.8357C138.045 35.9562 137.744 35.9865 137.457 35.9219C137.169 35.8574 136.91 35.7016 136.718 35.4777L135.905 34.6822H134.725C134.725 34.6822 131.516 36.923 130.442 36.4015L129.532 37.3164L126.951 34.417Z" fill="#FFBE9D"/>
<path d="M136.351 30.532C136.377 30.532 136.47 30.7309 136.532 31.0845C136.61 31.5561 136.574 32.0397 136.426 32.4944C136.276 32.9559 135.977 33.3551 135.577 33.6303C135.281 33.8424 135.065 33.9087 135.051 33.8822C135.038 33.8557 135.219 33.7363 135.493 33.5021C135.831 33.2162 136.083 32.8432 136.223 32.4237C136.532 31.4204 136.267 30.5408 136.351 30.532Z" fill="#EB996E"/>
<path d="M131.835 34.3154C132.314 34.2579 132.77 34.0799 133.161 33.7982C133.585 33.4732 133.933 33.0581 134.177 32.5828C134.483 31.9681 134.726 31.3239 134.902 30.6602V30.6337L134.929 30.6071C135.561 30.0598 136.06 29.3749 136.387 28.605C136.548 28.215 136.652 27.8043 136.697 27.3851C136.714 27.2068 136.66 27.0289 136.546 26.8901C136.426 26.7806 136.267 26.7221 136.104 26.7266L136.184 26.6779C135.496 27.7342 134.614 28.6506 133.585 29.3784C133.29 29.586 132.98 29.7707 132.657 29.9309C132.543 29.9954 132.421 30.0445 132.295 30.0768C132.295 30.0458 132.776 29.8204 133.506 29.2679C134.491 28.5184 135.336 27.6013 136.003 26.5586L136.034 26.51H136.087C136.202 26.501 136.318 26.5164 136.427 26.5553C136.536 26.5941 136.635 26.6555 136.719 26.7354C136.797 26.8249 136.857 26.9294 136.894 27.0426C136.932 27.1557 136.946 27.2753 136.935 27.394C136.894 27.8408 136.785 28.2788 136.613 28.6934C136.27 29.4992 135.743 30.2136 135.075 30.7795L135.114 30.7265C134.926 31.4001 134.666 32.0519 134.341 32.6712C134.077 33.165 133.7 33.5892 133.24 33.9087C132.943 34.1207 132.599 34.2585 132.237 34.3109C132.105 34.3419 131.968 34.3434 131.835 34.3154Z" fill="#EB996E"/>
<path d="M87.7515 55.6099L108.856 46.6686L127.07 33.4888L130.756 37.4047C130.756 37.4047 117.992 50.6995 114.668 53.4133C111.344 56.127 93.3867 67.5566 93.3867 67.5566L87.7515 55.6099Z" fill="#E50D7E"/>
<path d="M99.8883 58.3104C99.349 58.1863 98.7847 58.2295 98.2706 58.4342C98.1027 58.5182 97.9303 58.7038 98.0231 58.8762C98.0806 58.9778 98.2176 59.0043 98.3325 59.0264C100.427 59.3491 102.31 59.9767 104.401 60.3038L104.754 60.1535C103.247 59.2717 101.602 58.6487 99.8883 58.3104Z" fill="#FAFAFA"/>
<path d="M103.676 57.0331C104.019 58.0732 104.463 59.0769 105.002 60.0298L105.21 59.9104C105.252 58.8506 105.19 57.7891 105.024 56.7414C104.899 55.7249 104.468 54.7706 103.787 54.0056C103.428 54.9772 103.39 56.0379 103.676 57.0331Z" fill="#FAFAFA"/>
<path d="M107.119 55.8486C106.677 57.0817 106.257 58.2662 105.793 59.4994L106.677 58.5933C107.5 57.5615 108.156 56.4072 108.622 55.1724C108.677 55.0317 108.702 54.8813 108.697 54.7304C108.691 54.6529 108.666 54.5782 108.622 54.5138C108.579 54.4494 108.519 54.3976 108.449 54.3636C108.366 54.3421 108.278 54.3413 108.194 54.3613C108.11 54.3814 108.032 54.4216 107.968 54.4785C107.557 54.8424 107.262 55.3188 107.119 55.8486Z" fill="#FAFAFA"/>
<path d="M121.986 41.166C122.477 41.1626 122.956 41.0083 123.356 40.724C123.485 40.6179 123.595 40.4146 123.48 40.282C123.438 40.2493 123.389 40.2264 123.337 40.2149C123.285 40.2034 123.231 40.2037 123.18 40.2157C121.301 40.3837 119.542 40.2422 117.664 40.4102L117.39 40.6135C118.88 41.0558 120.434 41.2426 121.986 41.166Z" fill="#FAFAFA"/>
<path d="M118.959 43.0886C118.448 42.2615 117.856 41.4871 117.191 40.7771L117.037 40.9273C117.228 41.8513 117.509 42.7543 117.876 43.6234C118.201 44.4766 118.779 45.2095 119.534 45.7228C119.628 44.8059 119.427 43.8829 118.959 43.0886Z" fill="#FAFAFA"/>
<path d="M116.242 44.8477C116.361 43.6897 116.472 42.5759 116.591 41.4179L116.039 42.3815C115.551 43.4513 115.231 44.5904 115.093 45.7582C115.074 45.8958 115.085 46.0359 115.124 46.1692C115.144 46.2362 115.183 46.2963 115.235 46.3431C115.287 46.3898 115.351 46.4214 115.42 46.4344C115.497 46.4349 115.572 46.4166 115.64 46.3811C115.708 46.3457 115.766 46.2942 115.809 46.2311C116.087 45.8232 116.238 45.3416 116.242 44.8477Z" fill="#FAFAFA"/>
<path d="M45.5948 148.355L29.6084 153.601L26.9565 146.804L42.7087 139.197L45.5948 148.355Z" fill="#FFBE9D"/>
<path d="M31.7398 152.969L31.2978 153.151C31.2978 153.151 31.2978 162.021 29.8924 162.684L23.8682 147.498L29.004 145.694C28.912 147.032 29.1087 148.374 29.5808 149.629C30.0528 150.884 30.7891 152.024 31.7398 152.969Z" fill="#E50D7E"/>
<path d="M27.9813 147.878C27.8789 147.747 27.7317 147.66 27.5683 147.632C27.4049 147.604 27.2371 147.638 27.0974 147.727C26.9619 147.826 26.8701 147.973 26.8412 148.138C26.8123 148.303 26.8487 148.473 26.9427 148.611C27.0523 148.747 27.2081 148.837 27.3802 148.865C27.5523 148.893 27.7286 148.856 27.8753 148.762C28.0021 148.645 28.0792 148.484 28.0907 148.312C28.1022 148.14 28.0472 147.97 27.9371 147.838" fill="white"/>
<path d="M23.8682 147.498L25.1057 147.056L30.4095 161.769C30.4095 161.769 30.4095 162.565 29.8791 162.675L23.8682 147.498Z" fill="#263238"/>
<path d="M31.2654 153.221C31.1902 153.248 31.009 152.89 30.6245 152.62C30.24 152.351 29.8555 152.28 29.8555 152.2C29.8555 152.121 30.3284 152.059 30.788 152.395C31.2477 152.731 31.3405 153.208 31.2654 153.221Z" fill="#263238"/>
<path d="M31.24 155.077C31.1737 155.122 30.9218 154.852 30.5063 154.724C30.0908 154.596 29.7328 154.653 29.7063 154.578C29.6798 154.503 30.082 154.291 30.5903 154.459C31.0986 154.627 31.3107 155.047 31.24 155.077Z" fill="#263238"/>
<path d="M29.6929 156.739C29.6487 156.677 29.9802 156.426 30.462 156.457C30.9437 156.487 31.2443 156.766 31.1912 156.823C31.1382 156.881 30.8421 156.753 30.4443 156.731C30.0465 156.708 29.7283 156.81 29.6929 156.739Z" fill="#263238"/>
<path d="M88.6659 111.98C88.6659 111.98 76.9446 135.847 73.7977 137.681C70.6508 139.515 34.4173 152.412 34.4173 152.412L31.6284 143.803L64.4189 126.486C64.4189 126.486 68.7017 114.809 70.2973 105.938C71.274 100.502 73.5149 97.3152 76.7369 93.081C77.7225 91.786 79.3888 89.9341 80.2418 89.364L94.973 92.1528L88.6659 111.98Z" fill="#263238"/>
<path d="M99.0263 92.8954L83.2078 90.2435L79.999 108.842L83.2122 147.9C83.2122 147.9 81.0023 161.477 81.378 170.41C81.7183 178.834 82.0454 182.012 82.0454 182.012C82.0454 182.012 88.8475 182.043 90.3944 182.043C91.0441 182.043 96.8561 139.767 96.8561 139.767L99.0263 92.8954Z" fill="#263238"/>
<path d="M91.7821 103.096C91.7532 103.19 91.7177 103.281 91.676 103.37C91.5921 103.569 91.4816 103.812 91.3401 104.148L90.0893 106.99C89.0374 109.417 87.601 112.736 86.0187 116.395C84.4364 120.055 82.8276 123.33 81.5989 125.65C80.9845 126.808 80.4763 127.741 80.105 128.377L79.663 129.107C79.6186 129.194 79.5653 129.277 79.5039 129.354C79.5335 129.26 79.5736 129.17 79.6232 129.085C79.7249 128.895 79.8531 128.643 80.0122 128.333L81.4354 125.575C82.6199 123.237 84.1801 119.967 85.7844 116.294C87.3888 112.621 88.8385 109.328 89.9391 106.924C90.4871 105.73 90.9379 104.767 91.265 104.108L91.6407 103.353C91.6773 103.262 91.7248 103.176 91.7821 103.096Z" fill="#455A64"/>
<path d="M33.3608 145.571C33.3873 145.628 33.184 145.778 32.9188 145.911C32.6536 146.044 32.4017 146.105 32.3707 146.048C32.3398 145.99 32.5475 145.836 32.8127 145.703C33.0779 145.571 33.3298 145.522 33.3608 145.571Z" fill="#455A64"/>
<path d="M37.3171 143.666C37.348 143.723 36.9237 143.984 36.3801 144.249C36.0632 144.444 35.7097 144.572 35.3414 144.625C35.3105 144.567 35.7348 144.306 36.2784 144.041C36.5953 143.846 36.9488 143.719 37.3171 143.666Z" fill="#455A64"/>
<path d="M41.2727 141.739C41.3036 141.796 40.8793 142.057 40.3356 142.326C40.0184 142.521 39.6652 142.651 39.297 142.706C39.2661 142.649 39.6904 142.384 40.234 142.119C40.5513 141.924 40.9045 141.794 41.2727 141.739Z" fill="#455A64"/>
<path d="M45.2154 139.825C44.6317 140.28 43.9608 140.611 43.2441 140.797C43.8236 140.335 44.496 140.003 45.2154 139.825Z" fill="#455A64"/>
<path d="M49.1486 137.845C49.1795 137.902 48.7596 138.167 48.216 138.441C47.9012 138.639 47.5492 138.77 47.1818 138.826C47.1508 138.768 47.5707 138.503 48.1144 138.234C48.4295 138.036 48.7812 137.904 49.1486 137.845Z" fill="#455A64"/>
<path d="M53.0771 135.869C53.1081 135.927 52.6882 136.192 52.149 136.466C51.835 136.667 51.4829 136.801 51.1147 136.859C51.3812 136.6 51.6968 136.397 52.0429 136.262C52.3573 136.062 52.7092 135.928 53.0771 135.869Z" fill="#455A64"/>
<path d="M57.0156 133.858C56.441 134.329 55.7739 134.674 55.0576 134.87C55.3205 134.606 55.6349 134.398 55.9814 134.26C56.2961 134.059 56.6476 133.922 57.0156 133.858Z" fill="#455A64"/>
<path d="M60.8792 131.803C60.9102 131.86 60.4991 132.134 59.9643 132.422C59.6566 132.63 59.3088 132.771 58.9434 132.837C59.2041 132.572 59.5151 132.362 59.8583 132.218C60.166 132.01 60.5137 131.869 60.8792 131.803Z" fill="#455A64"/>
<path d="M64.711 129.659C64.742 129.712 64.3442 130.004 63.8271 130.309C63.5245 130.526 63.1796 130.676 62.8149 130.751C63.0642 130.479 63.3646 130.258 63.6989 130.101C64.0009 129.883 64.346 129.733 64.711 129.659Z" fill="#455A64"/>
<path d="M67.1015 126.371C67.1421 126.738 67.1166 127.109 67.0264 127.467C67.0045 127.603 66.9898 127.74 66.9822 127.878C66.9803 127.908 66.9803 127.937 66.9822 127.966C66.9858 128.015 66.9733 128.063 66.9468 128.104C66.9138 128.157 66.8737 128.206 66.8275 128.249C66.6684 128.391 66.5535 128.435 66.5314 128.413C66.5093 128.391 66.5933 128.294 66.7038 128.139C66.7331 128.103 66.7569 128.063 66.7745 128.02C66.7769 128.008 66.7769 127.996 66.7745 127.984C66.7689 127.951 66.7689 127.916 66.7745 127.883C66.7614 127.735 66.7614 127.588 66.7745 127.441C66.7992 127.063 66.9112 126.697 67.1015 126.371Z" fill="#455A64"/>
<path d="M68.1225 122.093C68.1458 122.465 68.0932 122.838 67.9678 123.189C67.9139 123.557 67.7845 123.911 67.5877 124.227C67.5648 123.855 67.6174 123.482 67.7424 123.131C67.7986 122.763 67.9279 122.41 68.1225 122.093Z" fill="#455A64"/>
<path d="M69.2502 117.845C69.2071 118.584 69.0131 119.306 68.68 119.967C68.6602 119.595 68.7189 119.223 68.8524 118.875C68.9135 118.508 69.0489 118.158 69.2502 117.845Z" fill="#455A64"/>
<path d="M70.4295 113.607C70.3836 114.347 70.1802 115.068 69.8328 115.724C69.8194 115.352 69.8826 114.982 70.0185 114.636C70.0841 114.269 70.224 113.918 70.4295 113.607Z" fill="#455A64"/>
<path d="M71.649 109.381C71.659 109.754 71.5913 110.124 71.4501 110.469C71.3824 110.835 71.2411 111.184 71.0347 111.494C71.0859 110.754 71.2954 110.033 71.649 109.381Z" fill="#455A64"/>
<path d="M72.9257 105.169C72.8592 105.908 72.6394 106.624 72.2805 107.273C72.2762 106.9 72.3484 106.53 72.4926 106.186C72.5651 105.821 72.7126 105.474 72.9257 105.169Z" fill="#455A64"/>
<path d="M74.3942 101.028C74.3344 101.392 74.2274 101.747 74.076 102.084C73.9856 102.444 73.8215 102.781 73.5942 103.074C73.6118 102.7 73.7034 102.334 73.8638 101.996C73.9465 101.63 74.1302 101.294 74.3942 101.028Z" fill="#455A64"/>
<path d="M76.7634 97.324C76.6589 97.6821 76.4813 98.0147 76.2419 98.3007C75.9016 98.8002 75.5789 99.1847 75.5259 99.1449C75.6318 98.7865 75.8109 98.4539 76.0518 98.1681C76.3922 97.6687 76.7148 97.2886 76.7634 97.324Z" fill="#455A64"/>
<path d="M79.3532 93.7704C79.4062 93.8102 79.1543 94.2124 78.7919 94.7207C78.4294 95.229 78.098 95.5737 78.0449 95.5384C78.1653 95.1853 78.3563 94.8605 78.6062 94.5837C78.9687 94.0975 79.3046 93.7307 79.3532 93.7704Z" fill="#455A64"/>
<path d="M81.3644 91.1407C81.413 91.1805 81.3025 91.4059 81.1169 91.649C80.9313 91.8921 80.7412 92.0512 80.6749 92.0158C80.6086 91.9805 80.7368 91.7506 80.9224 91.5075C81.1081 91.2644 81.3246 91.1009 81.3644 91.1407Z" fill="#455A64"/>
<path d="M83.2342 123.838C83.1723 123.838 83.1016 123.604 83.0795 123.299C83.0574 122.994 83.0795 122.742 83.1502 122.738C83.2209 122.733 83.2828 122.976 83.3049 123.281C83.327 123.586 83.3005 123.834 83.2342 123.838Z" fill="#455A64"/>
<path d="M83.5785 128.404C83.4402 128.043 83.3726 127.659 83.3796 127.273C83.311 126.891 83.3216 126.5 83.4105 126.123C83.5489 126.484 83.6164 126.868 83.6094 127.255C83.6754 127.636 83.6649 128.027 83.5785 128.404Z" fill="#455A64"/>
<path d="M83.8847 132.974C83.7459 132.612 83.6812 132.226 83.6946 131.838C83.6341 131.456 83.6491 131.066 83.7388 130.689C83.8736 131.052 83.9367 131.438 83.9244 131.825C83.9847 132.207 83.9712 132.597 83.8847 132.974Z" fill="#455A64"/>
<path d="M84.1052 137.54C83.9748 137.176 83.9191 136.79 83.9417 136.404C83.8842 136.02 83.9067 135.629 84.008 135.255C84.1932 136.002 84.2263 136.779 84.1052 137.54Z" fill="#455A64"/>
<path d="M84.2108 142.114C84.0926 141.745 84.0476 141.356 84.0782 140.969C84.0346 140.585 84.0677 140.196 84.1754 139.825C84.3407 140.578 84.3527 141.356 84.2108 142.114Z" fill="#455A64"/>
<path d="M84.1803 146.689C84.0749 146.315 84.0419 145.925 84.0831 145.54C84.0501 145.154 84.0952 144.767 84.2157 144.399C84.3217 144.771 84.3548 145.16 84.3129 145.544C84.3461 145.931 84.301 146.32 84.1803 146.689Z" fill="#455A64"/>
<path d="M83.9988 151.263C83.9035 150.888 83.884 150.497 83.9413 150.114C83.9218 149.727 83.9789 149.339 84.1093 148.974C84.2051 149.349 84.2261 149.74 84.1711 150.123C84.1879 150.511 84.1294 150.898 83.9988 151.263Z" fill="#455A64"/>
<path d="M83.6756 155.829C83.582 155.063 83.6406 154.287 83.848 153.544C83.9367 153.921 83.9472 154.312 83.8789 154.693C83.8854 155.081 83.8163 155.467 83.6756 155.829Z" fill="#455A64"/>
<path d="M83.2909 160.386C83.2136 160.007 83.2136 159.616 83.2909 159.237C83.2865 158.851 83.3586 158.468 83.503 158.11C83.5776 158.489 83.5776 158.879 83.503 159.259C83.5073 159.645 83.4352 160.028 83.2909 160.386Z" fill="#455A64"/>
<path d="M82.9293 164.951C82.846 164.574 82.837 164.183 82.9028 163.802C82.8935 163.414 82.9611 163.028 83.1017 162.666C83.185 163.045 83.1955 163.437 83.1326 163.82C83.1414 164.207 83.0723 164.592 82.9293 164.951Z" fill="#455A64"/>
<path d="M82.6823 169.522C82.589 169.146 82.568 168.756 82.6204 168.372C82.6025 167.986 82.6595 167.601 82.7883 167.236C82.8844 167.61 82.9054 167.999 82.8502 168.381C82.8723 168.769 82.8152 169.157 82.6823 169.522Z" fill="#455A64"/>
<path d="M82.6508 174.1C82.5334 173.731 82.4928 173.341 82.5315 172.956C82.4923 172.569 82.5283 172.179 82.6376 171.806C82.7542 172.176 82.7963 172.565 82.7613 172.951C82.7969 173.338 82.7594 173.728 82.6508 174.1Z" fill="#455A64"/>
<path d="M82.8942 178.666C82.754 178.306 82.6864 177.921 82.6953 177.535C82.6264 177.153 82.6369 176.762 82.7262 176.385C82.9345 177.127 82.9916 177.902 82.8942 178.666Z" fill="#455A64"/>
<path d="M83.3268 182.043C83.2649 182.043 83.1765 181.817 83.1323 181.512C83.0881 181.207 83.0969 180.96 83.1632 180.951C83.2295 180.942 83.3135 181.181 83.3577 181.481C83.4019 181.782 83.3886 182.034 83.3268 182.043Z" fill="#455A64"/>
<path d="M88.1522 92.975C88.0937 93.1327 88.0134 93.2815 87.9136 93.417C87.6723 93.8068 87.4096 94.1831 87.1268 94.544C86.2079 95.766 85.0289 96.7684 83.675 97.4788C82.2952 98.1754 80.7196 98.3827 79.2066 98.0666C78.7539 97.9671 78.3178 97.8034 77.9116 97.5804C77.7592 97.5083 77.619 97.4128 77.4961 97.2975C78.0532 97.5659 78.6389 97.7705 79.2419 97.9075C80.7166 98.1679 82.2359 97.9447 83.5733 97.271C84.8962 96.5718 86.0619 95.6092 86.9987 94.4424C87.7368 93.5672 88.1213 92.975 88.1522 92.975Z" fill="#455A64"/>
<path d="M96.0479 93.2578C96.0334 93.6854 95.9681 94.1097 95.8534 94.5218C95.6217 95.5294 95.3053 96.5156 94.9076 97.4699C94.5084 98.4243 94.0278 99.3425 93.4712 100.215C93.2573 100.586 93.0007 100.932 92.7065 101.244C92.8893 100.86 93.0975 100.488 93.3297 100.131C94.3584 98.3577 95.1532 96.4591 95.6943 94.4821C95.7863 94.0669 95.9044 93.658 96.0479 93.2578Z" fill="#455A64"/>
<path d="M94.1423 93.6291C94.1423 93.6645 93.9301 93.6821 93.7843 93.9429C93.747 94.0096 93.7238 94.0833 93.7162 94.1593C93.7086 94.2353 93.7167 94.3121 93.7401 94.3849C93.7824 94.4654 93.846 94.5328 93.9239 94.5799C94.0018 94.6269 94.0911 94.6518 94.182 94.6518C94.273 94.6518 94.3623 94.6269 94.4402 94.5799C94.5181 94.5328 94.5817 94.4654 94.624 94.3849C94.6462 94.3118 94.6533 94.2349 94.645 94.1589C94.6366 94.083 94.6129 94.0095 94.5754 93.9429C94.4296 93.6866 94.2086 93.6689 94.2174 93.6335C94.2262 93.5982 94.2704 93.6026 94.3677 93.6335C94.5064 93.6691 94.6283 93.7519 94.7124 93.8678C94.7777 93.9552 94.8221 94.0565 94.842 94.1638C94.8619 94.2711 94.8569 94.3815 94.8273 94.4865C94.7736 94.6139 94.6835 94.7226 94.5684 94.799C94.4532 94.8754 94.3181 94.9162 94.1798 94.9162C94.0416 94.9162 93.9065 94.8754 93.7913 94.799C93.6761 94.7226 93.5861 94.6139 93.5323 94.4865C93.5017 94.3816 93.4962 94.271 93.5161 94.1635C93.5361 94.056 93.581 93.9547 93.6473 93.8678C93.729 93.7506 93.8495 93.666 93.9876 93.6291C94.1025 93.5982 94.1423 93.6158 94.1423 93.6291Z" fill="#455A64"/>
<path d="M72.2555 36.0479C70.8171 35.3397 69.1569 35.23 67.6378 35.7427C66.1188 36.2554 64.8646 37.3488 64.1496 38.7837C63.4468 40.2025 63.2656 41.9174 62.2181 43.0931C61.2679 44.1405 59.8138 44.5251 58.4746 44.9803C57.1354 45.4355 55.7122 46.1339 55.1862 47.451C54.7443 48.5736 55.0404 49.9526 54.3553 50.947C53.6702 51.9415 52.2471 52.1315 51.0184 52.2111C51.0859 52.4865 51.24 52.733 51.458 52.9143C51.6759 53.0957 51.9463 53.2024 52.2294 53.2188C51.3307 53.7376 50.2916 53.9602 49.2593 53.8553C49.5863 55.3492 50.9034 56.4762 52.3531 56.9491C53.8028 57.4221 55.3674 57.4176 56.8923 57.3204C58.6204 57.2143 60.4679 56.9712 61.7541 55.8177C63.3054 54.4298 63.796 51.9194 65.7009 51.0708C66.6733 50.6288 67.8269 50.7526 68.7948 50.3017C70.1207 49.683 70.7837 48.136 70.9296 46.6731C71.0754 45.2101 70.8367 43.7339 70.9296 42.2533C71.0224 40.7727 71.6058 39.2257 72.8831 38.5009L72.2555 36.0479Z" fill="#263238"/>
<path d="M72.5911 35.6147C72.7193 35.3318 72.3922 35.0092 72.0784 35.0225C71.7675 35.0762 71.4882 35.245 71.2961 35.4954C70.5068 36.3076 69.9947 37.3488 69.8332 38.4699C69.7579 39.0307 69.8123 39.6013 69.9924 40.1377C70.1725 40.6741 70.4734 41.162 70.8718 41.5638C71.042 41.7561 71.2791 41.8763 71.5348 41.8997C71.6683 41.8909 71.7975 41.8492 71.9109 41.7782C72.0243 41.7072 72.1183 41.6093 72.1845 41.4931C72.3146 41.2601 72.4015 41.0056 72.4409 40.7417C72.786 39.0365 72.9137 37.2945 72.821 35.5573L72.5911 35.6147Z" fill="#E50D7E"/>
<path d="M71.2466 41.5328C71.2466 38.3727 71.7549 35.0181 73.7924 32.6093C75.6089 30.4657 78.6807 29.0734 81.4563 28.6314C82.9246 28.4792 84.4084 28.6543 85.801 29.1441C87.6087 29.7276 88.6739 31.4424 89.8053 32.9717C92.0683 36.0302 92.8108 40.6489 92.0152 42.1384L79.4232 52.5072C76.652 51.7205 73.5626 50.5095 72.3515 47.9018C71.5029 46.125 71.2554 43.4731 71.2466 41.5328Z" fill="#263238"/>
<path d="M75.4726 35.3496L83.8261 30.89C86.6017 29.8823 89.3685 32.9276 90.2569 35.7518C91.2469 38.881 92.3298 42.7439 92.5419 45.2146C92.9839 50.1736 89.4481 51.6852 89.4481 51.6852L91.1541 57.2895L93.1121 63.5214L80.4317 56.0077L74.381 37.4225C74.2704 37.003 74.3212 36.5574 74.5233 36.1736C74.7255 35.7898 75.0642 35.4957 75.4726 35.3496Z" fill="#FFBE9D"/>
<path d="M90.1246 38.987C90.1665 39.147 90.1436 39.317 90.0609 39.4602C89.9781 39.6034 89.8422 39.7081 89.6826 39.7516C89.6064 39.7775 89.5257 39.7877 89.4454 39.7816C89.3651 39.7755 89.2868 39.7532 89.2154 39.716C89.1439 39.6788 89.0808 39.6276 89.0297 39.5653C88.9785 39.5031 88.9406 39.4312 88.918 39.3539C88.8773 39.1939 88.9007 39.0244 88.9833 38.8815C89.0659 38.7387 89.2011 38.6338 89.36 38.5892C89.4363 38.564 89.5168 38.5543 89.5969 38.5607C89.677 38.5671 89.755 38.5895 89.8263 38.6266C89.8976 38.6637 89.9607 38.7147 90.012 38.7766C90.0632 38.8385 90.1015 38.9101 90.1246 38.987Z" fill="#263238"/>
<path d="M89.8108 37.4357C89.7666 37.5418 89.1964 37.3783 88.56 37.6169C87.9235 37.8556 87.5744 38.3462 87.4771 38.2932C87.3799 38.2401 87.4771 38.1031 87.6009 37.8777C87.8073 37.5866 88.097 37.3647 88.4318 37.2413C88.7629 37.1162 89.1255 37.1007 89.466 37.1971C89.7224 37.2855 89.8329 37.3915 89.8108 37.4357Z" fill="#263238"/>
<path d="M84.1124 40.7417C84.1532 40.9016 84.1297 41.0711 84.0471 41.214C83.9646 41.3569 83.8294 41.4618 83.6704 41.5063C83.5939 41.5316 83.513 41.5414 83.4326 41.535C83.3522 41.5286 83.2739 41.5063 83.2022 41.4692C83.1306 41.4322 83.0671 41.3812 83.0154 41.3192C82.9638 41.2573 82.925 41.1856 82.9014 41.1085C82.8607 40.9486 82.8841 40.7791 82.9667 40.6362C83.0493 40.4933 83.1845 40.3884 83.3434 40.3439C83.42 40.3192 83.5007 40.3099 83.5809 40.3166C83.6611 40.3232 83.7392 40.3457 83.8107 40.3827C83.8822 40.4196 83.9457 40.4704 83.9975 40.532C84.0492 40.5936 84.0883 40.6649 84.1124 40.7417Z" fill="#263238"/>
<path d="M83.5036 39.3715C83.4506 39.4687 82.8981 39.2433 82.244 39.4069C81.5898 39.5704 81.1832 40.0212 81.0904 39.9549C80.9976 39.8886 81.0904 39.7649 81.2628 39.5616C81.4946 39.2948 81.8034 39.1064 82.1467 39.0223C82.4887 38.9347 82.8497 38.9595 83.1765 39.0931C83.4285 39.1991 83.5345 39.3273 83.5036 39.3715Z" fill="#263238"/>
<path d="M87.0716 43.9992C87.3926 43.8106 87.7355 43.6622 88.0926 43.5572C88.2605 43.4953 88.4108 43.4246 88.4108 43.3008C88.3823 43.1235 88.2988 42.9597 88.1722 42.8323C87.9158 42.4611 87.6418 42.0765 87.3589 41.6743C86.2186 40.0213 85.3479 38.6424 85.4142 38.5805C85.4805 38.5186 86.4617 39.8401 87.602 41.4931L88.3976 42.66C88.5532 42.838 88.6423 43.0645 88.6495 43.3008C88.6391 43.366 88.6143 43.428 88.5768 43.4823C88.5393 43.5366 88.4901 43.5818 88.4329 43.6146C88.3465 43.6628 88.2545 43.6999 88.1589 43.7251C87.8096 43.8623 87.4442 43.9543 87.0716 43.9992Z" fill="#263238"/>
<path d="M89.4569 51.6806C87.2206 52.2705 84.8646 52.2291 82.6504 51.5613C82.6504 51.5613 85.152 54.474 89.8193 52.843L89.4569 51.6806Z" fill="#EB996E"/>
<path d="M85.2008 45.7671C85.2598 45.5968 85.3601 45.4438 85.4928 45.3219C85.6255 45.2 85.7864 45.113 85.9611 45.0687C86.2021 44.9913 86.4594 44.9796 86.7064 45.0347C86.9535 45.0899 87.1813 45.21 87.3665 45.3825C87.5096 45.5496 87.5852 45.7639 87.5787 45.9836C87.5566 46.103 87.5787 46.0411 87.5168 46.1339C87.3129 46.4827 87.0259 46.7757 86.6815 46.9869C86.493 47.087 86.2786 47.1279 86.0665 47.1042C85.8544 47.0806 85.6544 46.9935 85.4925 46.8543C85.3485 46.7175 85.245 46.5436 85.1936 46.3518C85.1421 46.1599 85.1446 45.9576 85.2008 45.7671Z" fill="#EB996E"/>
<path d="M85.2446 44.9361C85.3507 44.9007 85.5275 45.6167 86.2656 45.9747C87.0037 46.3327 87.7462 46.0631 87.7771 46.1604C87.8081 46.2576 87.6401 46.3416 87.3352 46.43C86.9176 46.5393 86.475 46.4986 86.0844 46.3151C85.7107 46.1359 85.4209 45.8191 85.2755 45.4311C85.1606 45.1394 85.196 44.9449 85.2446 44.9361Z" fill="#263238"/>
<path d="M83.3035 37.7274C83.3035 37.9263 82.6052 38.0014 81.8538 38.2887C81.1025 38.576 80.5279 38.9384 80.3909 38.8014C80.3246 38.7351 80.3909 38.5407 80.603 38.3064C80.8822 38.0062 81.2293 37.7773 81.6152 37.639C82.0001 37.4952 82.4133 37.4437 82.8218 37.4887C83.1311 37.5462 83.3124 37.6523 83.3035 37.7274Z" fill="#263238"/>
<path d="M89.1126 35.765C89.0331 35.9418 88.5425 35.8976 87.9944 36.0258C87.4464 36.1539 87.0132 36.3749 86.8674 36.2468C86.8011 36.1805 86.8364 36.0125 87.0044 35.8048C87.2299 35.5642 87.5251 35.4004 87.8486 35.3363C88.1701 35.2601 88.5074 35.288 88.8121 35.4158C89.0463 35.5396 89.148 35.6766 89.1126 35.765Z" fill="#263238"/>
<path d="M77.0774 42.9339C77.0023 42.9339 74.209 42.7173 74.8675 45.3825C75.5261 48.0476 78.0674 46.8277 78.0542 46.7526C78.0409 46.6775 77.0774 42.9339 77.0774 42.9339Z" fill="#FFBE9D"/>
<path d="M76.9978 45.9438C76.9978 45.9438 76.958 45.988 76.8873 46.0454C76.7889 46.1202 76.6651 46.1535 76.5425 46.1382C76.2375 46.1073 75.8884 45.7184 75.7558 45.2543C75.6919 45.0271 75.6799 44.7884 75.7204 44.556C75.7245 44.4666 75.7504 44.3796 75.7959 44.3026C75.8413 44.2255 75.905 44.1608 75.9812 44.114C76.031 44.0873 76.0883 44.0785 76.1438 44.089C76.1993 44.0994 76.2495 44.1285 76.2862 44.1714C76.3392 44.2377 76.3348 44.2952 76.3525 44.2952C76.3701 44.2952 76.3967 44.2377 76.3525 44.1317C76.3201 44.0713 76.2689 44.0232 76.2066 43.9946C76.1634 43.9759 76.1167 43.9662 76.0696 43.9662C76.0225 43.9662 75.9758 43.9759 75.9326 43.9946C75.8283 44.0431 75.7384 44.118 75.6717 44.2117C75.6051 44.3055 75.564 44.415 75.5525 44.5294C75.489 44.7863 75.489 45.0548 75.5525 45.3117C75.5997 45.5515 75.7161 45.7723 75.8873 45.9466C76.0585 46.121 76.2771 46.2414 76.516 46.2929C76.5926 46.2949 76.6686 46.28 76.7388 46.2495C76.8091 46.2189 76.8718 46.1734 76.9226 46.1161C77.0066 46.0101 77.0066 45.9482 76.9978 45.9438Z" fill="#EB996E"/>
<path d="M76.3254 47.0444C76.3254 47.0444 76.237 47.1858 76.3254 47.42C76.3448 47.4923 76.3798 47.5594 76.4279 47.6166C76.476 47.6739 76.5361 47.7199 76.6039 47.7515C76.6915 47.7796 76.7847 47.7863 76.8754 47.7709C76.9662 47.7555 77.0519 47.7186 77.1254 47.6631C77.2025 47.6169 77.267 47.5523 77.3132 47.4753C77.3594 47.3982 77.386 47.3109 77.3906 47.2212C77.3861 47.0727 77.3244 46.9317 77.2182 46.8278C77.037 46.6554 76.8646 46.6775 76.8691 46.6908C76.8735 46.704 77.0105 46.7306 77.1475 46.8941C77.222 46.9868 77.2625 47.1022 77.2624 47.2212C77.2559 47.291 77.2329 47.3583 77.1952 47.4175C77.1576 47.4766 77.1064 47.526 77.0458 47.5615C76.9901 47.6045 76.9254 47.6343 76.8565 47.6489C76.7877 47.6634 76.7164 47.6622 76.6481 47.6455C76.5417 47.5966 76.4591 47.5076 76.4182 47.3979C76.3736 47.2841 76.3424 47.1654 76.3254 47.0444Z" fill="#FAFAFA"/>
<path d="M90.5002 35.796C89.9159 35.1391 89.1448 34.6765 88.2903 34.47C87.4506 34.2269 86.571 34.112 85.7313 33.8601C83.7821 33.2705 82.1207 31.9792 81.0684 30.2358C81.6602 29.7553 82.355 29.4179 83.0987 29.25C83.8423 29.0821 84.6147 29.0882 85.3556 29.2679C86.8422 29.6438 88.1545 30.5192 89.0726 31.7474C89.9841 32.9722 90.6176 34.3809 90.9289 35.8755" fill="#263238"/>
<path d="M74.7167 34.554C76.2371 32.2071 79.7155 30.2756 82.4999 30.5364C82.6591 32.8745 81.5718 35.8048 80.4933 37.8865C79.4149 39.9683 79.2337 43.2345 75.72 42.987C75.4769 42.987 75.278 43.2389 75.0349 43.1682C74.8424 43.0851 74.6858 42.9363 74.5929 42.7483C73.8591 41.5028 73.4825 40.0792 73.5043 38.6338C73.5261 37.1883 73.9456 35.7768 74.7167 34.554Z" fill="#263238"/>
<path d="M82.4481 30.7132C82.459 30.9186 82.4471 31.1247 82.4128 31.3275C82.3686 31.7209 82.3067 32.2866 82.2095 32.9894C81.9803 34.8239 81.5823 36.6334 81.0206 38.3948C80.6978 39.3638 80.2849 40.3005 79.7874 41.1925C79.4387 41.9686 78.8642 42.6217 78.1388 43.0665C77.8819 43.2042 77.595 43.2763 77.3035 43.2763C77.012 43.2763 76.7251 43.2042 76.4682 43.0665C76.332 42.99 76.2131 42.8862 76.119 42.7615C76.0571 42.6731 76.035 42.6201 76.0439 42.6157C76.2869 42.9014 76.6243 43.0906 76.9948 43.149C77.3654 43.2074 77.7446 43.1311 78.0637 42.9339C78.7432 42.4843 79.2775 41.8471 79.6018 41.0997C80.0818 40.2124 80.484 39.2852 80.804 38.3285C81.357 36.5777 81.7737 34.7868 82.0504 32.9717C82.1564 32.3087 82.2493 31.7562 82.3244 31.3231C82.3476 31.1165 82.3891 30.9124 82.4481 30.7132Z" fill="#263238"/>
<path d="M53.2857 49.7935C53.2518 49.7057 53.231 49.6134 53.2238 49.5195C53.1956 49.2522 53.2105 48.9821 53.268 48.7195C53.3616 48.2998 53.544 47.905 53.8028 47.5615C54.1437 47.0998 54.6123 46.7479 55.1508 46.5494C55.8172 46.3524 56.5264 46.3524 57.1928 46.5494C57.9119 46.7765 58.6836 46.7765 59.4027 46.5494C60.1705 46.2072 60.7954 45.6088 61.1706 44.8566C61.5822 44.0478 61.8471 43.1724 61.9529 42.271C62.0683 41.3541 62.2455 40.4459 62.4833 39.5528C62.7344 38.7174 63.1524 37.9415 63.712 37.2722C64.5016 36.3196 65.5514 35.6172 66.7333 35.2507C67.9151 34.8842 69.1781 34.8694 70.3682 35.2082C70.6246 35.2825 70.8756 35.374 71.1196 35.4822C71.2064 35.5178 71.2893 35.5623 71.3671 35.6148C71.3671 35.6369 71.0135 35.4601 70.3417 35.2966C69.4008 35.0607 68.419 35.0396 67.4688 35.2347C66.0561 35.5233 64.7866 36.2916 63.8755 37.4092C63.3386 38.0598 62.9374 38.8111 62.6954 39.6191C62.4667 40.5044 62.2955 41.4035 62.1827 42.3108C62.0713 43.236 61.7959 44.134 61.3695 44.9627C60.9671 45.7518 60.3031 46.3767 59.4911 46.7306C59.1024 46.8784 58.6856 46.9373 58.2712 46.903C57.8929 46.867 57.5177 46.8035 57.1486 46.7129C56.5161 46.5121 55.8388 46.4998 55.1995 46.6776C54.685 46.8579 54.2337 47.1834 53.9 47.6146C53.6444 47.9387 53.4579 48.3117 53.352 48.7107C53.2675 49.0651 53.2451 49.4315 53.2857 49.7935Z" fill="#263238"/>
<path d="M71.9409 34.9959C71.9899 34.8518 72.0583 34.715 72.1442 34.5893C72.3642 34.2332 72.6302 33.9077 72.9354 33.6213C73.957 32.68 75.2215 32.0431 76.5861 31.7827C77.9375 31.5366 79.3172 31.4845 80.6833 31.628C81.2048 31.6766 81.6247 31.7252 81.9164 31.7694C82.0672 31.7777 82.216 31.8074 82.3584 31.8578C81.7933 31.866 81.2283 31.8439 80.6656 31.7915C79.3153 31.6971 77.9584 31.7698 76.6259 32.0081C75.3005 32.2634 74.0648 32.8606 73.0414 33.7407C72.6398 34.1272 72.2716 34.5471 71.9409 34.9959Z" fill="#455A64"/>
<path d="M75.6147 30.8546C75.9411 30.6757 76.2929 30.5476 76.6578 30.4745C77.524 30.2493 78.4147 30.132 79.3097 30.1253C79.8041 30.1178 80.2981 30.1548 80.7859 30.2358C81.2025 30.2999 81.5855 30.5023 81.8732 30.8104C82.0672 31.0205 82.1786 31.2936 82.187 31.5794C82.187 31.7783 82.1251 31.88 82.1163 31.8756C82.1074 31.8712 82.1163 31.7651 82.1163 31.5839C82.0747 31.3319 81.9539 31.0997 81.7715 30.9209C81.4959 30.6572 81.1424 30.4898 80.7638 30.4436C80.2882 30.3757 79.8077 30.3476 79.3274 30.3596C78.4498 30.3652 77.5749 30.457 76.7153 30.6336C76.3525 30.7264 75.9852 30.8001 75.6147 30.8546Z" fill="#455A64"/>
<path d="M70.8462 45.683C70.8101 45.6278 70.7846 45.5664 70.771 45.5018C70.7074 45.328 70.6658 45.1468 70.6473 44.9626C70.5805 44.2741 70.7124 43.5808 71.0274 42.9649C71.482 42.0502 72.1676 41.2702 73.0163 40.7019C74.0508 40.0376 75.1205 39.4297 76.2207 38.881C78.1643 37.81 79.8074 36.2673 80.9985 34.3949C81.3615 33.8309 81.6807 33.2399 81.9531 32.6269C82.0418 32.3959 82.1466 32.1714 82.2669 31.9551C82.2588 32.0189 82.2425 32.0813 82.2183 32.1408C82.1786 32.2601 82.1299 32.4413 82.0371 32.6623C81.7956 33.2951 81.4998 33.9058 81.1532 34.4877C79.9802 36.4155 78.3221 38.002 76.3444 39.0887C75.2515 39.6236 74.1864 40.2137 73.1533 40.8566C72.3255 41.3991 71.6488 42.1427 71.1865 43.0179C70.8695 43.606 70.7168 44.2686 70.7445 44.9361C70.771 45.4399 70.8727 45.683 70.8462 45.683Z" fill="#455A64"/>
<path d="M81.3236 63.517C81.2882 63.517 81.2926 63.075 81.1689 62.3501C81.0111 61.4177 80.6909 60.5201 80.2231 59.6982C79.803 58.8578 79.1287 58.1711 78.296 57.7359C77.9355 57.5975 77.5502 57.5358 77.1646 57.5546C77.2608 57.5017 77.3685 57.4729 77.4784 57.4707C77.7787 57.4406 78.0818 57.4831 78.3623 57.5944C79.2578 58.002 79.9853 58.706 80.4219 59.5878C80.9038 60.4271 81.2134 61.3542 81.3324 62.3148C81.4013 62.7128 81.3983 63.12 81.3236 63.517Z" fill="#263238"/>
<path d="M82.8631 55.8043L93.3247 63.8042L90.3237 54.5226L92.8607 55.822C92.8607 55.822 97.3865 64.1931 98.8274 68.4052C99.3878 70.041 99.8048 71.7224 100.074 73.4305C100.41 76.4581 98.7213 79.8436 98.7213 79.8436L100.167 90.7649C100.37 91.9406 99.6053 93.0765 99.0882 93.0765L82.7039 90.8666C80.5692 90.4467 79.6941 89.3285 79.8222 88.091L80.0698 85.8015L73.0688 62.3766C72.6577 63.7644 72.229 59.0087 75.3538 57.864C76.6753 57.3645 80.8521 55.4065 82.8631 55.8043Z" fill="#E50D7E"/>
<path d="M94.5835 60.3612C94.5835 60.3612 94.6365 60.4142 94.7161 60.5292L95.0564 61.0286C95.3481 61.4706 95.7636 62.0982 96.2542 62.8982C97.5833 64.958 98.6522 67.1744 99.4364 69.4969C100.214 71.8427 100.383 74.3475 99.927 76.7763C99.7803 77.5073 99.5504 78.2191 99.242 78.8978C99.1403 79.1409 99.0298 79.3133 98.9679 79.4371C98.9386 79.5004 98.9015 79.5598 98.8574 79.6139C98.8574 79.6139 98.9679 79.3443 99.1624 78.8625C99.4362 78.1787 99.642 77.4696 99.7768 76.7454C100.18 74.3379 99.9915 71.8686 99.2287 69.55C98.4487 67.2453 97.4108 65.0361 96.1348 62.9645L94.999 61.0595L94.6896 60.538C94.6474 60.4834 94.6118 60.4241 94.5835 60.3612Z" fill="#263238"/>
<path d="M96.2411 89.165C95.94 89.6369 95.7861 90.1877 95.7991 90.7473C95.8212 90.9374 95.9405 91.1893 96.1306 91.1407C96.2499 91.1407 96.3251 91.0036 96.3825 90.8976C97.43 89.0147 98.42 87.4103 99.4764 85.5275L99.4278 85.1562C98.14 86.2966 97.0616 87.6533 96.2411 89.165Z" fill="#FAFAFA"/>
<path d="M95.9674 84.6789C97.089 84.7442 98.2144 84.6969 99.3265 84.5375L99.3 84.3474C98.2891 83.9017 97.2384 83.5525 96.1619 83.3044C95.1495 83.0663 94.0885 83.1434 93.1211 83.5254C93.9233 84.2025 94.9202 84.6065 95.9674 84.6789Z" fill="#FAFAFA"/>
<path d="M96.0513 80.9795L99.2027 83.6314L98.5087 82.3674C97.8123 81.2214 96.9414 80.191 95.9276 79.3133C95.8093 79.2061 95.669 79.1261 95.5165 79.079C95.4402 79.055 95.3587 79.0522 95.2809 79.0709C95.203 79.0896 95.1317 79.129 95.0746 79.1851C95.0248 79.2581 94.9935 79.3421 94.9835 79.4299C94.9735 79.5177 94.985 79.6066 95.0171 79.689C95.227 80.2118 95.5868 80.6608 96.0513 80.9795Z" fill="#FAFAFA"/>
<path d="M86.8185 77.7001C87.7025 78.2791 88.5864 78.4647 89.5367 78.8448H89.7223C89.101 78.02 88.3976 77.2603 87.6229 76.5775C86.8389 75.8927 85.8642 75.464 84.8296 75.3488C85.2219 76.3264 85.9195 77.1511 86.8185 77.7001Z" fill="#FAFAFA"/>
<path d="M89.1387 75.057C89.6381 76.2901 90.1243 77.4658 90.6237 78.7034L90.6635 77.4304C90.5808 76.0935 90.2931 74.7773 89.8105 73.5278C89.7526 73.3803 89.6671 73.2453 89.5586 73.13C89.5014 73.0739 89.4301 73.0345 89.3523 73.0158C89.2744 72.9971 89.1929 72.9999 89.1166 73.0239C89.0393 73.064 88.9731 73.1224 88.9238 73.1941C88.8745 73.2658 88.8435 73.3485 88.8337 73.4349C88.7737 73.9939 88.8798 74.5581 89.1387 75.057Z" fill="#FAFAFA"/>
<path d="M95.3349 73.8505C95.3232 73.9721 95.2934 74.0912 95.2465 74.204C95.2091 74.339 95.1603 74.4706 95.1006 74.5974C95.0313 74.7707 94.9532 74.9404 94.8664 75.1057C94.6371 75.5377 94.3662 75.9462 94.0576 76.3255C93.2959 77.2535 92.329 77.9918 91.2333 78.4824C90.7866 78.6756 90.3217 78.8236 89.8455 78.9244C89.5263 78.999 89.2007 79.0434 88.8731 79.057C88.7545 79.075 88.6338 79.075 88.5151 79.057C88.5151 79.0128 89.0234 78.9907 89.8101 78.783C90.2657 78.6588 90.7094 78.4946 91.1361 78.2924C91.6594 78.0454 92.1581 77.7494 92.6256 77.4084C93.0851 77.0498 93.5085 76.6472 93.8896 76.2062C94.1981 75.8433 94.4747 75.4544 94.7161 75.0438C95.136 74.3234 95.2951 73.8372 95.3349 73.8505Z" fill="#263238"/>
<g opacity="0.3">
<path d="M87.5132 79.2205C88.2322 79.7298 89.0883 80.0099 89.9693 80.0241C90.8503 80.0383 91.7151 79.7859 92.4501 79.3C94.0235 78.3144 94.7882 76.6128 94.9915 74.8802C94.2149 76.1781 93.1213 77.2574 91.8131 78.0166C90.505 78.7758 89.0254 79.1901 87.5132 79.2205Z" fill="black"/>
</g>
<g opacity="0.3">
<path d="M77.8146 68.7721L75.8257 71.6008C76.2411 73.1698 76.7892 74.646 77.2047 76.2106C78.1102 73.8393 78.3218 71.2592 77.8146 68.7721Z" fill="black"/>
</g>
<path d="M49.0284 102.009L46.1688 106.553L39.8352 108.444C39.8129 108.233 39.8334 108.019 39.8957 107.815C39.958 107.612 40.0607 107.423 40.1977 107.26C40.6396 106.853 38.8717 107.428 38.8717 107.428L37.5458 110.186C37.5458 110.186 36.6618 110.124 36.7104 109.35C36.759 108.577 37.7623 106.146 37.7623 106.146L38.2353 106.066C38.1624 105.855 38.1408 105.629 38.1723 105.408C38.2038 105.187 38.2875 104.976 38.4165 104.793C38.4648 104.033 38.7117 103.298 39.1325 102.663C39.4863 102.088 39.9243 101.57 40.4319 101.125L45.9655 98.8445L49.0284 102.009Z" fill="#FFBE9D"/>
<path d="M44.5967 105.527C43.9608 105.96 43.2676 106.302 42.537 106.544C41.8325 106.848 41.0886 107.052 40.3271 107.149C40.3271 107.092 41.2951 106.8 42.4707 106.354C43.6464 105.907 44.5702 105.474 44.5967 105.527Z" fill="#EB996E"/>
<path d="M41.1044 104.961C40.5927 105.262 40.0485 105.504 39.4823 105.682C38.9418 105.923 38.3752 106.101 37.7939 106.212C38.3032 105.91 38.8461 105.668 39.4116 105.492C39.9538 105.251 40.5217 105.073 41.1044 104.961Z" fill="#EB996E"/>
<path d="M40.9982 103.582C40.5774 103.808 40.1435 104.009 39.6987 104.184C39.2846 104.422 38.8566 104.636 38.417 104.824C39.1242 104.148 40.028 103.713 40.9982 103.582Z" fill="#EB996E"/>
<path d="M41.0256 102.195C40.703 102.4 40.3573 102.566 39.9958 102.69C39.6612 102.876 39.3069 103.024 38.9395 103.132C39.2098 102.85 39.543 102.636 39.9118 102.508C40.2526 102.316 40.6346 102.209 41.0256 102.195Z" fill="#EB996E"/>
<path d="M78.5984 58.2838C78.9017 58.523 79.1644 58.8096 79.3763 59.1324C79.9224 59.8926 80.328 60.7443 80.5741 61.6473C80.8186 62.5494 80.8979 63.4882 80.8083 64.4185C80.7895 64.805 80.7074 65.1857 80.5653 65.5456C80.5255 65.5456 80.6139 65.1036 80.6448 64.4053C80.7288 62.5748 80.2389 60.7638 79.2437 59.2253C78.8592 58.6374 78.5675 58.3104 78.5984 58.2838Z" fill="#263238"/>
<path d="M76.6668 57.7049C78.1254 57.7049 79.469 59.0529 79.5927 60.507C79.743 62.2308 79.7607 64.7854 78.9077 66.7876C77.4801 70.129 62.9964 87.3087 62.9964 87.3087L49.0342 102.009L45.4365 98.4068C45.4365 98.4068 52.8574 86.2789 53.8651 84.8159C55.9601 81.7619 61.2329 76.383 63.3235 72.8118C65.414 69.2406 70.0857 62.6904 71.4957 61.2628C72.9056 59.8352 74.0901 57.7093 76.6668 57.7049Z" fill="#E50D7E"/>
<path d="M68.0292 74.4427C67.4559 74.4745 66.9057 74.6795 66.4514 75.0305C66.31 75.1631 66.1906 75.4018 66.332 75.5388C66.3816 75.5751 66.4389 75.5996 66.4994 75.6103C66.56 75.621 66.6222 75.6177 66.6812 75.6007C68.869 75.3178 70.8933 75.1587 73.0811 74.8714L73.249 74.6151C71.5323 74.2553 69.766 74.197 68.0292 74.4427Z" fill="#FAFAFA"/>
<path d="M71.5612 71.4903C72.156 72.4107 72.8447 73.2668 73.6164 74.0449L73.7358 73.8416C73.5321 72.803 73.221 71.7884 72.8076 70.8141C72.391 69.8346 71.6826 69.0073 70.7789 68.445C70.7085 69.5175 70.9826 70.5845 71.5612 71.4903Z" fill="#FAFAFA"/>
<path d="M74.6596 69.1433C74.5712 70.5002 74.4961 71.7952 74.4077 73.1609L75.0044 72.0118C75.5264 70.7434 75.847 69.4013 75.9546 68.034C75.9704 67.8714 75.9523 67.7074 75.9016 67.5522C75.8746 67.4753 75.8269 67.4074 75.7637 67.3559C75.7006 67.3044 75.6244 67.2714 75.5436 67.2605C75.4546 67.2641 75.3679 67.2893 75.2909 67.334C75.2139 67.3787 75.1489 67.4414 75.1016 67.5168C74.797 68.0035 74.6432 68.5694 74.6596 69.1433Z" fill="#FAFAFA"/>
<path d="M77.7886 68.4892C77.7641 68.5572 77.7298 68.6212 77.6869 68.6793C77.5985 68.8163 77.4924 68.9887 77.3599 69.192C77.0681 69.634 76.6306 70.266 76.0781 71.0306C74.9643 72.5643 73.3732 74.6416 71.5788 76.9045C69.7843 79.1675 68.1181 81.1829 66.8938 82.6503C66.2838 83.3707 65.78 83.9497 65.4308 84.3475L65.0198 84.7894C64.9225 84.8911 64.8695 84.9441 64.8651 84.9353C64.8607 84.9265 64.9004 84.8734 64.9844 84.7585L65.3645 84.2812L66.77 82.5398L71.402 76.794C73.1964 74.5355 74.8052 72.4759 75.9499 70.9687C76.498 70.2306 76.9488 69.6428 77.2759 69.1743C77.4173 68.9798 77.5366 68.8163 77.6383 68.6837C77.6791 68.6122 77.7297 68.5467 77.7886 68.4892Z" fill="#263238"/>
<path d="M54.8359 83.4989C56.5156 84.0015 58.2699 84.2079 60.0204 84.1088C60.5934 84.1296 61.1591 83.9754 61.6424 83.6668C61.7971 83.5475 61.9341 83.3221 61.806 83.1718C61.759 83.1319 61.7035 83.1032 61.6438 83.0879C61.584 83.0726 61.5216 83.0711 61.4612 83.0834C59.2513 83.1762 57.227 83.1762 55.026 83.2691" fill="#FAFAFA"/>
<path d="M56.2554 86.7518C55.7412 85.7848 55.128 84.8739 54.4256 84.0336L54.2842 84.2281C54.4026 85.2795 54.6277 86.3161 54.956 87.3219C55.2875 88.3348 55.9234 89.2207 56.7769 89.8589C56.9381 88.7941 56.7554 87.7056 56.2554 86.7518Z" fill="#FAFAFA"/>
<path d="M52.9805 89.2314C53.1838 87.8833 53.3695 86.5795 53.5728 85.2535L52.8789 86.3452C52.2523 87.5677 51.8185 88.8797 51.5927 90.2347C51.5596 90.3935 51.5596 90.5575 51.5927 90.7164C51.6124 90.795 51.6534 90.8667 51.711 90.9236C51.7687 90.9805 51.8409 91.0204 51.9198 91.0391C52.0097 91.0442 52.0994 91.0272 52.1811 90.9894C52.2628 90.9516 52.334 90.8943 52.3883 90.8225C52.7408 90.3635 52.9471 89.8091 52.9805 89.2314Z" fill="#FAFAFA"/>
<path d="M159.777 9.80313L161.824 12.4462L162.531 16.7953L164.078 15.708L165.625 18.0107L179.335 5.02533L159.777 9.80313Z" fill="#E50D7E"/>
<path opacity="0.3" d="M164.056 15.7345L163.357 16.2118L162.862 13.7765L164.056 15.7345Z" fill="black"/>
<path opacity="0.3" d="M161.822 12.4462L179.334 5.02533L162.967 13.529L162.529 16.7953L161.822 12.4462Z" fill="black"/>
<path d="M179.335 5.02087C179.272 5.07283 179.204 5.11733 179.132 5.15347L178.53 5.49379L176.29 6.70482L168.838 10.6252L162.876 13.719L162.915 13.5909C163.667 14.9566 164.347 16.0527 164.834 16.8085C165.068 17.1709 165.253 17.4626 165.404 17.6924C165.478 17.7908 165.54 17.8976 165.589 18.0107C165.502 17.9232 165.423 17.827 165.355 17.7234C165.209 17.5333 165.001 17.246 164.745 16.8748C164.228 16.1323 163.521 15.0494 162.747 13.6881L162.699 13.6041L162.787 13.5555L168.732 10.4307L176.192 6.57222L178.469 5.42749L179.092 5.12253C179.167 5.07566 179.249 5.04132 179.335 5.02087Z" fill="#263238"/>
<path d="M179.334 5.02093C179.361 5.07839 175.436 6.78885 170.57 8.87941C165.703 10.97 161.73 12.5832 161.73 12.5257C161.73 12.4683 165.628 10.7578 170.494 8.66726C175.361 6.5767 179.312 4.96789 179.334 5.02093Z" fill="#263238"/>
<path d="M162.53 16.7953C162.469 16.264 162.484 15.7268 162.575 15.1997C162.592 14.6664 162.684 14.1383 162.849 13.6307C162.91 14.1605 162.895 14.6962 162.805 15.2218C162.79 15.7568 162.698 16.2868 162.53 16.7953Z" fill="#263238"/>
<path d="M145.721 27.5619C145.721 27.6238 145.496 27.7077 145.186 27.7519C144.877 27.7961 144.629 27.7519 144.625 27.7122C144.621 27.6724 144.859 27.5619 145.155 27.5221C145.452 27.4823 145.708 27.4912 145.721 27.5619Z" fill="#263238"/>
<path d="M149.66 25.794C149.695 25.8426 149.333 26.1829 148.811 26.4923C148.51 26.7121 148.156 26.8507 147.786 26.8945C147.759 26.8326 148.184 26.594 148.692 26.2934C148.986 26.0765 149.313 25.9079 149.66 25.794Z" fill="#263238"/>
<path d="M152.512 22.5499C152.437 22.9147 152.269 23.2541 152.025 23.5355C151.676 24.0349 151.305 24.362 151.256 24.3222C151.404 23.9883 151.6 23.6784 151.84 23.4029C152.18 22.9211 152.454 22.5189 152.512 22.5499Z" fill="#263238"/>
<path d="M153.55 18.3864C153.691 18.7339 153.725 19.1156 153.647 19.4825C153.644 19.8577 153.533 20.224 153.329 20.5389C153.31 20.177 153.34 19.8143 153.418 19.4604C153.42 19.0985 153.464 18.738 153.55 18.3864Z" fill="#263238"/>
<path d="M150.92 15.3986C151.296 15.3218 151.687 15.3931 152.012 15.5975C152.586 15.8848 152.843 16.3577 152.798 16.3798C152.754 16.4019 152.423 16.0572 151.914 15.8008C151.406 15.5445 150.911 15.4694 150.92 15.3986Z" fill="#263238"/>
<path d="M147.472 17.5069C147.49 17.1254 147.647 16.7637 147.914 16.4903C148.125 16.1704 148.451 15.944 148.825 15.8583C148.86 15.9158 148.458 16.1854 148.095 16.6362C147.733 17.087 147.534 17.529 147.472 17.5069Z" fill="#263238"/>
<path d="M148.184 21.5996C147.865 21.3888 147.625 21.0778 147.503 20.7157C147.314 20.3884 147.239 20.0073 147.291 19.6328C147.465 19.9501 147.613 20.2812 147.733 20.6229C147.954 21.1665 148.241 21.551 148.184 21.5996Z" fill="#263238"/>
<path d="M151.968 23.509C151.602 23.5893 151.221 23.5601 150.872 23.425C150.501 23.3621 150.158 23.1897 149.886 22.93C150.245 22.9815 150.596 23.0734 150.934 23.204C151.29 23.2633 151.637 23.3657 151.968 23.509Z" fill="#263238"/>
<path d="M156.17 22.625C155.9 22.8776 155.57 23.0558 155.211 23.1421C154.874 23.3037 154.5 23.371 154.128 23.3366C154.441 23.1533 154.779 23.0149 155.131 22.9256C155.461 22.7751 155.811 22.6738 156.17 22.625Z" fill="#263238"/>
<path d="M159.698 20.1102C159.742 20.1544 159.398 20.5035 158.929 20.8836C158.671 21.1449 158.361 21.3496 158.019 21.4847C157.979 21.4317 158.324 21.0825 158.788 20.7068C159.047 20.4479 159.357 20.2449 159.698 20.1102Z" fill="#263238"/>
<path d="M161.854 17.6527C161.912 17.6793 161.854 17.9312 161.655 18.1875C161.456 18.4439 161.275 18.5986 161.213 18.5588C161.151 18.519 161.284 18.298 161.456 18.0549C161.629 17.8118 161.797 17.6262 161.854 17.6527Z" fill="#263238"/>
</svg>
