<svg width="44" height="24" viewBox="0 0 44 24" fill="none" xmlns="http://www.w3.org/2000/svg">
<path d="M18.0087 13.8867C18.4659 13.0965 18.7002 12.151 18.9401 11.2677C18.9796 11.1294 19.0247 10.9883 19.067 10.85C19.0755 10.8049 19.0924 10.7145 19.1037 10.6666C19.1686 10.2037 19.1037 9.78322 18.8836 9.35707C18.7623 9.14258 18.607 8.94503 18.4095 8.79263C18.37 8.7644 18.2797 8.71078 18.2402 8.68538C18.2035 8.66845 18.0906 8.61765 18.0511 8.59789C17.0154 8.33825 15.9034 8.38905 14.8479 8.51041C14.6984 8.53016 14.5657 8.57249 14.4303 8.63176C14.3541 8.65716 14.2609 8.72489 14.1932 8.76158C14.1593 8.78698 14.0719 8.86036 14.0408 8.88576C14.0126 8.9168 13.9392 8.99582 13.9082 9.02405C13.5131 9.51511 13.3833 10.2207 13.7558 10.7597C14.1029 11.3157 14.4444 11.8886 14.7379 12.47C14.9157 12.8143 15.1358 13.2912 15.2967 13.6468C15.3983 13.8923 15.5704 14.1181 15.7764 14.2931C16.5045 14.8801 17.5374 14.7023 18.0031 13.8782L18.0087 13.8867ZM18.1499 13.9629C17.6221 14.9563 16.5074 15.5885 15.3616 15.3627C14.7492 15.2357 14.2101 14.8462 13.8743 14.3213C13.8066 14.2197 13.6598 13.9855 13.5949 13.8811C13.2309 13.2969 12.9007 12.6957 12.6043 12.0777C12.5366 11.9366 12.4096 11.6741 12.3475 11.5358C12.0597 10.9347 11.9722 10.2235 12.1669 9.58002C12.3673 8.85189 12.9317 8.24512 13.6316 7.98265L13.8348 7.9121C13.9054 7.89517 14.0775 7.8613 14.1452 7.84719C14.371 7.81897 14.6306 7.81897 14.8536 7.84437C15.5365 7.92903 16.2252 7.96572 16.9109 7.92339C17.3343 7.90363 17.735 7.81614 18.1668 7.79357C19.1263 7.77099 20.0915 8.38905 20.4132 9.33449C20.67 10.0231 20.5515 10.8303 20.1197 11.4201C19.448 12.2385 18.6324 13.0118 18.1527 13.9657L18.1499 13.9629Z" fill="#70648D"/>
<path d="M16.1408 7.30322C17.0932 7.30322 17.8652 6.5312 17.8652 5.57886C17.8652 4.62652 17.0932 3.85449 16.1408 3.85449C15.1885 3.85449 14.4165 4.62652 14.4165 5.57886C14.4165 6.5312 15.1885 7.30322 16.1408 7.30322Z" fill="#70648D"/>
<path d="M29.2011 13.8867C29.6583 13.0965 29.8926 12.151 30.1324 11.2677C30.1719 11.1294 30.2171 10.9883 30.2594 10.85C30.2679 10.8049 30.2848 10.7145 30.2961 10.6666C30.361 10.2037 30.2961 9.78322 30.076 9.35707C29.9546 9.14258 29.7994 8.94503 29.6019 8.79263C29.5624 8.7644 29.4721 8.71078 29.4325 8.68538C29.3959 8.66845 29.283 8.61765 29.2435 8.59789C28.2077 8.33825 27.0958 8.38905 26.0403 8.51041C25.8908 8.53016 25.7581 8.57249 25.6227 8.63176C25.5465 8.65716 25.4533 8.72489 25.3856 8.76158C25.3517 8.78698 25.2642 8.86036 25.2332 8.88576C25.205 8.9168 25.1316 8.99582 25.1006 9.02405C24.7055 9.51511 24.5756 10.2207 24.9482 10.7597C25.2953 11.3157 25.6368 11.8886 25.9303 12.47C26.1081 12.8143 26.3282 13.2912 26.4891 13.6468C26.5906 13.8923 26.7628 14.1181 26.9688 14.2931C27.6969 14.8801 28.7298 14.7023 29.1955 13.8782L29.2011 13.8867ZM29.3422 13.9629C28.8145 14.9563 27.6997 15.5885 26.554 15.3627C25.9416 15.2357 25.4025 14.8462 25.0667 14.3213C24.999 14.2197 24.8522 13.9855 24.7873 13.8811C24.4232 13.2969 24.0931 12.6957 23.7967 12.0777C23.729 11.9366 23.602 11.6741 23.5399 11.5358C23.2521 10.9347 23.1646 10.2235 23.3593 9.58002C23.5597 8.85189 24.1241 8.24512 24.824 7.98265L25.0272 7.9121C25.0977 7.89517 25.2699 7.8613 25.3376 7.84719C25.5634 7.81897 25.823 7.81897 26.046 7.84437C26.7289 7.92903 27.4175 7.96572 28.1033 7.92339C28.5266 7.90363 28.9274 7.81614 29.3592 7.79357C30.3187 7.77099 31.2839 8.38905 31.6056 9.33449C31.8624 10.0231 31.7439 10.8303 31.3121 11.4201C30.6404 12.2385 29.8248 13.0118 29.3451 13.9657L29.3422 13.9629Z" fill="#70648D"/>
<path d="M27.3386 7.30322C28.2909 7.30322 29.0629 6.5312 29.0629 5.57886C29.0629 4.62652 28.2909 3.85449 27.3386 3.85449C26.3863 3.85449 25.6143 4.62652 25.6143 5.57886C25.6143 6.5312 26.3863 7.30322 27.3386 7.30322Z" fill="#70648D"/>
<path d="M23.6596 13.8867C24.1168 13.0965 24.351 12.151 24.5909 11.2677C24.6304 11.1294 24.6756 10.9883 24.7179 10.85C24.7264 10.8049 24.7433 10.7145 24.7546 10.6666C24.8195 10.2037 24.7546 9.78322 24.5345 9.35707C24.4131 9.14258 24.2579 8.94503 24.0604 8.79263C24.0209 8.7644 23.9305 8.71078 23.891 8.68538C23.8544 8.66845 23.7415 8.61765 23.702 8.59789C22.6662 8.33825 21.5543 8.38905 20.4988 8.51041C20.3493 8.53016 20.2166 8.57249 20.0811 8.63176C20.005 8.65716 19.9118 8.72489 19.8441 8.76158C19.8102 8.78698 19.7227 8.86036 19.6917 8.88576C19.6635 8.9168 19.5901 8.99582 19.5591 9.02405C19.164 9.51511 19.0341 10.2207 19.4067 10.7597C19.7538 11.3157 20.0953 11.8886 20.3888 12.47C20.5666 12.8143 20.7867 13.2912 20.9475 13.6468C21.0491 13.8923 21.2213 14.1181 21.4273 14.2931C22.1554 14.8801 23.1883 14.7023 23.654 13.8782L23.6596 13.8867ZM23.8007 13.9629C23.273 14.9563 22.1582 15.5885 21.0125 15.3627C20.4001 15.2357 19.861 14.8462 19.5252 14.3213C19.4575 14.2197 19.3107 13.9855 19.2458 13.8811C18.8817 13.2969 18.5515 12.6957 18.2552 12.0777C18.1875 11.9366 18.0605 11.6741 17.9984 11.5358C17.7106 10.9347 17.6231 10.2235 17.8178 9.58002C18.0182 8.85189 18.5826 8.24512 19.2825 7.98265L19.4857 7.9121C19.5562 7.89517 19.7284 7.8613 19.7961 7.84719C20.0219 7.81897 20.2815 7.81897 20.5045 7.84437C21.1874 7.92903 21.876 7.96572 22.5618 7.92339C22.9851 7.90363 23.3859 7.81614 23.8177 7.79357C24.7772 7.77099 25.7424 8.38905 26.0641 9.33449C26.3209 10.0231 26.2024 10.8303 25.7706 11.4201C25.0989 12.2385 24.2833 13.0118 23.8036 13.9657L23.8007 13.9629Z" fill="#E5087E"/>
<path d="M21.7971 7.30322C22.7494 7.30322 23.5214 6.5312 23.5214 5.57886C23.5214 4.62652 22.7494 3.85449 21.7971 3.85449C20.8448 3.85449 20.0728 4.62652 20.0728 5.57886C20.0728 6.5312 20.8448 7.30322 21.7971 7.30322Z" fill="#E5087E"/>
<path d="M5.33218 20.1146C5.23623 20.1146 5.17132 20.1005 5.13181 20.0722C5.0923 20.044 5.0669 20.0073 5.05561 19.9622C5.04433 19.917 5.0415 19.869 5.0415 19.8211V17.7242C5.0415 17.6762 5.04715 17.6282 5.05561 17.5831C5.06408 17.5379 5.0923 17.5012 5.13181 17.473C5.17132 17.4448 5.24188 17.4307 5.33501 17.4307H6.12803C6.23527 17.4307 6.34533 17.4504 6.4554 17.4871C6.56546 17.5266 6.66706 17.5831 6.75737 17.6621C6.8505 17.7411 6.92387 17.8399 6.98031 17.9584C7.03676 18.0769 7.06498 18.2152 7.06498 18.3761C7.06498 18.4833 7.04805 18.5878 7.017 18.6894C6.98596 18.791 6.93798 18.8813 6.87307 18.9659C6.80816 19.0478 6.72914 19.1212 6.63601 19.1804C6.54006 19.2397 6.43282 19.2849 6.30865 19.3131H5.62569V19.8182C5.62569 19.8662 5.62004 19.9142 5.61158 19.9594C5.60029 20.0045 5.57489 20.0412 5.53538 20.0694C5.49587 20.0976 5.42531 20.1118 5.33218 20.1118V20.1146ZM5.62851 18.7373H6.16189C6.19576 18.7373 6.22962 18.7289 6.26913 18.7148C6.30864 18.7007 6.34251 18.6809 6.37355 18.6527C6.4046 18.6245 6.43282 18.5878 6.45257 18.5426C6.47233 18.4975 6.48362 18.441 6.48362 18.3789C6.48362 18.3055 6.46951 18.2406 6.43846 18.187C6.40742 18.1334 6.36509 18.0911 6.31147 18.0628C6.25785 18.0346 6.19576 18.0177 6.12238 18.0177H5.62851V18.7402V18.7373ZM6.95209 20.0384C6.85614 20.1061 6.78276 20.1343 6.72632 20.1202C6.66988 20.1061 6.61061 20.0553 6.54853 19.9678L5.87404 18.9998L6.53159 18.9151L7.02547 19.6263C7.0678 19.6884 7.09602 19.7392 7.10731 19.7844C7.1186 19.8267 7.11296 19.869 7.08756 19.9057C7.06216 19.9452 7.017 19.9876 6.95209 20.0356V20.0384Z" fill="#E5087E"/>
<path d="M8.25919 20.1127C8.16606 20.1127 8.10115 20.0986 8.05881 20.0732C8.01648 20.0478 7.99391 20.0111 7.98262 19.9632C7.97133 19.9152 7.96851 19.87 7.96851 19.822V17.7223C7.96851 17.6123 7.99108 17.5361 8.03341 17.4937C8.07575 17.4514 8.15477 17.4316 8.26765 17.4316H9.71823C9.76903 17.4316 9.81701 17.4373 9.85934 17.4458C9.90167 17.4542 9.93836 17.4796 9.96658 17.5191C9.9948 17.5615 10.0089 17.6292 10.0089 17.7251C10.0089 17.8183 9.9948 17.8832 9.96658 17.9255C9.93836 17.9679 9.90167 17.9904 9.85652 18.0017C9.81136 18.0102 9.76339 18.0158 9.71259 18.0158H8.54987V18.5097H9.34007C9.39086 18.5097 9.43602 18.5125 9.47553 18.521C9.51504 18.5295 9.54608 18.5492 9.56866 18.5859C9.59124 18.6226 9.60253 18.6819 9.60253 18.7665C9.60253 18.8456 9.59124 18.9048 9.56866 18.9387C9.54608 18.9726 9.51222 18.9951 9.46989 19.0036C9.42755 19.0121 9.37958 19.0149 9.32878 19.0149H8.54705V19.5285H9.71259C9.76339 19.5285 9.81136 19.5342 9.8537 19.5426C9.89603 19.5539 9.93272 19.5765 9.96094 19.6188C9.98916 19.6584 10.0033 19.7261 10.0033 19.8249C10.0033 19.918 9.98916 19.9829 9.96094 20.0252C9.93272 20.0676 9.89603 20.0902 9.85087 20.1014C9.80572 20.1099 9.75774 20.1156 9.70695 20.1156H8.2479L8.25919 20.1127Z" fill="#E5087E"/>
<path d="M12.1682 20.1437C12.0553 20.1437 11.9368 20.1267 11.8126 20.0929C11.6884 20.059 11.5643 20.0054 11.4429 19.932C11.3215 19.8586 11.2115 19.7683 11.1155 19.6583C11.0196 19.5482 10.9406 19.4184 10.8841 19.266C10.8277 19.1136 10.7966 18.9442 10.7966 18.7552C10.7966 18.5661 10.8249 18.4024 10.8841 18.2584C10.9406 18.1145 11.0196 17.9875 11.1155 17.8803C11.2115 17.773 11.3215 17.6827 11.4429 17.6122C11.5643 17.5416 11.6856 17.4908 11.8126 17.4541C11.9396 17.4203 12.061 17.4033 12.1795 17.4033C12.3093 17.4033 12.425 17.4174 12.521 17.4485C12.6169 17.4795 12.6959 17.5106 12.758 17.5444C12.8173 17.5783 12.8568 17.5981 12.8765 17.6093C12.9217 17.6404 12.9669 17.6743 13.0064 17.7081C13.0459 17.7448 13.0685 17.79 13.0713 17.8464C13.0713 17.8775 13.0656 17.9085 13.0543 17.9395C13.0431 17.9706 13.0261 18.0016 13.0035 18.0327C12.9612 18.0919 12.9217 18.1343 12.885 18.1625C12.8455 18.1879 12.8088 18.202 12.775 18.202C12.7439 18.202 12.7157 18.1935 12.6875 18.1794C12.6592 18.1653 12.6254 18.1427 12.5887 18.1173C12.5718 18.1032 12.5464 18.0891 12.5125 18.0694C12.4786 18.0496 12.4335 18.0327 12.377 18.0186C12.3206 18.0044 12.2472 17.996 12.1654 17.996C12.0751 17.996 11.9848 18.0101 11.8944 18.0411C11.8041 18.0722 11.7195 18.1202 11.6433 18.1822C11.5671 18.2472 11.505 18.3262 11.4598 18.425C11.4147 18.5237 11.3921 18.6394 11.3921 18.7721C11.3921 18.9047 11.4147 19.0204 11.4627 19.1164C11.5106 19.2124 11.5727 19.2942 11.6489 19.3591C11.7251 19.424 11.8098 19.472 11.9001 19.503C11.9904 19.5341 12.0807 19.551 12.1682 19.551C12.2444 19.551 12.3093 19.5425 12.3629 19.5284C12.4165 19.5143 12.4645 19.4946 12.504 19.472C12.5435 19.4494 12.5802 19.4297 12.6084 19.4127C12.6367 19.3958 12.6649 19.3789 12.6959 19.3619C12.7242 19.3478 12.7552 19.3394 12.7862 19.3394C12.8229 19.3394 12.8596 19.3535 12.8963 19.3817C12.933 19.4099 12.9725 19.4551 13.0092 19.5172C13.0318 19.551 13.0487 19.5821 13.06 19.6159C13.0713 19.647 13.0769 19.678 13.0769 19.7091C13.0769 19.7627 13.0572 19.8078 13.0148 19.8417C12.9725 19.8756 12.9273 19.9066 12.8822 19.9348C12.8653 19.9461 12.8258 19.9687 12.7665 20.0026C12.7072 20.0364 12.631 20.0703 12.5322 20.0985C12.4363 20.1267 12.3178 20.1437 12.1823 20.1437H12.1682Z" fill="#E5087E"/>
<path d="M14.2123 20.1146C14.1164 20.1146 14.0514 20.1005 14.0119 20.0722C13.9724 20.044 13.947 20.0073 13.9357 19.9622C13.9245 19.917 13.9216 19.869 13.9216 19.8211V17.7242C13.9216 17.6762 13.9273 17.6282 13.9357 17.5831C13.9442 17.5379 13.9724 17.5012 14.0119 17.473C14.0514 17.4448 14.122 17.4307 14.2151 17.4307H15.0082C15.1154 17.4307 15.2255 17.4504 15.3355 17.4871C15.4456 17.5266 15.5472 17.5831 15.6375 17.6621C15.7306 17.7411 15.804 17.8399 15.8604 17.9584C15.9169 18.0769 15.9451 18.2152 15.9451 18.3761C15.9451 18.4833 15.9282 18.5878 15.8971 18.6894C15.8661 18.791 15.8181 18.8813 15.7532 18.9659C15.6883 19.0478 15.6093 19.1212 15.5161 19.1804C15.4202 19.2397 15.3129 19.2849 15.1888 19.3131H14.5058V19.8182C14.5058 19.8662 14.5002 19.9142 14.4917 19.9594C14.4804 20.0045 14.455 20.0412 14.4155 20.0694C14.376 20.0976 14.3054 20.1118 14.2123 20.1118V20.1146ZM14.5086 18.7373H15.042C15.0759 18.7373 15.1098 18.7289 15.1493 18.7148C15.1888 18.7007 15.2226 18.6809 15.2537 18.6527C15.2847 18.6245 15.3129 18.5878 15.3327 18.5426C15.3525 18.4975 15.3637 18.441 15.3637 18.3789C15.3637 18.3055 15.3496 18.2406 15.3186 18.187C15.2875 18.1334 15.2452 18.0911 15.1916 18.0628C15.138 18.0346 15.0759 18.0177 15.0025 18.0177H14.5086V18.7402V18.7373ZM15.8322 20.0384C15.7363 20.1061 15.6629 20.1343 15.6064 20.1202C15.55 20.1061 15.4907 20.0553 15.4287 19.9678L14.7542 18.9998L15.4117 18.9151L15.9056 19.6263C15.9479 19.6884 15.9761 19.7392 15.9874 19.7844C15.9987 19.8267 15.9931 19.869 15.9677 19.9057C15.9423 19.9452 15.8971 19.9876 15.8322 20.0356V20.0384Z" fill="#E5087E"/>
<path d="M17.9683 20.1462C17.782 20.1462 17.6155 20.1095 17.4744 20.0361C17.3305 19.9627 17.212 19.8668 17.1132 19.7454C17.0172 19.6241 16.9439 19.4858 16.8959 19.3334C16.8479 19.181 16.8225 19.0258 16.8225 18.8677V17.7191C16.8225 17.6683 16.8282 17.6203 16.8366 17.5751C16.8451 17.53 16.8705 17.4933 16.9128 17.4651C16.9552 17.4369 17.0229 17.4227 17.116 17.4227C17.2091 17.4227 17.2825 17.4369 17.322 17.4651C17.3615 17.4933 17.3869 17.53 17.3982 17.5751C17.4067 17.6203 17.4123 17.6683 17.4123 17.7219V18.8649C17.4123 18.9778 17.4321 19.085 17.4688 19.1923C17.5055 19.2995 17.5676 19.3842 17.6522 19.4519C17.7369 19.5196 17.8469 19.5563 17.9852 19.5563C18.1038 19.5563 18.2054 19.5281 18.2872 19.4688C18.3719 19.4124 18.4368 19.3306 18.4819 19.2261C18.5271 19.1217 18.5497 19.0004 18.5497 18.8592V17.6965C18.5497 17.6485 18.5553 17.6034 18.5638 17.561C18.5751 17.5215 18.6005 17.4877 18.64 17.4594C18.6823 17.434 18.7472 17.4199 18.8403 17.4199C18.9363 17.4199 19.0068 17.434 19.0464 17.4651C19.0859 17.4961 19.1113 17.5328 19.1197 17.5751C19.1282 17.6203 19.1338 17.6683 19.1338 17.7191V18.8705C19.1338 19.0314 19.1084 19.1866 19.0576 19.339C19.0068 19.4914 18.9335 19.6269 18.8319 19.7454C18.7331 19.8668 18.6117 19.9627 18.4678 20.0333C18.3239 20.1038 18.1574 20.1405 17.9683 20.1405V20.1462Z" fill="#E5087E"/>
<path d="M20.3163 20.1146C20.2232 20.1146 20.1583 20.1005 20.1159 20.0751C20.0736 20.0497 20.051 20.013 20.0397 19.965C20.0313 19.9198 20.0256 19.8719 20.0256 19.8239V17.7242C20.0256 17.6762 20.0313 17.6282 20.0397 17.5831C20.0482 17.5379 20.0736 17.5012 20.1159 17.473C20.1583 17.4448 20.226 17.4307 20.3191 17.4307C20.4123 17.4307 20.4856 17.4448 20.5252 17.473C20.5647 17.5012 20.5901 17.5379 20.5985 17.5831C20.607 17.6282 20.6126 17.6762 20.6126 17.727V19.8267C20.6126 19.8747 20.607 19.9227 20.5985 19.9678C20.5872 20.013 20.5647 20.0497 20.5223 20.0751C20.4828 20.1033 20.4151 20.1146 20.3163 20.1146Z" fill="#E5087E"/>
<path d="M23.4928 17.4266C23.5352 17.4266 23.5775 17.4295 23.6142 17.4379C23.6509 17.4464 23.6819 17.4662 23.7045 17.5028C23.7271 17.5395 23.7384 17.5988 23.7384 17.6806C23.7384 17.7625 23.7271 17.8189 23.7045 17.8528C23.6819 17.8867 23.6509 17.9092 23.6114 17.9177C23.5719 17.9262 23.5323 17.929 23.4872 17.929H22.8691V19.8283C22.8691 19.8763 22.8635 19.9215 22.855 19.9666C22.8466 20.0118 22.8212 20.0457 22.7817 20.0711C22.7421 20.0993 22.6744 20.1106 22.5756 20.1106C22.4853 20.1106 22.4204 20.0965 22.3809 20.0711C22.3386 20.0457 22.316 20.009 22.3047 19.9638C22.2962 19.9187 22.2906 19.8735 22.2906 19.8227V17.9262H21.6697C21.6274 17.9262 21.5879 17.9205 21.5512 17.9121C21.5117 17.9036 21.4807 17.881 21.4581 17.8472C21.4327 17.8133 21.4214 17.754 21.4214 17.6722C21.4214 17.5903 21.4327 17.5367 21.4581 17.5C21.4835 17.4633 21.5145 17.4436 21.5512 17.4351C21.5907 17.4266 21.6302 17.4238 21.6697 17.4238H23.49L23.4928 17.4266Z" fill="#E5087E"/>
<path d="M24.831 20.1167C24.7802 20.1167 24.7407 20.1111 24.7125 20.097C24.6843 20.0829 24.6673 20.0631 24.6617 20.0377C24.656 20.0123 24.6504 19.9813 24.6504 19.9446V17.6135C24.6504 17.5768 24.6532 17.5457 24.6617 17.5203C24.6701 17.4949 24.6843 17.4723 24.7097 17.4582C24.7351 17.4441 24.7717 17.4385 24.8225 17.4385C24.8733 17.4385 24.91 17.4441 24.9354 17.4582C24.9608 17.4723 24.9749 17.4921 24.9834 17.5203C24.9919 17.5485 24.9947 17.5796 24.9947 17.6135V19.7922H26.2816C26.3155 19.7922 26.3437 19.795 26.3663 19.8035C26.3888 19.8119 26.4086 19.8261 26.4227 19.8486C26.4368 19.8712 26.4453 19.9051 26.4453 19.9531C26.4453 19.9954 26.4396 20.0293 26.4255 20.0547C26.4114 20.0801 26.3945 20.0942 26.3719 20.1026C26.3493 20.1111 26.3211 20.1139 26.2872 20.1139H24.8338L24.831 20.1167Z" fill="#E5087E"/>
<path d="M28.5416 20.1452C28.361 20.1452 28.1888 20.1113 28.028 20.0408C27.8671 19.9702 27.726 19.8743 27.6047 19.7501C27.4805 19.6259 27.3873 19.482 27.3196 19.3211C27.2519 19.1602 27.218 18.9853 27.218 18.799C27.218 18.6127 27.2519 18.4321 27.3168 18.2628C27.3817 18.0935 27.4748 17.9495 27.5962 17.8225C27.7147 17.6983 27.853 17.5996 28.0082 17.5262C28.1634 17.4556 28.3299 17.4189 28.5077 17.4189C28.6855 17.4189 28.8633 17.4528 29.0242 17.5234C29.1851 17.5939 29.3233 17.6899 29.4447 17.8141C29.566 17.9382 29.6592 18.085 29.7269 18.2487C29.7946 18.4124 29.8285 18.593 29.8285 18.7849C29.8285 18.9768 29.7946 19.1433 29.7269 19.307C29.6592 19.4707 29.566 19.6146 29.4475 19.7416C29.329 19.8658 29.1935 19.9646 29.0383 20.0351C28.8831 20.1057 28.7166 20.1395 28.5416 20.1395V20.1452ZM28.519 19.7952C28.6517 19.7952 28.7758 19.7698 28.8944 19.719C29.0129 19.6682 29.1117 19.5949 29.1992 19.5017C29.2866 19.4086 29.3544 19.3014 29.4052 19.1772C29.456 19.0558 29.4814 18.9232 29.4814 18.7821C29.4814 18.641 29.456 18.514 29.4052 18.3926C29.3544 18.2712 29.2866 18.164 29.1992 18.0709C29.1117 17.9777 29.0101 17.9044 28.8944 17.8507C28.7787 17.7971 28.6573 17.7717 28.5247 17.7717C28.392 17.7717 28.2707 17.7971 28.155 17.8507C28.0393 17.9044 27.9377 17.9749 27.8502 18.0681C27.7627 18.1612 27.6921 18.2684 27.6442 18.3898C27.5934 18.514 27.568 18.6438 27.568 18.7849C27.568 18.926 27.5934 19.053 27.6442 19.1772C27.695 19.3014 27.7655 19.4086 27.8502 19.4989C27.9377 19.592 28.0364 19.6626 28.1521 19.7162C28.2679 19.7698 28.3892 19.7952 28.519 19.7952Z" fill="#E5087E"/>
<path d="M32.0378 20.1236C31.8995 20.1236 31.764 20.1038 31.6342 20.0643C31.5044 20.0248 31.3802 19.9655 31.2673 19.8893C31.1545 19.8103 31.0557 19.7172 30.971 19.6043C30.8863 19.4914 30.8186 19.3644 30.7706 19.2205C30.7227 19.0766 30.6973 18.9213 30.6973 18.752C30.6973 18.5827 30.7227 18.4331 30.7706 18.2948C30.8186 18.1565 30.8863 18.0323 30.971 17.9251C31.0557 17.8179 31.1545 17.7275 31.2673 17.6513C31.3802 17.5751 31.5044 17.5187 31.6342 17.4792C31.764 17.4397 31.8995 17.4199 32.0406 17.4199C32.1676 17.4199 32.2777 17.434 32.3708 17.4594C32.4639 17.4848 32.5373 17.5131 32.5966 17.5441C32.653 17.5751 32.6953 17.5977 32.7179 17.609C32.7546 17.6316 32.7885 17.657 32.8223 17.6852C32.8562 17.7134 32.8731 17.7445 32.876 17.7812C32.8816 17.8094 32.8788 17.832 32.8703 17.8517C32.8618 17.8715 32.8506 17.8884 32.8364 17.9082C32.8167 17.9392 32.7941 17.9618 32.7715 17.9759C32.749 17.99 32.7264 17.9985 32.7038 17.9985C32.6784 17.9985 32.6558 17.99 32.6333 17.9759C32.6107 17.9618 32.5853 17.942 32.5542 17.9223C32.5401 17.911 32.5091 17.8941 32.4611 17.8715C32.4159 17.8489 32.3567 17.8263 32.2833 17.8066C32.2099 17.7868 32.1253 17.7755 32.0237 17.7755C31.8939 17.7755 31.7697 17.7981 31.6483 17.8461C31.5298 17.8912 31.4254 17.959 31.3351 18.0465C31.2448 18.1339 31.1742 18.2384 31.1234 18.3625C31.0726 18.4867 31.0472 18.625 31.0472 18.7802C31.0472 18.9354 31.0726 19.0737 31.1234 19.1979C31.1742 19.3221 31.2448 19.4265 31.3351 19.514C31.4254 19.6015 31.5298 19.6664 31.6483 19.7144C31.7669 19.7623 31.891 19.7849 32.0208 19.7849C32.1168 19.7849 32.2015 19.7736 32.2748 19.7539C32.3454 19.7341 32.4075 19.7116 32.4555 19.6862C32.5034 19.6608 32.5373 19.6438 32.5542 19.6297C32.5825 19.6156 32.6079 19.5987 32.6304 19.5846C32.653 19.5704 32.6756 19.562 32.701 19.562C32.7264 19.562 32.749 19.5704 32.7715 19.5846C32.7941 19.5987 32.8139 19.6212 32.8336 19.6523C32.8449 19.6692 32.8562 19.689 32.8647 19.7115C32.8731 19.7341 32.876 19.7567 32.8731 19.7821C32.8731 19.8216 32.8534 19.8527 32.8167 19.8809C32.7828 19.9091 32.7461 19.9317 32.7123 19.9571C32.6925 19.9684 32.653 19.9881 32.5966 20.0192C32.5401 20.0502 32.4639 20.0784 32.3708 20.1038C32.2777 20.1292 32.1676 20.1405 32.0378 20.1405V20.1236Z" fill="#E5087E"/>
<path d="M36.2567 19.87C36.2764 19.9095 36.2877 19.9406 36.2905 19.9688C36.2905 19.997 36.2849 20.0196 36.2651 20.0422C36.2454 20.0648 36.22 20.0845 36.1805 20.1014C36.1184 20.1325 36.0704 20.1381 36.0365 20.1212C36.0027 20.1043 35.9716 20.0676 35.9434 20.0083L34.9839 17.965L34.0328 20.0027C34.0046 20.0619 33.9735 20.0986 33.9397 20.1127C33.9058 20.1268 33.855 20.1212 33.7929 20.093C33.7534 20.0789 33.7252 20.0591 33.7083 20.0365C33.6913 20.014 33.6829 19.9857 33.6885 19.9519C33.6942 19.918 33.7054 19.8813 33.728 19.8362L34.8287 17.5361C34.8428 17.505 34.8653 17.4796 34.8964 17.4599C34.9246 17.4401 34.9585 17.4316 34.9895 17.4316C35.0121 17.4316 35.0347 17.4345 35.0544 17.4429C35.0742 17.4514 35.0939 17.4627 35.108 17.4768C35.1222 17.4909 35.1363 17.5135 35.1476 17.5389L36.2595 19.8644L36.2567 19.87ZM34.2614 19.3507L34.3912 19.0544H35.5822L35.7092 19.3507H34.2614Z" fill="#E5087E"/>
<path d="M37.3464 20.1167C37.2956 20.1167 37.2561 20.1111 37.2279 20.097C37.1996 20.0829 37.1827 20.0631 37.1771 20.0377C37.1714 20.0123 37.1658 19.9813 37.1658 19.9446V17.6135C37.1658 17.5768 37.1686 17.5457 37.1771 17.5203C37.1855 17.4949 37.1996 17.4723 37.225 17.4582C37.2504 17.4441 37.2871 17.4385 37.3379 17.4385C37.3887 17.4385 37.4254 17.4441 37.4508 17.4582C37.4762 17.4723 37.4903 17.4921 37.4988 17.5203C37.5072 17.5485 37.5101 17.5796 37.5101 17.6135V19.7922H38.797C38.8308 19.7922 38.8591 19.795 38.8816 19.8035C38.9042 19.8119 38.924 19.8261 38.9381 19.8486C38.9522 19.8712 38.9607 19.9051 38.9607 19.9531C38.9607 19.9954 38.955 20.0293 38.9409 20.0547C38.9268 20.0801 38.9099 20.0942 38.8873 20.1026C38.8647 20.1111 38.8365 20.1139 38.8026 20.1139H37.3492L37.3464 20.1167Z" fill="#E5087E"/>
</svg>
