<svg width="219" height="31" viewBox="0 0 219 31" fill="none" xmlns="http://www.w3.org/2000/svg">
<path d="M12.0867 24.1511C13.016 22.5448 13.4921 20.6229 13.9797 18.8273C14.06 18.5461 14.1518 18.2593 14.2379 17.9782C14.2551 17.8864 14.2895 17.7028 14.3124 17.6053C14.4444 16.6644 14.3125 15.8096 13.865 14.9434C13.6183 14.5074 13.3028 14.1058 12.9013 13.796C12.821 13.7386 12.6374 13.6296 12.5571 13.578C12.4825 13.5436 12.2531 13.4403 12.1728 13.4001C10.0675 12.8724 7.80731 12.9756 5.66187 13.2223C5.35784 13.2625 5.08823 13.3485 4.81288 13.469C4.65799 13.5206 4.46869 13.6583 4.33101 13.7329C4.26218 13.7845 4.08435 13.9337 4.02124 13.9853C3.96388 14.0484 3.81473 14.209 3.75163 14.2664C2.94853 15.2646 2.68465 16.6989 3.44186 17.7946C4.14745 18.9248 4.84156 20.0894 5.43815 21.2712C5.79955 21.9711 6.24699 22.9406 6.57397 23.6635C6.78048 24.1626 7.13041 24.6215 7.54917 24.9772C9.02917 26.1705 11.1287 25.8091 12.0752 24.1339L12.0867 24.1511ZM12.3735 24.306C11.3008 26.3254 9.03491 27.6104 6.70591 27.1515C5.4611 26.8933 4.36543 26.1016 3.68279 25.0346C3.54512 24.828 3.24682 24.3519 3.11489 24.1396C2.37488 22.9521 1.70372 21.7301 1.10139 20.4737C0.963712 20.1869 0.705572 19.6534 0.57937 19.3723C-0.0057491 18.1503 -0.183579 16.7046 0.212237 15.3966C0.619525 13.9165 1.76682 12.683 3.18946 12.1495L3.60248 12.0061C3.74589 11.9717 4.09582 11.9028 4.2335 11.8741C4.69241 11.8168 5.22017 11.8168 5.67335 11.8684C7.06157 12.0405 8.46126 12.1151 9.85522 12.029C10.7157 11.9889 11.5303 11.811 12.4079 11.7651C14.3583 11.7192 16.3202 12.9756 16.9742 14.8975C17.4962 16.2973 17.2553 17.938 16.3776 19.137C15.0123 20.8007 13.3545 22.3727 12.3793 24.3117L12.3735 24.306Z" fill="#70648D"/>
<path d="M8.29013 10.7661C10.2259 10.7661 11.7951 9.19675 11.7951 7.26086C11.7951 5.32497 10.2259 3.75562 8.29013 3.75562C6.35439 3.75562 4.78516 5.32497 4.78516 7.26086C4.78516 9.19675 6.35439 10.7661 8.29013 10.7661Z" fill="#70648D"/>
<path d="M34.8396 24.1511C35.7689 22.5448 36.2451 20.6229 36.7327 18.8273C36.813 18.5461 36.9048 18.2593 36.9908 17.9782C37.008 17.8864 37.0424 17.7028 37.0654 17.6053C37.1973 16.6644 37.0654 15.8096 36.6179 14.9434C36.3713 14.5074 36.0558 14.1058 35.6542 13.796C35.5739 13.7386 35.3903 13.6296 35.31 13.578C35.2355 13.5436 35.006 13.4403 34.9257 13.4001C32.8204 12.8724 30.5602 12.9756 28.4148 13.2223C28.1108 13.2625 27.8412 13.3485 27.5658 13.469C27.4109 13.5206 27.2216 13.6583 27.0839 13.7329C27.0151 13.7845 26.8373 13.9337 26.7742 13.9853C26.7168 14.0484 26.5677 14.209 26.5046 14.2664C25.7015 15.2646 25.4376 16.6989 26.1948 17.7946C26.9004 18.9248 27.5945 20.0894 28.1911 21.2712C28.5525 21.9711 28.9999 22.9406 29.3269 23.6635C29.5334 24.1626 29.8833 24.6215 30.3021 24.9772C31.7821 26.1705 33.8816 25.8091 34.8282 24.1339L34.8396 24.1511ZM35.1265 24.306C34.0537 26.3254 31.7878 27.6104 29.4588 27.1515C28.214 26.8933 27.1184 26.1016 26.4357 25.0346C26.2981 24.828 25.9998 24.3519 25.8678 24.1396C25.1278 22.9521 24.4566 21.7301 23.8543 20.4737C23.7166 20.1869 23.4585 19.6534 23.3323 19.3723C22.7472 18.1503 22.5694 16.7046 22.9652 15.3966C23.3725 13.9165 24.5197 12.683 25.9424 12.1495L26.3554 12.0061C26.4988 11.9717 26.8487 11.9028 26.9864 11.8741C27.4453 11.8168 27.9731 11.8168 28.4263 11.8684C29.8145 12.0405 31.2142 12.1151 32.6082 12.029C33.4686 11.9889 34.2832 11.811 35.1609 11.7651C37.1113 11.7192 39.0731 12.9756 39.7271 14.8975C40.2491 16.2973 40.0082 17.938 39.1305 19.137C37.7652 20.8007 36.1074 22.3727 35.1322 24.3117L35.1265 24.306Z" fill="#70648D"/>
<path d="M31.0489 10.7661C32.9847 10.7661 34.5539 9.19675 34.5539 7.26086C34.5539 5.32497 32.9847 3.75562 31.0489 3.75562C29.1132 3.75562 27.5439 5.32497 27.5439 7.26086C27.5439 9.19675 29.1132 10.7661 31.0489 10.7661Z" fill="#70648D"/>
<path d="M23.5701 24.1511C24.4994 22.5448 24.9755 20.6229 25.4631 18.8273C25.5434 18.5461 25.6352 18.2593 25.7213 17.9782C25.7385 17.8864 25.7729 17.7028 25.7959 17.6053C25.9278 16.6644 25.7958 15.8096 25.3484 14.9434C25.1017 14.5074 24.7862 14.1058 24.3847 13.796C24.3044 13.7386 24.1208 13.6296 24.0405 13.578C23.9659 13.5436 23.7365 13.4403 23.6561 13.4001C21.5509 12.8724 19.2907 12.9756 17.1453 13.2223C16.8412 13.2625 16.5716 13.3485 16.2963 13.469C16.1414 13.5206 15.9521 13.6583 15.8144 13.7329C15.7456 13.7845 15.5677 13.9337 15.5046 13.9853C15.4473 14.0484 15.2981 14.209 15.235 14.2664C14.4319 15.2646 14.168 16.6989 14.9253 17.7946C15.6308 18.9248 16.325 20.0894 16.9215 21.2712C17.2829 21.9711 17.7304 22.9406 18.0574 23.6635C18.2639 24.1626 18.6138 24.6215 19.0326 24.9772C20.5126 26.1705 22.6121 25.8091 23.5586 24.1339L23.5701 24.1511ZM23.8569 24.306C22.7842 26.3254 20.5183 27.6104 18.1893 27.1515C16.9445 26.8933 15.8488 26.1016 15.1662 25.0346C15.0285 24.828 14.7302 24.3519 14.5983 24.1396C13.8583 22.9521 13.1871 21.7301 12.5848 20.4737C12.4471 20.1869 12.189 19.6534 12.0628 19.3723C11.4776 18.1503 11.2998 16.7046 11.6956 15.3966C12.1029 13.9165 13.2502 12.683 14.6729 12.1495L15.0859 12.0061C15.2293 11.9717 15.5792 11.9028 15.7169 11.8741C16.1758 11.8168 16.7036 11.8168 17.1567 11.8684C18.545 12.0405 19.9447 12.1151 21.3386 12.029C22.1991 11.9889 23.0137 11.811 23.8913 11.7651C25.8417 11.7192 27.8036 12.9756 28.4576 14.8975C28.9796 16.2973 28.7387 17.938 27.861 19.137C26.4957 20.8007 24.8379 22.3727 23.8627 24.3117L23.8569 24.306Z" fill="#E5087E"/>
<path d="M19.7872 10.7661C21.7229 10.7661 23.2922 9.19675 23.2922 7.26086C23.2922 5.32497 21.7229 3.75562 19.7872 3.75562C17.8515 3.75562 16.2822 5.32497 16.2822 7.26086C16.2822 9.19675 17.8515 10.7661 19.7872 10.7661Z" fill="#E5087E"/>
<path d="M49.184 16V4.64H54.16C54.992 4.64 55.712 4.77867 56.32 5.056C56.9387 5.33333 57.4133 5.728 57.744 6.24C58.0747 6.74133 58.24 7.33867 58.24 8.032C58.24 8.55467 58.128 9.01867 57.904 9.424C57.6907 9.82933 57.392 10.16 57.008 10.416C56.6347 10.672 56.2027 10.832 55.712 10.896L55.664 10.752C56.4213 10.752 56.9973 10.9173 57.392 11.248C57.7867 11.568 58.0107 12.064 58.064 12.736L58.352 16H55.872L55.664 13.12C55.632 12.6827 55.4933 12.3627 55.248 12.16C55.0133 11.9467 54.608 11.84 54.032 11.84H51.616V16H49.184ZM51.616 9.808H53.888C54.4747 9.808 54.928 9.67467 55.248 9.408C55.5787 9.13067 55.744 8.74133 55.744 8.24C55.744 7.728 55.5787 7.344 55.248 7.088C54.9173 6.82133 54.4373 6.688 53.808 6.688H51.616V9.808ZM63.787 16.192C62.9123 16.192 62.1497 16.0107 61.499 15.648C60.859 15.2747 60.3577 14.752 59.995 14.08C59.643 13.408 59.467 12.6187 59.467 11.712C59.467 10.8053 59.643 10.0213 59.995 9.36C60.3577 8.688 60.859 8.16533 61.499 7.792C62.139 7.41867 62.8963 7.232 63.771 7.232C64.6243 7.232 65.3657 7.41867 65.995 7.792C66.6243 8.16533 67.1097 8.69867 67.451 9.392C67.803 10.0853 67.979 10.912 67.979 11.872V12.352H61.947C61.979 13.0347 62.1603 13.5413 62.491 13.872C62.8323 14.2027 63.2803 14.368 63.835 14.368C64.2403 14.368 64.5763 14.2827 64.843 14.112C65.1203 13.9413 65.3177 13.68 65.435 13.328L67.851 13.472C67.627 14.3253 67.1523 14.992 66.427 15.472C65.7017 15.952 64.8217 16.192 63.787 16.192ZM61.947 10.88H65.515C65.483 10.2507 65.307 9.78133 64.987 9.472C64.6777 9.16267 64.2723 9.008 63.771 9.008C63.2697 9.008 62.8537 9.17333 62.523 9.504C62.203 9.824 62.011 10.2827 61.947 10.88ZM73.3503 16.192C72.4756 16.192 71.7129 16.0107 71.0623 15.648C70.4116 15.2747 69.9049 14.752 69.5423 14.08C69.1796 13.408 68.9983 12.6187 68.9983 11.712C68.9983 10.8053 69.1796 10.0213 69.5423 9.36C69.9049 8.688 70.4116 8.16533 71.0623 7.792C71.7129 7.41867 72.4756 7.232 73.3503 7.232C74.1076 7.232 74.7849 7.36533 75.3823 7.632C75.9903 7.89867 76.4809 8.28267 76.8542 8.784C77.2276 9.28533 77.4569 9.888 77.5423 10.592L75.0623 10.704C74.9876 10.1707 74.7956 9.77067 74.4863 9.504C74.1876 9.22667 73.8089 9.088 73.3503 9.088C72.7529 9.088 72.2889 9.31733 71.9583 9.776C71.6276 10.2347 71.4623 10.88 71.4623 11.712C71.4623 12.544 71.6276 13.1947 71.9583 13.664C72.2889 14.1227 72.7529 14.352 73.3503 14.352C73.8089 14.352 74.1929 14.2133 74.5023 13.936C74.8116 13.648 74.9983 13.216 75.0623 12.64L77.5423 12.736C77.4676 13.44 77.2436 14.0533 76.8703 14.576C76.5076 15.088 76.0223 15.488 75.4143 15.776C74.8169 16.0533 74.1289 16.192 73.3503 16.192ZM78.8685 16V7.424H81.1405L81.2205 9.92L81.0445 9.872C81.1832 9.008 81.4285 8.384 81.7805 8C82.1325 7.616 82.6178 7.424 83.2365 7.424H84.0205V9.408H83.2365C82.7885 9.408 82.4205 9.46667 82.1325 9.584C81.8445 9.70133 81.6258 9.888 81.4765 10.144C81.3378 10.4 81.2685 10.7467 81.2685 11.184V16H78.8685ZM88.2626 16.192C87.3773 16.192 86.684 15.9093 86.1826 15.344C85.692 14.768 85.4466 13.968 85.4466 12.944V7.424H87.8466V12.384C87.8466 13.0453 87.948 13.5307 88.1506 13.84C88.3533 14.1387 88.6733 14.288 89.1106 14.288C89.6013 14.288 89.98 14.1227 90.2466 13.792C90.524 13.4507 90.6626 12.944 90.6626 12.272V7.424H93.0626V16H90.8706L90.8066 13.536L91.1106 13.6C90.9826 14.4533 90.6786 15.0987 90.1986 15.536C89.7186 15.9733 89.0733 16.192 88.2626 16.192ZM95.0404 16V7.424H97.4404V16H95.0404ZM94.9924 6.368V4.448H97.4724V6.368H94.9924ZM102.624 16C101.738 16 101.088 15.7973 100.672 15.392C100.256 14.976 100.048 14.32 100.048 13.424V5.408H102.448V13.136C102.448 13.552 102.533 13.8347 102.704 13.984C102.885 14.1333 103.152 14.208 103.504 14.208H104.704V16H102.624ZM98.6716 9.216V7.424H104.704V9.216H98.6716Z" fill="#101828"/>
<path d="M109.472 16V4.64H110.848V15.36L110.16 14.656H116.528V16H109.472ZM121.248 16.192C120.47 16.192 119.787 16.0107 119.2 15.648C118.614 15.2853 118.16 14.7733 117.84 14.112C117.52 13.44 117.36 12.656 117.36 11.76C117.36 10.8533 117.52 10.0693 117.84 9.408C118.16 8.74667 118.614 8.23467 119.2 7.872C119.787 7.50933 120.47 7.328 121.248 7.328C122.027 7.328 122.704 7.50933 123.28 7.872C123.867 8.23467 124.32 8.74667 124.64 9.408C124.96 10.0693 125.12 10.8533 125.12 11.76C125.12 12.656 124.96 13.44 124.64 14.112C124.32 14.7733 123.867 15.2853 123.28 15.648C122.704 16.0107 122.027 16.192 121.248 16.192ZM121.248 14.912C122.027 14.912 122.63 14.6347 123.056 14.08C123.494 13.5147 123.712 12.7413 123.712 11.76C123.712 10.7787 123.494 10.0107 123.056 9.456C122.63 8.89067 122.027 8.608 121.248 8.608C120.47 8.608 119.862 8.89067 119.424 9.456C118.987 10.0107 118.768 10.7787 118.768 11.76C118.768 12.7413 118.987 13.5147 119.424 14.08C119.862 14.6347 120.47 14.912 121.248 14.912ZM130.264 16.192C129.475 16.192 128.787 16.0107 128.2 15.648C127.624 15.2853 127.176 14.7733 126.856 14.112C126.536 13.44 126.376 12.656 126.376 11.76C126.376 10.864 126.536 10.0853 126.856 9.424C127.176 8.76267 127.624 8.25067 128.2 7.888C128.787 7.51467 129.475 7.328 130.264 7.328C130.915 7.328 131.491 7.44533 131.992 7.68C132.504 7.904 132.92 8.23467 133.24 8.672C133.56 9.10933 133.768 9.64267 133.864 10.272L132.456 10.368C132.36 9.80267 132.115 9.37067 131.72 9.072C131.325 8.76267 130.84 8.608 130.264 8.608C129.485 8.608 128.877 8.89067 128.44 9.456C128.003 10.0107 127.784 10.7787 127.784 11.76C127.784 12.7413 128.003 13.5147 128.44 14.08C128.877 14.6347 129.485 14.912 130.264 14.912C130.84 14.912 131.325 14.752 131.72 14.432C132.115 14.112 132.36 13.632 132.456 12.992L133.864 13.088C133.768 13.7173 133.56 14.2667 133.24 14.736C132.92 15.1947 132.504 15.552 131.992 15.808C131.491 16.064 130.915 16.192 130.264 16.192ZM138.037 16.192C137.162 16.192 136.463 15.9893 135.941 15.584C135.429 15.1787 135.173 14.6133 135.173 13.888C135.173 13.1627 135.386 12.592 135.813 12.176C136.239 11.76 136.917 11.4667 137.845 11.296L140.853 10.736C140.853 10.0213 140.682 9.488 140.341 9.136C140.01 8.784 139.509 8.608 138.837 8.608C138.25 8.608 137.786 8.74133 137.445 9.008C137.103 9.264 136.869 9.63733 136.741 10.128L135.317 10.016C135.477 9.216 135.861 8.57067 136.469 8.08C137.087 7.57867 137.877 7.328 138.837 7.328C139.925 7.328 140.757 7.63733 141.333 8.256C141.909 8.864 142.197 9.70667 142.197 10.784V14.288C142.197 14.48 142.229 14.6187 142.293 14.704C142.367 14.7787 142.485 14.816 142.645 14.816H142.981V16C142.938 16.0107 142.869 16.016 142.773 16.016C142.677 16.0267 142.575 16.032 142.469 16.032C142.085 16.032 141.77 15.9733 141.525 15.856C141.29 15.728 141.119 15.536 141.013 15.28C140.906 15.0133 140.853 14.6667 140.853 14.24L141.013 14.272C140.938 14.6347 140.757 14.9653 140.469 15.264C140.181 15.552 139.823 15.7813 139.397 15.952C138.97 16.112 138.517 16.192 138.037 16.192ZM138.165 15.008C138.73 15.008 139.21 14.9013 139.605 14.688C140.01 14.464 140.319 14.1653 140.533 13.792C140.746 13.408 140.853 12.9813 140.853 12.512V11.904L138.101 12.416C137.525 12.5227 137.125 12.688 136.901 12.912C136.687 13.1253 136.581 13.408 136.581 13.76C136.581 14.1547 136.719 14.464 136.997 14.688C137.285 14.9013 137.674 15.008 138.165 15.008ZM146.069 16C145.578 16 145.178 15.872 144.869 15.616C144.56 15.36 144.405 14.9547 144.405 14.4V4.64H145.749V14.288C145.749 14.4587 145.792 14.592 145.877 14.688C145.973 14.7733 146.106 14.816 146.277 14.816H147.013V16H146.069Z" fill="#101828"/>
<path d="M48.744 29V23.32H50.624C51.2853 23.32 51.7813 23.4453 52.112 23.696C52.4427 23.9413 52.608 24.3253 52.608 24.848C52.608 25.0933 52.552 25.312 52.44 25.504C52.3333 25.696 52.1787 25.8453 51.976 25.952C51.7733 26.0587 51.536 26.112 51.264 26.112L51.256 26.064C51.752 26.064 52.1413 26.192 52.424 26.448C52.7067 26.704 52.848 27.04 52.848 27.456C52.848 27.968 52.6853 28.3547 52.36 28.616C52.0347 28.872 51.5627 29 50.944 29H48.744ZM49.288 28.472H50.944C51.3813 28.472 51.712 28.384 51.936 28.208C52.1653 28.032 52.28 27.7733 52.28 27.432C52.28 27.1067 52.1627 26.8533 51.928 26.672C51.6933 26.4853 51.3653 26.392 50.944 26.392H49.288V28.472ZM49.288 25.864H50.624C51.0773 25.864 51.4267 25.7787 51.672 25.608C51.9173 25.432 52.04 25.184 52.04 24.864C52.04 24.5227 51.9227 24.2693 51.688 24.104C51.4533 23.9333 51.0987 23.848 50.624 23.848H49.288V25.864ZM53.906 29V24.76H54.362L54.394 25.92L54.322 25.88C54.3913 25.5013 54.5167 25.2213 54.698 25.04C54.8793 24.8533 55.13 24.76 55.45 24.76H55.818V25.272H55.434C55.2207 25.272 55.0393 25.32 54.89 25.416C54.7407 25.5067 54.626 25.6373 54.546 25.808C54.4713 25.9787 54.434 26.1813 54.434 26.416V29H53.906ZM56.6013 29V24.76H57.1293V29H56.6013ZM56.5853 24.056V23.344H57.1453V24.056H56.5853ZM58.5076 29V24.76H58.9876L59.0116 25.872L58.9476 25.824C58.9902 25.5627 59.0782 25.3467 59.2116 25.176C59.3502 25.0053 59.5182 24.8773 59.7156 24.792C59.9129 24.7067 60.1262 24.664 60.3556 24.664C60.6809 24.664 60.9476 24.736 61.1556 24.88C61.3689 25.024 61.5262 25.2187 61.6276 25.464C61.7289 25.704 61.7796 25.9733 61.7796 26.272V29H61.2516V26.464C61.2516 26.1867 61.2169 25.9493 61.1476 25.752C61.0836 25.5547 60.9769 25.4027 60.8276 25.296C60.6782 25.1893 60.4836 25.136 60.2436 25.136C59.8809 25.136 59.5876 25.2533 59.3636 25.488C59.1449 25.7227 59.0356 26.048 59.0356 26.464V29H58.5076ZM64.5678 30.296C64.2691 30.296 63.9971 30.2427 63.7518 30.136C63.5118 30.0347 63.3144 29.8907 63.1598 29.704C63.0051 29.5173 62.9064 29.3013 62.8638 29.056L63.4158 29.024C63.4638 29.2533 63.5811 29.4373 63.7678 29.576C63.9544 29.72 64.2211 29.792 64.5678 29.792C64.9784 29.792 65.2931 29.696 65.5118 29.504C65.7358 29.312 65.8478 29.032 65.8478 28.664V27.936C65.7411 28.192 65.5704 28.3973 65.3358 28.552C65.1011 28.7067 64.8318 28.784 64.5278 28.784C64.1704 28.784 63.8531 28.6987 63.5758 28.528C63.3038 28.352 63.0904 28.1093 62.9358 27.8C62.7864 27.4907 62.7118 27.1307 62.7118 26.72C62.7118 26.3093 62.7864 25.952 62.9358 25.648C63.0904 25.3387 63.3011 25.0987 63.5678 24.928C63.8398 24.752 64.1518 24.664 64.5038 24.664C64.8291 24.664 65.1118 24.7467 65.3518 24.912C65.5971 25.072 65.7704 25.2853 65.8718 25.552V24.76H66.3758V28.664C66.3758 29 66.3038 29.2907 66.1598 29.536C66.0158 29.7813 65.8078 29.968 65.5358 30.096C65.2691 30.2293 64.9464 30.296 64.5678 30.296ZM64.5518 28.28C64.9411 28.28 65.2531 28.1413 65.4878 27.864C65.7278 27.5813 65.8478 27.2 65.8478 26.72C65.8531 26.4107 65.8024 26.1413 65.6958 25.912C65.5891 25.6773 65.4371 25.496 65.2398 25.368C65.0424 25.2347 64.8131 25.168 64.5518 25.168C64.1518 25.168 63.8371 25.3093 63.6078 25.592C63.3784 25.8693 63.2638 26.2453 63.2638 26.72C63.2638 27.2 63.3784 27.5813 63.6078 27.864C63.8424 28.1413 64.1571 28.28 64.5518 28.28ZM67.5857 29V24.76H68.1137V29H67.5857ZM67.5697 24.056V23.344H68.1297V24.056H67.5697ZM69.4919 29V24.76H69.9719L69.9959 25.872L69.9319 25.824C69.9746 25.5627 70.0626 25.3467 70.1959 25.176C70.3346 25.0053 70.5026 24.8773 70.6999 24.792C70.8973 24.7067 71.1106 24.664 71.3399 24.664C71.6653 24.664 71.9319 24.736 72.1399 24.88C72.3533 25.024 72.5106 25.2187 72.6119 25.464C72.7133 25.704 72.7639 25.9733 72.7639 26.272V29H72.2359V26.464C72.2359 26.1867 72.2013 25.9493 72.1319 25.752C72.0679 25.5547 71.9613 25.4027 71.8119 25.296C71.6626 25.1893 71.4679 25.136 71.2279 25.136C70.8653 25.136 70.5719 25.2533 70.3479 25.488C70.1293 25.7227 70.0199 26.048 70.0199 26.464V29H69.4919ZM75.5521 30.296C75.2535 30.296 74.9815 30.2427 74.7361 30.136C74.4961 30.0347 74.2988 29.8907 74.1441 29.704C73.9895 29.5173 73.8908 29.3013 73.8481 29.056L74.4001 29.024C74.4481 29.2533 74.5655 29.4373 74.7521 29.576C74.9388 29.72 75.2055 29.792 75.5521 29.792C75.9628 29.792 76.2775 29.696 76.4961 29.504C76.7201 29.312 76.8321 29.032 76.8321 28.664V27.936C76.7255 28.192 76.5548 28.3973 76.3201 28.552C76.0855 28.7067 75.8161 28.784 75.5121 28.784C75.1548 28.784 74.8375 28.6987 74.5601 28.528C74.2881 28.352 74.0748 28.1093 73.9201 27.8C73.7708 27.4907 73.6961 27.1307 73.6961 26.72C73.6961 26.3093 73.7708 25.952 73.9201 25.648C74.0748 25.3387 74.2855 25.0987 74.5521 24.928C74.8241 24.752 75.1361 24.664 75.4881 24.664C75.8135 24.664 76.0961 24.7467 76.3361 24.912C76.5815 25.072 76.7548 25.2853 76.8561 25.552V24.76H77.3601V28.664C77.3601 29 77.2881 29.2907 77.1441 29.536C77.0001 29.7813 76.7921 29.968 76.5201 30.096C76.2535 30.2293 75.9308 30.296 75.5521 30.296ZM75.5361 28.28C75.9255 28.28 76.2375 28.1413 76.4721 27.864C76.7121 27.5813 76.8321 27.2 76.8321 26.72C76.8375 26.4107 76.7868 26.1413 76.6801 25.912C76.5735 25.6773 76.4215 25.496 76.2241 25.368C76.0268 25.2347 75.7975 25.168 75.5361 25.168C75.1361 25.168 74.8215 25.3093 74.5921 25.592C74.3628 25.8693 74.2481 26.2453 74.2481 26.72C74.2481 27.2 74.3628 27.5813 74.5921 27.864C74.8268 28.1413 75.1415 28.28 75.5361 28.28ZM80.7596 29V23.32H81.3036V28.728L81.0556 28.472H84.2156V29H80.7596ZM86.5687 29.096C86.1847 29.096 85.8487 29.0053 85.5607 28.824C85.278 28.6427 85.0594 28.3867 84.9047 28.056C84.75 27.72 84.6727 27.328 84.6727 26.88C84.6727 26.4267 84.75 26.0347 84.9047 25.704C85.0594 25.3733 85.278 25.1173 85.5607 24.936C85.8487 24.7547 86.1847 24.664 86.5687 24.664C86.9527 24.664 87.286 24.7547 87.5687 24.936C87.8514 25.1173 88.07 25.3733 88.2247 25.704C88.3794 26.0347 88.4567 26.4267 88.4567 26.88C88.4567 27.328 88.3794 27.72 88.2247 28.056C88.07 28.3867 87.8514 28.6427 87.5687 28.824C87.286 29.0053 86.9527 29.096 86.5687 29.096ZM86.5687 28.592C86.9847 28.592 87.31 28.44 87.5447 28.136C87.7847 27.8267 87.9047 27.408 87.9047 26.88C87.9047 26.352 87.7847 25.936 87.5447 25.632C87.31 25.3227 86.9847 25.168 86.5687 25.168C86.1527 25.168 85.8247 25.3227 85.5847 25.632C85.3447 25.936 85.2247 26.352 85.2247 26.88C85.2247 27.408 85.3447 27.8267 85.5847 28.136C85.8247 28.44 86.1527 28.592 86.5687 28.592ZM91.014 29.096C90.6193 29.096 90.2807 29.0027 89.998 28.816C89.7153 28.624 89.4967 28.3627 89.342 28.032C89.1927 27.696 89.118 27.312 89.118 26.88C89.118 26.448 89.1927 26.0667 89.342 25.736C89.4967 25.4 89.7153 25.1387 89.998 24.952C90.2807 24.76 90.6193 24.664 91.014 24.664C91.3393 24.664 91.6247 24.7227 91.87 24.84C92.1153 24.9573 92.3153 25.1253 92.47 25.344C92.6247 25.5627 92.7287 25.8213 92.782 26.12L92.23 26.152C92.166 25.8373 92.0273 25.5947 91.814 25.424C91.606 25.2533 91.3393 25.168 91.014 25.168C90.598 25.168 90.27 25.3227 90.03 25.632C89.79 25.936 89.67 26.352 89.67 26.88C89.67 27.408 89.79 27.8267 90.03 28.136C90.27 28.44 90.598 28.592 91.014 28.592C91.3393 28.592 91.6087 28.5013 91.822 28.32C92.0407 28.1333 92.1793 27.8667 92.238 27.52L92.79 27.56C92.7367 27.8693 92.63 28.1387 92.47 28.368C92.3153 28.5973 92.1153 28.776 91.87 28.904C91.6247 29.032 91.3393 29.096 91.014 29.096ZM94.8854 29.096C94.4587 29.096 94.1174 28.9947 93.8614 28.792C93.6054 28.584 93.4774 28.304 93.4774 27.952C93.4774 27.6 93.5894 27.3227 93.8134 27.12C94.0374 26.9173 94.3654 26.776 94.7974 26.696L96.3654 26.4C96.3654 25.9787 96.2747 25.6693 96.0934 25.472C95.912 25.2693 95.6374 25.168 95.2694 25.168C94.944 25.168 94.6854 25.2453 94.4934 25.4C94.3014 25.5547 94.1734 25.7733 94.1094 26.056L93.5494 26.008C93.6294 25.5973 93.816 25.272 94.1094 25.032C94.408 24.7867 94.7947 24.664 95.2694 24.664C95.7974 24.664 96.2 24.8133 96.4774 25.112C96.7547 25.4107 96.8934 25.8373 96.8934 26.392V28.16C96.8934 28.304 96.9147 28.4027 96.9574 28.456C97.0054 28.504 97.08 28.528 97.1814 28.528H97.3094V29C97.288 29.0053 97.256 29.008 97.2134 29.008C97.176 29.0133 97.136 29.016 97.0934 29.016C96.928 29.016 96.7894 28.9867 96.6774 28.928C96.5707 28.8693 96.4907 28.7733 96.4374 28.64C96.3894 28.5067 96.3654 28.3227 96.3654 28.088L96.4294 28.096C96.3814 28.2827 96.2827 28.4533 96.1334 28.608C95.9894 28.7573 95.808 28.8773 95.5894 28.968C95.3707 29.0533 95.136 29.096 94.8854 29.096ZM94.9334 28.624C95.2267 28.624 95.48 28.5653 95.6934 28.448C95.9067 28.3307 96.072 28.1733 96.1894 27.976C96.3067 27.7733 96.3654 27.5467 96.3654 27.296V26.872L94.9094 27.144C94.6054 27.2027 94.3814 27.2933 94.2374 27.416C94.0987 27.5387 94.0294 27.7013 94.0294 27.904C94.0294 28.1333 94.1094 28.312 94.2694 28.44C94.4294 28.5627 94.6507 28.624 94.9334 28.624ZM98.8539 29C98.6139 29 98.4245 28.9413 98.2859 28.824C98.1472 28.7013 98.0779 28.512 98.0779 28.256V23.32H98.6059V28.216C98.6059 28.3173 98.6325 28.3947 98.6859 28.448C98.7392 28.5013 98.8192 28.528 98.9259 28.528H99.2619V29H98.8539ZM103.405 29V23.848H101.581V23.32H105.773V23.848H103.949V29H103.405ZM107.081 29.096C106.654 29.096 106.313 28.9947 106.057 28.792C105.801 28.584 105.673 28.304 105.673 27.952C105.673 27.6 105.785 27.3227 106.009 27.12C106.233 26.9173 106.561 26.776 106.993 26.696L108.561 26.4C108.561 25.9787 108.47 25.6693 108.289 25.472C108.107 25.2693 107.833 25.168 107.465 25.168C107.139 25.168 106.881 25.2453 106.689 25.4C106.497 25.5547 106.369 25.7733 106.305 26.056L105.745 26.008C105.825 25.5973 106.011 25.272 106.305 25.032C106.603 24.7867 106.99 24.664 107.465 24.664C107.993 24.664 108.395 24.8133 108.673 25.112C108.95 25.4107 109.089 25.8373 109.089 26.392V28.16C109.089 28.304 109.11 28.4027 109.153 28.456C109.201 28.504 109.275 28.528 109.377 28.528H109.505V29C109.483 29.0053 109.451 29.008 109.409 29.008C109.371 29.0133 109.331 29.016 109.289 29.016C109.123 29.016 108.985 28.9867 108.873 28.928C108.766 28.8693 108.686 28.7733 108.633 28.64C108.585 28.5067 108.561 28.3227 108.561 28.088L108.625 28.096C108.577 28.2827 108.478 28.4533 108.329 28.608C108.185 28.7573 108.003 28.8773 107.785 28.968C107.566 29.0533 107.331 29.096 107.081 29.096ZM107.129 28.624C107.422 28.624 107.675 28.5653 107.889 28.448C108.102 28.3307 108.267 28.1733 108.385 27.976C108.502 27.7733 108.561 27.5467 108.561 27.296V26.872L107.105 27.144C106.801 27.2027 106.577 27.2933 106.433 27.416C106.294 27.5387 106.225 27.7013 106.225 27.904C106.225 28.1333 106.305 28.312 106.465 28.44C106.625 28.5627 106.846 28.624 107.129 28.624ZM111.049 29C110.809 29 110.62 28.9413 110.481 28.824C110.343 28.7013 110.273 28.512 110.273 28.256V23.32H110.801V28.216C110.801 28.3173 110.828 28.3947 110.881 28.448C110.935 28.5013 111.015 28.528 111.121 28.528H111.457V29H111.049ZM113.913 29.096C113.507 29.096 113.163 29.0027 112.881 28.816C112.598 28.624 112.379 28.3627 112.225 28.032C112.075 27.696 112.001 27.312 112.001 26.88C112.001 26.448 112.075 26.0667 112.225 25.736C112.374 25.4 112.587 25.1387 112.865 24.952C113.147 24.76 113.486 24.664 113.881 24.664C114.259 24.664 114.587 24.7547 114.865 24.936C115.142 25.1173 115.353 25.3733 115.497 25.704C115.646 26.0347 115.721 26.4213 115.721 26.864V27.032H112.553C112.574 27.5333 112.705 27.92 112.945 28.192C113.185 28.4587 113.507 28.592 113.913 28.592C114.222 28.592 114.475 28.5173 114.673 28.368C114.87 28.2187 115.006 28.0213 115.081 27.776L115.649 27.816C115.542 28.1893 115.337 28.496 115.033 28.736C114.729 28.976 114.355 29.096 113.913 29.096ZM112.553 26.56H115.145C115.118 26.1067 114.993 25.7627 114.769 25.528C114.545 25.288 114.249 25.168 113.881 25.168C113.513 25.168 113.211 25.288 112.977 25.528C112.742 25.768 112.601 26.112 112.553 26.56ZM116.664 29V24.76H117.144L117.168 25.872L117.104 25.824C117.146 25.5627 117.234 25.3467 117.368 25.176C117.506 25.0053 117.674 24.8773 117.872 24.792C118.069 24.7067 118.282 24.664 118.512 24.664C118.837 24.664 119.104 24.736 119.312 24.88C119.525 25.024 119.682 25.2187 119.784 25.464C119.885 25.704 119.936 25.9733 119.936 26.272V29H119.408V26.464C119.408 26.1867 119.373 25.9493 119.304 25.752C119.24 25.5547 119.133 25.4027 118.984 25.296C118.834 25.1893 118.64 25.136 118.4 25.136C118.037 25.136 117.744 25.2533 117.52 25.488C117.301 25.7227 117.192 26.048 117.192 26.464V29H116.664ZM122.386 29C122.039 29 121.783 28.92 121.618 28.76C121.453 28.5947 121.37 28.344 121.37 28.008V23.768H121.898V27.992C121.898 28.1893 121.941 28.328 122.026 28.408C122.117 28.488 122.253 28.528 122.434 28.528H122.994V29H122.386ZM120.706 25.232V24.76H122.994V25.232H120.706ZM127.057 29.096C126.631 29.096 126.289 28.9947 126.033 28.792C125.777 28.584 125.649 28.304 125.649 27.952C125.649 27.6 125.761 27.3227 125.985 27.12C126.209 26.9173 126.537 26.776 126.969 26.696L128.537 26.4C128.537 25.9787 128.447 25.6693 128.265 25.472C128.084 25.2693 127.809 25.168 127.441 25.168C127.116 25.168 126.857 25.2453 126.665 25.4C126.473 25.5547 126.345 25.7733 126.281 26.056L125.721 26.008C125.801 25.5973 125.988 25.272 126.281 25.032C126.58 24.7867 126.967 24.664 127.441 24.664C127.969 24.664 128.372 24.8133 128.649 25.112C128.927 25.4107 129.065 25.8373 129.065 26.392V28.16C129.065 28.304 129.087 28.4027 129.129 28.456C129.177 28.504 129.252 28.528 129.353 28.528H129.481V29C129.46 29.0053 129.428 29.008 129.385 29.008C129.348 29.0133 129.308 29.016 129.265 29.016C129.1 29.016 128.961 28.9867 128.849 28.928C128.743 28.8693 128.663 28.7733 128.609 28.64C128.561 28.5067 128.537 28.3227 128.537 28.088L128.601 28.096C128.553 28.2827 128.455 28.4533 128.305 28.608C128.161 28.7573 127.98 28.8773 127.761 28.968C127.543 29.0533 127.308 29.096 127.057 29.096ZM127.105 28.624C127.399 28.624 127.652 28.5653 127.865 28.448C128.079 28.3307 128.244 28.1733 128.361 27.976C128.479 27.7733 128.537 27.5467 128.537 27.296V26.872L127.081 27.144C126.777 27.2027 126.553 27.2933 126.409 27.416C126.271 27.5387 126.201 27.7013 126.201 27.904C126.201 28.1333 126.281 28.312 126.441 28.44C126.601 28.5627 126.823 28.624 127.105 28.624ZM130.281 29V24.76H130.761L130.785 25.872L130.721 25.824C130.764 25.5627 130.852 25.3467 130.985 25.176C131.124 25.0053 131.292 24.8773 131.489 24.792C131.686 24.7067 131.9 24.664 132.129 24.664C132.454 24.664 132.721 24.736 132.929 24.88C133.142 25.024 133.3 25.2187 133.401 25.464C133.502 25.704 133.553 25.9733 133.553 26.272V29H133.025V26.464C133.025 26.1867 132.99 25.9493 132.921 25.752C132.857 25.5547 132.75 25.4027 132.601 25.296C132.452 25.1893 132.257 25.136 132.017 25.136C131.654 25.136 131.361 25.2533 131.137 25.488C130.918 25.7227 130.809 26.048 130.809 26.464V29H130.281ZM136.269 29.096C135.901 29.096 135.584 29.0053 135.317 28.824C135.051 28.6427 134.845 28.3867 134.701 28.056C134.557 27.7253 134.485 27.3333 134.485 26.88C134.485 26.4267 134.557 26.0347 134.701 25.704C134.845 25.3733 135.051 25.1173 135.317 24.936C135.584 24.7547 135.901 24.664 136.269 24.664C136.579 24.664 136.853 24.7413 137.093 24.896C137.339 25.0453 137.517 25.248 137.629 25.504V23.32H138.157V29H137.693L137.669 28.208C137.552 28.4853 137.365 28.704 137.109 28.864C136.859 29.0187 136.579 29.096 136.269 29.096ZM136.357 28.592C136.624 28.592 136.851 28.5227 137.037 28.384C137.229 28.24 137.376 28.04 137.477 27.784C137.579 27.5227 137.629 27.2213 137.629 26.88C137.629 26.5387 137.579 26.24 137.477 25.984C137.376 25.728 137.229 25.528 137.037 25.384C136.851 25.24 136.624 25.168 136.357 25.168C135.957 25.168 135.637 25.3227 135.397 25.632C135.157 25.936 135.037 26.352 135.037 26.88C135.037 27.4027 135.157 27.8187 135.397 28.128C135.637 28.4373 135.957 28.592 136.357 28.592ZM143.733 29.128C143.205 29.128 142.749 29.0107 142.365 28.776C141.986 28.536 141.695 28.1947 141.493 27.752C141.29 27.3093 141.189 26.7813 141.189 26.168C141.189 25.5547 141.29 25.0267 141.493 24.584C141.695 24.136 141.986 23.792 142.365 23.552C142.749 23.312 143.205 23.192 143.733 23.192C144.266 23.192 144.722 23.312 145.101 23.552C145.479 23.792 145.77 24.136 145.973 24.584C146.181 25.0267 146.285 25.5547 146.285 26.168C146.285 26.7813 146.181 27.3093 145.973 27.752C145.77 28.1947 145.479 28.536 145.101 28.776C144.722 29.0107 144.266 29.128 143.733 29.128ZM143.733 28.592C144.149 28.592 144.503 28.496 144.797 28.304C145.09 28.112 145.317 27.8347 145.477 27.472C145.637 27.1093 145.717 26.6747 145.717 26.168C145.717 25.6613 145.637 25.2267 145.477 24.864C145.317 24.496 145.09 24.216 144.797 24.024C144.503 23.8267 144.149 23.728 143.733 23.728C143.322 23.728 142.967 23.8267 142.669 24.024C142.375 24.216 142.149 24.496 141.988 24.864C141.834 25.2267 141.757 25.6613 141.757 26.168C141.757 26.6747 141.834 27.1093 141.988 27.472C142.149 27.8347 142.375 28.112 142.669 28.304C142.967 28.496 143.322 28.592 143.733 28.592ZM147.32 30.2V24.76H147.8L147.816 25.832L147.728 25.792C147.835 25.424 148.019 25.144 148.28 24.952C148.541 24.76 148.845 24.664 149.192 24.664C149.592 24.664 149.923 24.7653 150.184 24.968C150.451 25.1653 150.651 25.432 150.784 25.768C150.923 26.0987 150.992 26.4693 150.992 26.88C150.992 27.2907 150.925 27.664 150.792 28C150.659 28.3307 150.459 28.5973 150.192 28.8C149.925 28.9973 149.592 29.096 149.192 29.096C148.957 29.096 148.739 29.0507 148.536 28.96C148.339 28.864 148.171 28.736 148.032 28.576C147.899 28.416 147.808 28.2347 147.76 28.032L147.848 27.928V30.2H147.32ZM149.152 28.592C149.547 28.592 149.859 28.44 150.088 28.136C150.317 27.832 150.432 27.4133 150.432 26.88C150.432 26.3467 150.317 25.928 150.088 25.624C149.859 25.32 149.544 25.168 149.144 25.168C148.883 25.168 148.653 25.2373 148.456 25.376C148.264 25.5093 148.115 25.704 148.008 25.96C147.901 26.216 147.848 26.5227 147.848 26.88C147.848 27.2373 147.901 27.544 148.008 27.8C148.115 28.056 148.267 28.2533 148.464 28.392C148.661 28.5253 148.891 28.592 149.152 28.592ZM151.937 30.2V24.76H152.417L152.433 25.832L152.345 25.792C152.452 25.424 152.636 25.144 152.897 24.952C153.159 24.76 153.463 24.664 153.809 24.664C154.209 24.664 154.54 24.7653 154.801 24.968C155.068 25.1653 155.268 25.432 155.401 25.768C155.54 26.0987 155.609 26.4693 155.609 26.88C155.609 27.2907 155.543 27.664 155.409 28C155.276 28.3307 155.076 28.5973 154.809 28.8C154.543 28.9973 154.209 29.096 153.809 29.096C153.575 29.096 153.356 29.0507 153.153 28.96C152.956 28.864 152.788 28.736 152.649 28.576C152.516 28.416 152.425 28.2347 152.377 28.032L152.465 27.928V30.2H151.937ZM153.769 28.592C154.164 28.592 154.476 28.44 154.705 28.136C154.935 27.832 155.049 27.4133 155.049 26.88C155.049 26.3467 154.935 25.928 154.705 25.624C154.476 25.32 154.161 25.168 153.761 25.168C153.5 25.168 153.271 25.2373 153.073 25.376C152.881 25.5093 152.732 25.704 152.625 25.96C152.519 26.216 152.465 26.5227 152.465 26.88C152.465 27.2373 152.519 27.544 152.625 27.8C152.732 28.056 152.884 28.2533 153.081 28.392C153.279 28.5253 153.508 28.592 153.769 28.592ZM158.162 29.096C157.778 29.096 157.442 29.0053 157.154 28.824C156.872 28.6427 156.653 28.3867 156.498 28.056C156.344 27.72 156.266 27.328 156.266 26.88C156.266 26.4267 156.344 26.0347 156.498 25.704C156.653 25.3733 156.872 25.1173 157.154 24.936C157.442 24.7547 157.778 24.664 158.162 24.664C158.546 24.664 158.88 24.7547 159.162 24.936C159.445 25.1173 159.664 25.3733 159.818 25.704C159.973 26.0347 160.05 26.4267 160.05 26.88C160.05 27.328 159.973 27.72 159.818 28.056C159.664 28.3867 159.445 28.6427 159.162 28.824C158.88 29.0053 158.546 29.096 158.162 29.096ZM158.162 28.592C158.578 28.592 158.904 28.44 159.138 28.136C159.378 27.8267 159.498 27.408 159.498 26.88C159.498 26.352 159.378 25.936 159.138 25.632C158.904 25.3227 158.578 25.168 158.162 25.168C157.746 25.168 157.418 25.3227 157.178 25.632C156.938 25.936 156.818 26.352 156.818 26.88C156.818 27.408 156.938 27.8267 157.178 28.136C157.418 28.44 157.746 28.592 158.162 28.592ZM161 29V24.76H161.456L161.488 25.92L161.416 25.88C161.485 25.5013 161.61 25.2213 161.792 25.04C161.973 24.8533 162.224 24.76 162.544 24.76H162.912V25.272H162.528C162.314 25.272 162.133 25.32 161.984 25.416C161.834 25.5067 161.72 25.6373 161.64 25.808C161.565 25.9787 161.528 26.1813 161.528 26.416V29H161ZM164.995 29C164.649 29 164.393 28.92 164.227 28.76C164.062 28.5947 163.979 28.344 163.979 28.008V23.768H164.507V27.992C164.507 28.1893 164.55 28.328 164.635 28.408C164.726 28.488 164.862 28.528 165.043 28.528H165.603V29H164.995ZM163.315 25.232V24.76H165.603V25.232H163.315ZM167.9 29.096C167.478 29.096 167.14 28.9547 166.884 28.672C166.633 28.384 166.508 27.9893 166.508 27.488V24.76H167.036V27.328C167.036 27.7653 167.118 28.0907 167.284 28.304C167.454 28.5173 167.705 28.624 168.036 28.624C168.404 28.624 168.692 28.504 168.9 28.264C169.113 28.024 169.22 27.6987 169.22 27.288V24.76H169.748V29H169.252L169.244 27.912L169.324 27.952C169.254 28.3147 169.094 28.5973 168.844 28.8C168.598 28.9973 168.284 29.096 167.9 29.096ZM171.062 29V24.76H171.542L171.566 25.872L171.502 25.824C171.545 25.5627 171.633 25.3467 171.766 25.176C171.905 25.0053 172.073 24.8773 172.27 24.792C172.468 24.7067 172.681 24.664 172.91 24.664C173.236 24.664 173.502 24.736 173.71 24.88C173.924 25.024 174.081 25.2187 174.182 25.464C174.284 25.704 174.334 25.9733 174.334 26.272V29H173.806V26.464C173.806 26.1867 173.772 25.9493 173.702 25.752C173.638 25.5547 173.532 25.4027 173.382 25.296C173.233 25.1893 173.038 25.136 172.798 25.136C172.436 25.136 172.142 25.2533 171.918 25.488C171.7 25.7227 171.59 26.048 171.59 26.464V29H171.062ZM175.57 29V24.76H176.098V29H175.57ZM175.554 24.056V23.344H176.114V24.056H175.554ZM178.581 29C178.235 29 177.979 28.92 177.813 28.76C177.648 28.5947 177.565 28.344 177.565 28.008V23.768H178.093V27.992C178.093 28.1893 178.136 28.328 178.221 28.408C178.312 28.488 178.448 28.528 178.629 28.528H179.189V29H178.581ZM176.901 25.232V24.76H179.189V25.232H176.901ZM180.175 30.2V29.728H180.607C180.783 29.728 180.911 29.6987 180.991 29.64C181.076 29.5867 181.145 29.4907 181.199 29.352L181.359 28.92H181.167L179.575 24.76H180.151L181.519 28.448L182.823 24.76H183.399L181.655 29.528C181.569 29.7627 181.449 29.9333 181.295 30.04C181.145 30.1467 180.929 30.2 180.647 30.2H180.175ZM187.514 29V23.848H185.69V23.32H189.882V23.848H188.058V29H187.514ZM191.6 29.096C191.216 29.096 190.88 29.0053 190.592 28.824C190.309 28.6427 190.091 28.3867 189.936 28.056C189.781 27.72 189.704 27.328 189.704 26.88C189.704 26.4267 189.781 26.0347 189.936 25.704C190.091 25.3733 190.309 25.1173 190.592 24.936C190.88 24.7547 191.216 24.664 191.6 24.664C191.984 24.664 192.317 24.7547 192.6 24.936C192.883 25.1173 193.101 25.3733 193.256 25.704C193.411 26.0347 193.488 26.4267 193.488 26.88C193.488 27.328 193.411 27.72 193.256 28.056C193.101 28.3867 192.883 28.6427 192.6 28.824C192.317 29.0053 191.984 29.096 191.6 29.096ZM191.6 28.592C192.016 28.592 192.341 28.44 192.576 28.136C192.816 27.8267 192.936 27.408 192.936 26.88C192.936 26.352 192.816 25.936 192.576 25.632C192.341 25.3227 192.016 25.168 191.6 25.168C191.184 25.168 190.856 25.3227 190.616 25.632C190.376 25.936 190.256 26.352 190.256 26.88C190.256 27.408 190.376 27.8267 190.616 28.136C190.856 28.44 191.184 28.592 191.6 28.592ZM196.005 30.296C195.707 30.296 195.435 30.2427 195.189 30.136C194.949 30.0347 194.752 29.8907 194.597 29.704C194.443 29.5173 194.344 29.3013 194.301 29.056L194.853 29.024C194.901 29.2533 195.019 29.4373 195.205 29.576C195.392 29.72 195.659 29.792 196.005 29.792C196.416 29.792 196.731 29.696 196.949 29.504C197.173 29.312 197.285 29.032 197.285 28.664V27.936C197.179 28.192 197.008 28.3973 196.773 28.552C196.539 28.7067 196.269 28.784 195.965 28.784C195.608 28.784 195.291 28.6987 195.013 28.528C194.741 28.352 194.528 28.1093 194.373 27.8C194.224 27.4907 194.149 27.1307 194.149 26.72C194.149 26.3093 194.224 25.952 194.373 25.648C194.528 25.3387 194.739 25.0987 195.005 24.928C195.277 24.752 195.589 24.664 195.941 24.664C196.267 24.664 196.549 24.7467 196.789 24.912C197.035 25.072 197.208 25.2853 197.309 25.552V24.76H197.813V28.664C197.813 29 197.741 29.2907 197.597 29.536C197.453 29.7813 197.245 29.968 196.973 30.096C196.707 30.2293 196.384 30.296 196.005 30.296ZM195.989 28.28C196.379 28.28 196.691 28.1413 196.925 27.864C197.165 27.5813 197.285 27.2 197.285 26.72C197.291 26.4107 197.24 26.1413 197.133 25.912C197.027 25.6773 196.875 25.496 196.677 25.368C196.48 25.2347 196.251 25.168 195.989 25.168C195.589 25.168 195.275 25.3093 195.045 25.592C194.816 25.8693 194.701 26.2453 194.701 26.72C194.701 27.2 194.816 27.5813 195.045 27.864C195.28 28.1413 195.595 28.28 195.989 28.28ZM200.671 29.096C200.265 29.096 199.921 29.0027 199.639 28.816C199.356 28.624 199.137 28.3627 198.983 28.032C198.833 27.696 198.759 27.312 198.759 26.88C198.759 26.448 198.833 26.0667 198.983 25.736C199.132 25.4 199.345 25.1387 199.623 24.952C199.905 24.76 200.244 24.664 200.639 24.664C201.017 24.664 201.345 24.7547 201.623 24.936C201.9 25.1173 202.111 25.3733 202.255 25.704C202.404 26.0347 202.479 26.4213 202.479 26.864V27.032H199.311C199.332 27.5333 199.463 27.92 199.703 28.192C199.943 28.4587 200.265 28.592 200.671 28.592C200.98 28.592 201.233 28.5173 201.431 28.368C201.628 28.2187 201.764 28.0213 201.839 27.776L202.407 27.816C202.3 28.1893 202.095 28.496 201.791 28.736C201.487 28.976 201.113 29.096 200.671 29.096ZM199.311 26.56H201.903C201.876 26.1067 201.751 25.7627 201.527 25.528C201.303 25.288 201.007 25.168 200.639 25.168C200.271 25.168 199.969 25.288 199.735 25.528C199.5 25.768 199.359 26.112 199.311 26.56ZM204.714 29C204.367 29 204.111 28.92 203.946 28.76C203.781 28.5947 203.698 28.344 203.698 28.008V23.768H204.226V27.992C204.226 28.1893 204.269 28.328 204.354 28.408C204.445 28.488 204.581 28.528 204.762 28.528H205.322V29H204.714ZM203.034 25.232V24.76H205.322V25.232H203.034ZM206.219 29V23.32H206.747V25.768L206.683 25.76C206.725 25.5093 206.811 25.304 206.939 25.144C207.072 24.984 207.237 24.864 207.435 24.784C207.632 24.704 207.848 24.664 208.083 24.664C208.392 24.664 208.651 24.7333 208.859 24.872C209.067 25.0107 209.224 25.2027 209.331 25.448C209.437 25.688 209.491 25.9627 209.491 26.272V29H208.963V26.464C208.963 26.0373 208.883 25.7093 208.723 25.48C208.563 25.2507 208.309 25.136 207.963 25.136C207.589 25.136 207.293 25.256 207.075 25.496C206.856 25.7307 206.747 26.056 206.747 26.472V29H206.219ZM212.335 29.096C211.929 29.096 211.585 29.0027 211.303 28.816C211.02 28.624 210.801 28.3627 210.647 28.032C210.497 27.696 210.423 27.312 210.423 26.88C210.423 26.448 210.497 26.0667 210.647 25.736C210.796 25.4 211.009 25.1387 211.287 24.952C211.569 24.76 211.908 24.664 212.303 24.664C212.681 24.664 213.009 24.7547 213.287 24.936C213.564 25.1173 213.775 25.3733 213.919 25.704C214.068 26.0347 214.143 26.4213 214.143 26.864V27.032H210.975C210.996 27.5333 211.127 27.92 211.367 28.192C211.607 28.4587 211.929 28.592 212.335 28.592C212.644 28.592 212.897 28.5173 213.095 28.368C213.292 28.2187 213.428 28.0213 213.503 27.776L214.071 27.816C213.964 28.1893 213.759 28.496 213.455 28.736C213.151 28.976 212.777 29.096 212.335 29.096ZM210.975 26.56H213.567C213.54 26.1067 213.415 25.7627 213.191 25.528C212.967 25.288 212.671 25.168 212.303 25.168C211.935 25.168 211.633 25.288 211.399 25.528C211.164 25.768 211.023 26.112 210.975 26.56ZM215.086 29V24.76H215.542L215.574 25.92L215.502 25.88C215.571 25.5013 215.696 25.2213 215.878 25.04C216.059 24.8533 216.31 24.76 216.63 24.76H216.998V25.272H216.614C216.4 25.272 216.219 25.32 216.07 25.416C215.92 25.5067 215.806 25.6373 215.726 25.808C215.651 25.9787 215.614 26.1813 215.614 26.416V29H215.086Z" fill="#101828"/>
</svg>
