<svg width="232" height="25" viewBox="0 0 232 25" fill="none" xmlns="http://www.w3.org/2000/svg">
<path d="M12.8041 21.6066C13.7886 19.9049 14.293 17.869 14.8095 15.9667C14.8946 15.6689 14.9918 15.3651 15.083 15.0673C15.1012 14.97 15.1376 14.7756 15.162 14.6722C15.3017 13.6755 15.162 12.77 14.688 11.8523C14.4266 11.3904 14.0924 10.965 13.667 10.6368C13.582 10.5761 13.3875 10.4606 13.3024 10.4059C13.2234 10.3694 12.9803 10.26 12.8953 10.2175C10.665 9.65836 8.27071 9.76776 5.99793 10.0291C5.67585 10.0716 5.39024 10.1628 5.09854 10.2904C4.93446 10.3451 4.73393 10.491 4.58808 10.57C4.51516 10.6247 4.32677 10.7827 4.25992 10.8374C4.19915 10.9042 4.04115 11.0744 3.97431 11.1352C3.12354 12.1927 2.844 13.712 3.64615 14.8728C4.39362 16.0701 5.12893 17.3038 5.76093 18.5557C6.14378 19.2972 6.61778 20.3243 6.96416 21.09C7.18293 21.6187 7.55363 22.1049 7.99724 22.4817C9.5651 23.7458 11.7893 23.363 12.792 21.5884L12.8041 21.6066ZM13.108 21.7707C11.9716 23.9099 9.57117 25.2713 7.10393 24.7851C5.78524 24.5116 4.62454 23.6729 3.90138 22.5425C3.75554 22.3237 3.43954 21.8193 3.29977 21.5944C2.51584 20.3364 1.80484 19.0419 1.16676 17.711C1.02091 17.4071 0.747451 16.8419 0.613758 16.5441C-0.00609034 15.2496 -0.194475 13.7181 0.224834 12.3324C0.656297 10.7645 1.87169 9.45781 3.37877 8.89261L3.81631 8.74067C3.96823 8.70421 4.33893 8.63128 4.48477 8.60089C4.97093 8.54012 5.53001 8.54012 6.01008 8.59481C7.4807 8.77714 8.96348 8.85614 10.4402 8.76498C11.3517 8.72244 12.2146 8.53404 13.1444 8.48542C15.2106 8.4368 17.2889 9.76776 17.9817 11.8037C18.5347 13.2866 18.2794 15.0247 17.3497 16.2949C15.9033 18.0574 14.1471 19.7226 13.114 21.7768L13.108 21.7707Z" fill="#70648D"/>
<path d="M8.7843 7.42662C10.8349 7.42662 12.4973 5.76411 12.4973 3.71331C12.4973 1.66251 10.8349 0 8.7843 0C6.73366 0 5.07129 1.66251 5.07129 3.71331C5.07129 5.76411 6.73366 7.42662 8.7843 7.42662Z" fill="#70648D"/>
<path d="M36.9115 21.6066C37.896 19.9049 38.4004 17.869 38.9169 15.9667C39.002 15.6689 39.0992 15.3651 39.1904 15.0673C39.2086 14.97 39.2451 14.7756 39.2694 14.6722C39.4092 13.6755 39.2694 12.77 38.7954 11.8523C38.5341 11.3904 38.1998 10.965 37.7745 10.6368C37.6894 10.5761 37.4949 10.4606 37.4098 10.4059C37.3308 10.3694 37.0878 10.26 37.0027 10.2175C34.7724 9.65836 32.3781 9.76776 30.1054 10.0291C29.7833 10.0716 29.4977 10.1628 29.206 10.2904C29.0419 10.3451 28.8413 10.491 28.6955 10.57C28.6226 10.6247 28.4342 10.7827 28.3673 10.8374C28.3066 10.9042 28.1486 11.0744 28.0817 11.1352C27.231 12.1927 26.9514 13.712 27.7536 14.8728C28.501 16.0701 29.2363 17.3038 29.8684 18.5557C30.2512 19.2972 30.7252 20.3243 31.0716 21.09C31.2904 21.6187 31.661 22.1049 32.1047 22.4817C33.6725 23.7458 35.8967 23.363 36.8994 21.5884L36.9115 21.6066ZM37.2154 21.7707C36.079 23.9099 33.6786 25.2713 31.2114 24.7851C29.8927 24.5116 28.732 23.6729 28.0088 22.5425C27.863 22.3237 27.547 21.8193 27.4072 21.5944C26.6233 20.3364 25.9123 19.0419 25.2742 17.711C25.1283 17.4071 24.8549 16.8419 24.7212 16.5441C24.1013 15.2496 23.9129 13.7181 24.3323 12.3324C24.7637 10.7645 25.9791 9.45781 27.4862 8.89261L27.9237 8.74067C28.0757 8.70421 28.4463 8.63128 28.5922 8.60089C29.0783 8.54012 29.6374 8.54012 30.1175 8.59481C31.5881 8.77714 33.0709 8.85614 34.5476 8.76498C35.4591 8.72244 36.3221 8.53404 37.2518 8.48542C39.318 8.4368 41.3963 9.76776 42.0891 11.8037C42.6421 13.2866 42.3869 15.0247 41.4571 16.2949C40.0108 18.0574 38.2545 19.7226 37.2214 21.7768L37.2154 21.7707Z" fill="#70648D"/>
<path d="M32.8961 7.42662C34.9468 7.42662 36.6091 5.76411 36.6091 3.71331C36.6091 1.66251 34.9468 0 32.8961 0C30.8455 0 29.1831 1.66251 29.1831 3.71331C29.1831 5.76411 30.8455 7.42662 32.8961 7.42662Z" fill="#70648D"/>
<path d="M24.974 21.6066C25.9585 19.9049 26.4629 17.869 26.9794 15.9667C27.0645 15.6689 27.1617 15.3651 27.2529 15.0673C27.2711 14.97 27.3076 14.7756 27.3319 14.6722C27.4717 13.6755 27.3319 12.77 26.8579 11.8523C26.5966 11.3904 26.2623 10.965 25.8369 10.6368C25.7519 10.5761 25.5574 10.4606 25.4723 10.4059C25.3933 10.3694 25.1503 10.26 25.0652 10.2175C22.8349 9.65836 20.4406 9.76776 18.1679 10.0291C17.8458 10.0716 17.5602 10.1628 17.2685 10.2904C17.1044 10.3451 16.9038 10.491 16.758 10.57C16.6851 10.6247 16.4967 10.7827 16.4298 10.8374C16.3691 10.9042 16.2111 11.0744 16.1442 11.1352C15.2935 12.1927 15.0139 13.712 15.8161 14.8728C16.5635 16.0701 17.2988 17.3038 17.9309 18.5557C18.3137 19.2972 18.7877 20.3243 19.1341 21.09C19.3529 21.6187 19.7235 22.1049 20.1672 22.4817C21.735 23.7458 23.9592 23.363 24.9619 21.5884L24.974 21.6066ZM25.2779 21.7707C24.1415 23.9099 21.7411 25.2713 19.2739 24.7851C17.9552 24.5116 16.7945 23.6729 16.0713 22.5425C15.9255 22.3237 15.6095 21.8193 15.4697 21.5944C14.6858 20.3364 13.9748 19.0419 13.3367 17.711C13.1908 17.4071 12.9174 16.8419 12.7837 16.5441C12.1638 15.2496 11.9754 13.7181 12.3948 12.3324C12.8262 10.7645 14.0416 9.45781 15.5487 8.89261L15.9862 8.74067C16.1381 8.70421 16.5088 8.63128 16.6547 8.60089C17.1408 8.54012 17.6999 8.54012 18.18 8.59481C19.6506 8.77714 21.1334 8.85614 22.6101 8.76498C23.5216 8.72244 24.3846 8.53404 25.3143 8.48542C27.3805 8.4368 29.4588 9.76776 30.1516 11.8037C30.7046 13.2866 30.4494 15.0247 29.5196 16.2949C28.0733 18.0574 26.317 19.7226 25.2839 21.7768L25.2779 21.7707Z" fill="#E5087E"/>
<path d="M20.9635 7.42662C23.0141 7.42662 24.6765 5.76411 24.6765 3.71331C24.6765 1.66251 23.0141 0 20.9635 0C18.9129 0 17.2505 1.66251 17.2505 3.71331C17.2505 5.76411 18.9129 7.42662 20.9635 7.42662Z" fill="#E5087E"/>
<path d="M51.8996 17.4419V7.40483H56.2962C57.0313 7.40483 57.6674 7.52735 58.2046 7.77238C58.7512 8.01742 59.1706 8.36612 59.4628 8.8185C59.7549 9.26145 59.901 9.78922 59.901 10.4018C59.901 10.8636 59.8021 11.2736 59.6041 11.6317C59.4157 11.9898 59.1518 12.282 58.8125 12.5082C58.4826 12.7344 58.1009 12.8757 57.6674 12.9323L57.625 12.8051C58.2941 12.8051 58.8031 12.9511 59.1518 13.2433C59.5005 13.526 59.6984 13.9643 59.7455 14.558L60 17.4419H57.8088L57.625 14.8973C57.5967 14.5109 57.4742 14.2281 57.2574 14.0491C57.0501 13.8606 56.692 13.7663 56.1831 13.7663H54.0484V17.4419H51.8996ZM54.0484 11.971H56.0558C56.5742 11.971 56.9747 11.8532 57.2574 11.6176C57.5496 11.3725 57.6957 11.0285 57.6957 10.5856C57.6957 10.1332 57.5496 9.79393 57.2574 9.56774C56.9653 9.33213 56.5412 9.21433 55.9851 9.21433H54.0484V11.971ZM64.802 17.6115C64.0292 17.6115 63.3554 17.4513 62.7805 17.1309C62.215 16.801 61.7721 16.3392 61.4516 15.7455C61.1406 15.1517 60.9851 14.4543 60.9851 13.6533C60.9851 12.8522 61.1406 12.1595 61.4516 11.5752C61.7721 10.9814 62.215 10.5196 62.7805 10.1898C63.346 9.8599 64.0151 9.69498 64.7879 9.69498C65.5419 9.69498 66.1969 9.8599 66.7529 10.1898C67.3089 10.5196 67.7378 10.9908 68.0393 11.6034C68.3503 12.216 68.5059 12.9464 68.5059 13.7946V14.2187H63.1763C63.2046 14.8219 63.3648 15.2696 63.657 15.5617C63.9585 15.8539 64.3544 15.9999 64.8444 15.9999C65.2026 15.9999 65.4994 15.9246 65.7351 15.7738C65.9801 15.623 66.1544 15.3921 66.2581 15.0811L68.3928 15.2083C68.1948 15.9623 67.7755 16.5513 67.1346 16.9754C66.4937 17.3995 65.7162 17.6115 64.802 17.6115ZM63.1763 12.9181H66.3288C66.3005 12.3621 66.145 11.9474 65.8623 11.6741C65.589 11.4008 65.2308 11.2642 64.7879 11.2642C64.3449 11.2642 63.9774 11.4102 63.6852 11.7024C63.4025 11.9851 63.2329 12.3904 63.1763 12.9181ZM73.2516 17.6115C72.4788 17.6115 71.8049 17.4513 71.23 17.1309C70.6551 16.801 70.2075 16.3392 69.8871 15.7455C69.5666 15.1517 69.4064 14.4543 69.4064 13.6533C69.4064 12.8522 69.5666 12.1595 69.8871 11.5752C70.2075 10.9814 70.6551 10.5196 71.23 10.1898C71.8049 9.8599 72.4788 9.69498 73.2516 9.69498C73.9207 9.69498 74.5192 9.81278 75.047 10.0484C75.5841 10.284 76.0177 10.6233 76.3475 11.0662C76.6774 11.5092 76.88 12.0417 76.9554 12.6637L74.7642 12.7626C74.6982 12.2914 74.5286 11.938 74.2553 11.7024C73.9914 11.4574 73.6568 11.3348 73.2516 11.3348C72.7238 11.3348 72.3139 11.5375 72.0217 11.9427C71.7295 12.348 71.5835 12.9181 71.5835 13.6533C71.5835 14.3884 71.7295 14.9633 72.0217 15.3779C72.3139 15.7832 72.7238 15.9858 73.2516 15.9858C73.6568 15.9858 73.9961 15.8633 74.2694 15.6183C74.5427 15.3638 74.7077 14.9821 74.7642 14.4732L76.9554 14.558C76.8894 15.18 76.6915 15.7219 76.3617 16.1837C76.0412 16.6361 75.6124 16.9895 75.0752 17.244C74.5475 17.489 73.9396 17.6115 73.2516 17.6115ZM78.1272 17.4419V9.86462H80.1346L80.2053 12.0699L80.0498 12.0275C80.1723 11.2642 80.3891 10.7128 80.7001 10.3735C81.0111 10.0343 81.4399 9.86462 81.9865 9.86462H82.6792V11.6176H81.9865C81.5907 11.6176 81.2656 11.6694 81.0111 11.7731C80.7566 11.8767 80.5634 12.0417 80.4315 12.2679C80.309 12.494 80.2477 12.8003 80.2477 13.1867V17.4419H78.1272ZM86.4273 17.6115C85.6451 17.6115 85.0325 17.3618 84.5896 16.8623C84.156 16.3534 83.9393 15.6465 83.9393 14.7418V9.86462H86.0598V14.247C86.0598 14.8313 86.1493 15.2601 86.3284 15.5334C86.5074 15.7973 86.7902 15.9293 87.1766 15.9293C87.6101 15.9293 87.9447 15.7832 88.1803 15.491C88.4253 15.1894 88.5478 14.7418 88.5478 14.148V9.86462H90.6684V17.4419H88.7316L88.6751 15.2648L88.9437 15.3214C88.8306 16.0753 88.562 16.6455 88.1379 17.0319C87.7138 17.4183 87.1436 17.6115 86.4273 17.6115ZM92.4158 17.4419V9.86462H94.5363V17.4419H92.4158ZM92.3734 8.93159V7.23519H94.5646V8.93159H92.3734ZM99.1159 17.4419C98.3337 17.4419 97.7588 17.2628 97.3912 16.9047C97.0237 16.5371 96.8399 15.9575 96.8399 15.1659V8.08339H98.9604V14.9114C98.9604 15.279 99.0358 15.5287 99.1866 15.6607C99.3468 15.7926 99.5824 15.8586 99.8934 15.8586H100.954V17.4419H99.1159ZM95.6242 11.4479V9.86462H100.954V11.4479H95.6242Z" fill="white"/>
<path d="M105.532 18.4419V6.4076H106.989V17.7639L106.26 17.0181H113.006V18.4419H105.532ZM118.007 18.6453C117.182 18.6453 116.459 18.4532 115.837 18.069C115.216 17.6848 114.735 17.1424 114.397 16.4418C114.058 15.7299 113.888 14.8994 113.888 13.9502C113.888 12.9897 114.058 12.1592 114.397 11.4586C114.735 10.758 115.216 10.2156 115.837 9.83145C116.459 9.44725 117.182 9.25515 118.007 9.25515C118.832 9.25515 119.549 9.44725 120.159 9.83145C120.781 10.2156 121.261 10.758 121.6 11.4586C121.939 12.1592 122.109 12.9897 122.109 13.9502C122.109 14.8994 121.939 15.7299 121.6 16.4418C121.261 17.1424 120.781 17.6848 120.159 18.069C119.549 18.4532 118.832 18.6453 118.007 18.6453ZM118.007 17.2893C118.832 17.2893 119.47 16.9955 119.922 16.4079C120.385 15.809 120.617 14.9898 120.617 13.9502C120.617 12.9106 120.385 12.0971 119.922 11.5095C119.47 10.9106 118.832 10.6111 118.007 10.6111C117.182 10.6111 116.538 10.9106 116.075 11.5095C115.611 12.0971 115.38 12.9106 115.38 13.9502C115.38 14.9898 115.611 15.809 116.075 16.4079C116.538 16.9955 117.182 17.2893 118.007 17.2893ZM127.558 18.6453C126.721 18.6453 125.993 18.4532 125.371 18.069C124.761 17.6848 124.286 17.1424 123.947 16.4418C123.608 15.7299 123.439 14.8994 123.439 13.9502C123.439 13.001 123.608 12.1762 123.947 11.4756C124.286 10.775 124.761 10.2326 125.371 9.84839C125.993 9.4529 126.721 9.25515 127.558 9.25515C128.247 9.25515 128.857 9.37945 129.388 9.62805C129.931 9.86534 130.371 10.2156 130.71 10.6789C131.049 11.1422 131.27 11.7072 131.371 12.3739L129.88 12.4756C129.778 11.8767 129.518 11.4191 129.1 11.1027C128.682 10.775 128.168 10.6111 127.558 10.6111C126.733 10.6111 126.089 10.9106 125.625 11.5095C125.162 12.0971 124.93 12.9106 124.93 13.9502C124.93 14.9898 125.162 15.809 125.625 16.4079C126.089 16.9955 126.733 17.2893 127.558 17.2893C128.168 17.2893 128.682 17.1198 129.1 16.7808C129.518 16.4418 129.778 15.9333 129.88 15.2554L131.371 15.357C131.27 16.0237 131.049 16.6057 130.71 17.1029C130.371 17.5888 129.931 17.9673 129.388 18.2385C128.857 18.5097 128.247 18.6453 127.558 18.6453ZM135.792 18.6453C134.865 18.6453 134.125 18.4306 133.571 18.0012C133.029 17.5718 132.758 16.9729 132.758 16.2045C132.758 15.4361 132.984 14.8316 133.436 14.3909C133.888 13.9502 134.605 13.6395 135.588 13.4587L138.775 12.8654C138.775 12.1084 138.594 11.5434 138.233 11.1705C137.882 10.7976 137.351 10.6111 136.639 10.6111C136.018 10.6111 135.526 10.7524 135.165 11.0349C134.803 11.3061 134.554 11.7016 134.419 12.2214L132.91 12.1027C133.08 11.2552 133.487 10.5716 134.131 10.0518C134.786 9.5207 135.622 9.25515 136.639 9.25515C137.792 9.25515 138.673 9.58285 139.283 10.2382C139.894 10.8823 140.199 11.775 140.199 12.9163V16.6283C140.199 16.8317 140.233 16.9786 140.3 17.069C140.38 17.1481 140.504 17.1876 140.673 17.1876H141.029V18.4419C140.984 18.4532 140.911 18.4588 140.809 18.4588C140.707 18.4701 140.6 18.4758 140.487 18.4758C140.08 18.4758 139.747 18.4136 139.487 18.2893C139.238 18.1537 139.057 17.9504 138.944 17.6792C138.831 17.3967 138.775 17.0294 138.775 16.5774L138.944 16.6113C138.865 16.9955 138.673 17.3458 138.368 17.6622C138.063 17.9673 137.685 18.2102 137.233 18.391C136.781 18.5605 136.3 18.6453 135.792 18.6453ZM135.927 17.391C136.526 17.391 137.035 17.278 137.453 17.052C137.882 16.8147 138.21 16.4983 138.436 16.1028C138.662 15.696 138.775 15.2441 138.775 14.7469V14.1028L135.86 14.6452C135.249 14.7582 134.826 14.9333 134.588 15.1706C134.362 15.3966 134.249 15.696 134.249 16.0689C134.249 16.487 134.396 16.8147 134.69 17.052C134.995 17.278 135.408 17.391 135.927 17.391ZM144.301 18.4419C143.781 18.4419 143.357 18.3063 143.03 18.0351C142.702 17.7639 142.538 17.3345 142.538 16.7469V6.4076H143.962V16.6283C143.962 16.8091 144.007 16.9503 144.097 17.052C144.199 17.1424 144.34 17.1876 144.521 17.1876H145.301V18.4419H144.301Z" fill="white"/>
</svg>
